<svg xmlns="http://www.w3.org/2000/svg" width="301" height="300" viewBox="0 0 301 300" fill="none">
<path d="M113.626 246.637H109.768C109.173 246.637 109.173 245.737 109.768 245.737H113.626C114.222 245.737 114.222 246.637 113.626 246.637ZM105.91 246.637H102.052C101.457 246.637 101.457 245.737 102.052 245.737H105.91C106.506 245.737 106.506 246.637 105.91 246.637ZM98.1942 246.637H94.3363C93.7407 246.637 93.7407 245.737 94.3363 245.737H98.1942C98.7897 245.737 98.7897 246.637 98.1942 246.637ZM90.4798 246.637H86.6217C86.0263 246.637 86.0263 245.737 86.6217 245.737H90.4798C91.0752 245.737 91.0752 246.637 90.4798 246.637ZM82.7637 246.637H78.9058C78.3102 246.637 78.3102 245.737 78.9058 245.737H82.7637C83.3592 245.737 83.3592 246.637 82.7637 246.637ZM75.0478 246.637H71.1897C70.5942 246.637 70.5942 245.737 71.1897 245.737H75.0478C75.6433 245.737 75.6433 246.637 75.0478 246.637ZM67.3333 246.637H63.4753C62.8798 246.637 62.8798 245.737 63.4753 245.737H67.3333C67.9288 245.737 67.9288 246.637 67.3333 246.637ZM59.6172 246.637H55.7593C55.1638 246.637 55.1638 245.737 55.7593 245.737H59.6172C60.2127 245.737 60.2127 246.637 59.6172 246.637ZM51.9013 246.637H48.0432C47.4477 246.637 47.4477 245.737 48.0432 245.737H51.9013C52.4968 245.737 52.4968 246.637 51.9013 246.637ZM116.25 245.405V241.547C116.25 240.952 117.15 240.952 117.15 241.547V245.405C117.15 246.001 116.25 246.001 116.25 245.405ZM46.9093 243.014V239.156C46.9093 238.561 47.8093 238.561 47.8093 239.156V243.014C47.8093 243.61 46.9093 243.61 46.9093 243.014ZM116.25 237.691V233.833C116.25 233.237 117.15 233.237 117.15 233.833V237.691C117.15 238.286 116.25 238.286 116.25 237.691ZM46.9093 235.298V231.44C46.9093 230.845 47.8093 230.845 47.8093 231.44V235.298C47.8093 235.894 46.9093 235.894 46.9093 235.298ZM116.25 229.975V226.117C116.25 225.521 117.15 225.521 117.15 226.117V229.975C117.15 230.57 116.25 230.57 116.25 229.975ZM46.9093 227.582V223.724C46.9093 223.129 47.8093 223.129 47.8093 223.724V227.582C47.8093 228.178 46.9093 228.178 46.9093 227.582ZM116.25 222.259V218.401C116.25 217.805 117.15 217.805 117.15 218.401V222.259C117.15 222.854 116.25 222.854 116.25 222.259ZM46.9093 219.868V216.01C46.9093 215.414 47.8093 215.414 47.8093 216.01V219.868C47.8093 220.463 46.9093 220.463 46.9093 219.868ZM116.25 214.544V210.686C116.25 210.091 117.15 210.091 117.15 210.686V214.544C117.15 215.14 116.25 215.14 116.25 214.544ZM46.9093 212.153V208.295C46.9093 207.7 47.8093 207.7 47.8093 208.295V212.153C47.8093 212.749 46.9093 212.749 46.9093 212.153ZM151.48 207.341H147.622C147.027 207.341 147.027 206.441 147.622 206.441H151.48C152.076 206.441 152.076 207.341 151.48 207.341ZM143.764 207.341H139.906C139.311 207.341 139.311 206.441 139.906 206.441H143.764C144.36 206.441 144.36 207.341 143.764 207.341ZM136.048 207.341H132.19C131.595 207.341 131.595 206.441 132.19 206.441H136.048C136.644 206.441 136.644 207.341 136.048 207.341ZM128.332 207.341H124.474C123.879 207.341 123.879 206.441 124.474 206.441H128.332C128.928 206.441 128.928 207.341 128.332 207.341ZM120.616 207.341H116.758C116.163 207.341 116.163 206.441 116.758 206.441H120.616C121.212 206.441 121.212 207.341 120.616 207.341ZM46.9062 204.439V200.581C46.9062 199.985 47.8063 199.985 47.8063 200.581V204.439C47.8063 205.034 46.9062 205.034 46.9062 204.439ZM46.9062 196.723V192.865C46.9062 192.269 47.8063 192.269 47.8063 192.865V196.723C47.8063 197.318 46.9062 197.318 46.9062 196.723ZM46.9062 189.007V185.149C46.9062 184.553 47.8063 184.553 47.8063 185.149V189.007C47.8063 189.602 46.9062 189.602 46.9062 189.007ZM46.9062 181.291V177.433C46.9062 176.837 47.8063 176.837 47.8063 177.433V181.291C47.8063 181.886 46.9062 181.886 46.9062 181.291ZM46.9062 173.576V169.718C46.9062 169.123 47.8063 169.123 47.8063 169.718V173.576C47.8063 174.172 46.9062 174.172 46.9062 173.576ZM46.9062 165.86V162.002C46.9062 161.407 47.8063 161.407 47.8063 162.002V165.86C47.8063 166.456 46.9062 166.456 46.9062 165.86ZM46.9062 158.144V154.286C46.9062 153.691 47.8063 153.691 47.8063 154.286V158.144C47.8063 158.74 46.9062 158.74 46.9062 158.144ZM46.9062 150.428V146.57C46.9062 145.975 47.8063 145.975 47.8063 146.57V150.428C47.8063 151.024 46.9062 151.024 46.9062 150.428ZM46.9062 142.712V138.854C46.9062 138.259 47.8063 138.259 47.8063 138.854V142.712C47.8063 143.308 46.9062 143.308 46.9062 142.712ZM46.9062 134.996V131.138C46.9062 130.543 47.8063 130.543 47.8063 131.138V134.996C47.8063 135.592 46.9062 135.592 46.9062 134.996ZM46.9062 127.28V123.422C46.9062 122.827 47.8063 122.827 47.8063 123.422V127.28C47.8063 127.876 46.9062 127.876 46.9062 127.28ZM46.9062 119.564V115.706C46.9062 115.111 47.8063 115.111 47.8063 115.706V119.564C47.8063 120.16 46.9062 120.16 46.9062 119.564ZM46.9062 111.848V107.99C46.9062 107.395 47.8063 107.395 47.8063 107.99V111.848C47.8063 112.444 46.9062 112.444 46.9062 111.848ZM46.9062 104.132V100.274C46.9062 99.6788 47.8063 99.6788 47.8063 100.274V104.132C47.8063 104.728 46.9062 104.728 46.9062 104.132ZM46.9062 96.4163V92.5583C46.9062 91.9628 47.8063 91.9628 47.8063 92.5583V96.4163C47.8063 97.0118 46.9062 97.0118 46.9062 96.4163ZM46.9062 88.7003V84.8423C46.9062 84.2468 47.8063 84.2468 47.8063 84.8423V88.7003C47.8063 89.2958 46.9062 89.2958 46.9062 88.7003ZM46.9062 80.9843V77.1263C46.9062 76.5308 47.8063 76.5308 47.8063 77.1263V80.9843C47.8063 81.5798 46.9062 81.5798 46.9062 80.9843Z" fill="#001550"/>
<path d="M80.9101 204.172H14.832V270.25H80.9101V204.172Z" fill="#4582ec"/>
<path d="M81.3599 204.175C81.3599 203.927 81.1574 203.725 80.9099 203.725H11.2859C11.0384 203.725 10.8359 203.927 10.8359 204.175V270.253C10.8359 270.5 11.0384 270.703 11.2859 270.703H80.9099C81.1574 270.703 81.3599 270.5 81.3599 270.253V204.175ZM80.4629 269.803H15.2819V204.625H80.4629V269.803Z" fill="#001550"/>
<path d="M63.8817 245.674C59.8467 225.547 60.0192 225.722 59.7162 225.569C46.7232 219.019 47.6157 219.269 47.2887 219.539C34.1817 230.293 34.2957 230.113 34.3422 230.492C36.3672 246.685 36.1482 252.293 39.0357 251.882C40.1622 251.693 40.0767 248.827 48.1107 249.14C54.1467 249.208 54.8382 250.738 56.5842 251.12C58.3137 251.506 62.5122 247.345 63.7632 246.076C63.8652 245.969 63.9117 245.819 63.8817 245.674Z" fill="#001550"/>
<path d="M52.7772 250.246C52.4187 248.31 52.4562 245.5 52.5027 244.111C52.9152 243.561 53.2557 242.952 53.4882 242.293C55.0737 237.777 56.2182 233.202 55.9122 227.206C55.6062 221.211 53.7522 218.061 47.2227 218.061C40.6932 218.061 39.0507 221.868 38.7867 228.171C38.5857 232.95 39.0072 240.709 42.0162 244.467C42.0807 245.881 42.1902 249.246 41.8857 251.217C41.6187 252.952 41.4672 254.164 39.0087 254.644C44.0202 267.718 50.9667 267.979 56.1747 254.644C53.6412 254.11 53.1597 252.313 52.7772 250.246Z" fill="#ffffff"/>
<path d="M44.2168 240.94C46.1548 241.249 48.1768 241.297 50.3473 240.879C50.3473 240.879 46.7668 246.138 44.2168 240.94Z" fill="#4582ec"/>
<path d="M45.6155 236.791C45.2915 236.515 45.707 236.023 46.0295 236.299C46.814 236.967 47.8505 236.937 48.5465 236.235C48.848 235.93 49.298 236.392 48.9995 236.688C48.017 237.664 46.6415 237.664 45.6155 236.791Z" fill="#001550"/>
<path d="M50.7686 240.28C48.3896 241.236 44.9021 240.817 43.2941 240.235C42.8981 240.09 42.6731 240.693 43.0751 240.84C43.2536 240.904 43.4711 240.97 43.7201 241.036C44.2451 241.879 44.8496 242.574 45.6206 243.165C47.4446 244.561 49.2641 242.721 50.6456 241.011C50.7671 240.969 50.8871 240.927 51.0056 240.879C51.4076 240.715 51.1556 240.121 50.7686 240.28ZM46.0181 242.656C45.3911 242.178 44.9201 241.626 44.6276 241.237C46.2011 241.53 48.0116 241.602 49.5761 241.293C48.0851 243.003 47.0021 243.409 46.0181 242.656Z" fill="#001550"/>
<path d="M43.2705 231.885C43.65 231.885 43.959 232.239 43.959 232.675C43.959 233.112 43.6515 233.466 43.2705 233.466C42.8895 233.466 42.582 233.112 42.582 232.675C42.582 232.239 42.8895 231.885 43.2705 231.885Z" fill="#001550"/>
<path d="M51.3291 231.885C51.7086 231.885 52.0176 232.239 52.0176 232.675C52.0176 233.112 51.7101 233.466 51.3291 233.466C50.9481 233.466 50.6406 233.112 50.6406 232.675C50.6406 232.239 50.9481 231.885 51.3291 231.885Z" fill="#001550"/>
<path d="M48.6526 215.384C43.7116 214.619 43.2481 216.76 40.4266 217.798C38.2531 218.597 33.0586 223.543 30.2656 233.264C28.7266 238.621 27.9286 246.274 29.5966 249.611C31.2646 252.947 37.7206 252.086 39.2371 251.527C37.7101 246.943 38.1121 239.134 38.0761 233.251C38.0476 228.377 42.8686 225.956 43.0261 219.434C43.0336 219.1 43.6696 218.894 43.8811 219.331C47.1316 226.048 56.5381 224.693 56.6596 232.453C56.7496 238.262 56.8426 246.328 56.3056 250.771C60.9571 252.053 65.8321 250.762 65.8531 249.607C66.3136 225.14 56.5816 216.611 48.6511 215.383L48.6526 215.384Z" fill="#c2eafc"/>
<path d="M35.336 252.389C32.9825 252.389 30.3455 251.827 29.312 249.76C27.6125 246.362 28.376 238.682 29.9585 233.179C32.8385 223.156 38.1815 218.287 40.316 217.501C43.0625 216.49 43.6295 214.289 48.7025 215.074C53.4065 215.801 57.6545 218.836 60.665 223.618C64.5215 229.745 66.398 238.496 66.1745 249.622C66.1685 249.917 65.9945 250.196 65.651 250.451C64.3535 251.416 60.2585 252.191 56.222 251.087C56.0675 251.045 55.9685 250.897 55.988 250.739C56.4875 246.628 56.45 239.527 56.339 232.466C56.219 224.912 46.8215 226.31 43.592 219.479C43.5515 219.394 43.445 219.371 43.3475 219.47C43.028 226.019 38.372 228.544 38.4005 233.252C38.4335 238.924 38.0255 246.875 39.545 251.428C39.599 251.591 39.512 251.771 39.3515 251.83C38.6885 252.071 37.091 252.389 35.336 252.389ZM46.742 215.539C43.598 215.539 43.082 217.168 40.541 218.104C39.596 218.452 37.796 219.782 35.8385 222.382C29.189 231.215 27.803 245.297 29.891 249.472C31.316 252.32 36.863 251.893 38.8415 251.324C37.406 246.641 37.7945 238.958 37.7615 233.258C37.733 228.268 42.3875 225.86 42.7115 219.422C42.7475 218.722 43.8245 218.477 44.174 219.194C47.414 225.821 56.858 224.434 56.9855 232.451C57.095 239.38 57.1295 246.349 56.6645 250.534C60.281 251.453 64.085 250.82 65.273 249.929C65.4665 249.785 65.537 249.665 65.54 249.601C65.909 238.607 63.92 229.972 60.1295 223.951C56.474 218.144 51.284 215.537 46.7435 215.537L46.742 215.539Z" fill="#001550"/>
<path d="M40.5102 230.053C40.5297 230.03 42.5127 227.911 45.1392 229.172C45.5232 229.357 45.2412 229.934 44.8632 229.751C42.6777 228.692 41.0547 230.414 40.9857 230.488C40.7052 230.789 40.2177 230.378 40.5102 230.053Z" fill="#001550"/>
<path d="M53.6144 230.488C53.5439 230.413 51.8639 228.656 49.3964 229.954C49.0214 230.152 48.7199 229.583 49.0979 229.385C52.0094 227.851 54.0644 230.029 54.0839 230.051C54.3719 230.378 53.8889 230.783 53.6144 230.488Z" fill="#001550"/>
<path d="M41.7007 232.747C41.3767 232.747 41.2567 232.328 41.5237 232.156C42.3547 231.617 43.6672 231.134 45.1792 231.86C45.5632 232.045 45.2812 232.622 44.9032 232.439C43.1677 231.596 41.9542 232.748 41.7007 232.748V232.747Z" fill="#001550"/>
<path d="M52.8894 232.867C52.1499 232.304 50.9709 231.79 49.6164 232.439C49.2339 232.622 48.9564 232.045 49.3404 231.86C50.6229 231.245 52.0209 231.416 53.2749 232.349C53.6244 232.609 53.2179 233.117 52.8894 232.867Z" fill="#001550"/>
<path d="M78.3871 270.245L76.5586 265.52C75.0511 261.397 71.5981 258.346 67.3321 257.362L56.6506 254.455C54.5446 253.882 53.7091 253.487 53.0971 250.187C52.7551 248.338 52.7821 245.635 52.8256 244.225C53.2276 243.673 53.5606 243.062 53.7916 242.402C55.2511 238.249 56.5561 233.533 56.2351 227.194C55.9456 221.519 54.1321 217.742 47.2246 217.742C40.3171 217.742 38.7271 221.905 38.4676 228.161C38.2651 233.002 38.7091 240.766 41.7001 244.579C41.7646 246.038 41.8711 249.278 41.5696 251.167C41.1886 253.543 40.9426 253.798 38.7916 254.372L27.6076 257.362C23.3281 258.349 19.8736 261.4 18.3691 265.523L16.6396 270.253C16.4941 270.65 17.0986 270.872 17.2441 270.475L18.9736 265.742C20.4046 261.824 23.6866 258.923 27.7621 257.986L38.8126 255.032C43.9441 268.177 51.1396 268.154 56.3626 255.047L67.1746 257.99C71.2381 258.926 74.5201 261.826 75.9541 265.75L77.7826 270.479C77.9311 270.875 78.5416 270.653 78.3871 270.251V270.245ZM40.3636 240.5C39.3541 236.986 38.9206 232.727 39.1096 228.184C39.3601 222.131 40.8076 218.378 47.2231 218.378C52.1131 218.378 55.2181 219.857 55.5946 227.219C55.9096 233.446 54.6241 238.091 53.1871 242.18C52.2256 244.913 49.0381 247.085 46.8541 247.054C44.9206 247.027 41.6341 244.925 40.3636 240.499V240.5ZM39.4441 254.873C41.7361 254.303 41.9326 252.982 42.1936 251.336C42.4561 249.673 42.4321 247.04 42.3766 245.353C42.5251 245.506 44.6176 247.7 46.9216 247.7C48.3631 247.7 50.5651 246.724 52.1596 245.024C52.1356 246.532 52.1671 248.695 52.4641 250.3C52.8526 252.406 53.3776 254.206 55.7431 254.861C50.7181 267.416 44.3011 267.22 39.4441 254.872V254.873Z" fill="#001550"/>
<path d="M33.2112 240.469C33.2112 240.469 33.0282 248.399 34.4097 251.813L33.2112 240.469Z" fill="#c2eafc"/>
<path d="M34.1085 251.936C32.694 248.511 32.8785 240.791 32.8875 240.462C32.898 240.038 33.534 240.045 33.531 240.476C33.531 240.552 33.354 248.385 34.707 251.691C34.8705 252.09 34.2675 252.318 34.1085 251.936Z" fill="#001550"/>
<path d="M60.9248 247.178C61.3658 241.189 60.5618 235.469 60.0338 232.589C59.9573 232.174 60.5873 232.055 60.6638 232.474C61.1993 235.379 62.0183 241.166 61.5638 247.226C61.5323 247.648 60.8933 247.6 60.9248 247.178Z" fill="#001550"/>
<path d="M33.9947 233.998C34.1957 230.103 36.6887 224.959 36.7952 224.74C36.9782 224.359 37.5632 224.637 37.3742 225.024C37.3487 225.075 34.8332 230.268 34.6382 234.028C34.6172 234.445 33.9722 234.435 33.9947 234V233.998Z" fill="#001550"/>
<path d="M56.4027 224.27C53.4822 221.183 49.6347 219.301 48.7092 219.301C48.5322 219.301 48.3867 219.157 48.3867 218.98C48.3867 217.598 54.0027 220.79 56.8767 223.831C57.1692 224.141 56.6982 224.581 56.4042 224.272L56.4027 224.27Z" fill="#001550"/>
<path d="M89.7784 261.705H67.2754V284.208H89.7784V261.705Z" fill="#4582ec"/>
<path d="M89.7792 284.661H67.2762C67.0287 284.661 66.8262 284.458 66.8262 284.211V261.708C66.8262 261.46 67.0287 261.258 67.2762 261.258H89.7792C90.0267 261.258 90.2292 261.46 90.2292 261.708V265.218C90.2292 265.813 89.3292 265.813 89.3292 265.218V262.158H67.7262V283.761H89.3292V274.239C89.3292 273.643 90.2292 273.643 90.2292 274.239V284.211C90.2292 284.458 90.0267 284.661 89.7792 284.661Z" fill="#001550"/>
<path d="M97.8244 261.484L78.9409 274.986L75.6649 266.11L71.1094 267.646C71.1094 267.646 76.8544 279.924 77.6449 281.313C77.5519 281.386 97.1869 265.252 97.8559 264.718L97.8244 261.484Z" fill="#001550"/>
<path d="M80.9101 105.998H14.832V172.076H80.9101V105.998Z" fill="#4582ec"/>
<path d="M81.3599 105.999C81.3599 105.751 81.1574 105.549 80.9099 105.549H11.2859C11.0384 105.549 10.8359 105.751 10.8359 105.999V172.077C10.8359 172.324 11.0384 172.527 11.2859 172.527H80.9099C81.1574 172.527 81.3599 172.324 81.3599 172.077V105.999ZM80.4629 171.627H15.2819V106.449H80.4629V171.627Z" fill="#001550"/>
<path d="M68.6591 149.124C68.4746 150.143 66.7526 151.031 64.0811 151.712C63.9266 151.751 63.7646 151.688 63.6791 151.554C61.2701 147.743 61.3826 147.89 61.2326 147.924C61.0826 147.96 61.1531 147.914 60.4616 152.106C60.4256 152.322 60.2561 152.492 60.0401 152.525C53.2526 153.561 43.7396 153.86 36.2801 153.129C36.0806 153.11 35.9231 152.955 35.8976 152.76L35.3156 148.533C35.2946 148.397 35.1146 148.361 35.0486 148.482C32.7896 152.645 32.8166 152.684 32.4956 152.63C28.2791 151.919 25.2716 150.746 24.7256 149.072C23.9246 146.61 27.3341 143.436 30.7331 126.44C33.5381 112.413 45.2156 116.412 45.2156 116.412C45.2156 116.412 49.9286 113.298 56.2031 117.026C60.7001 119.697 63.5651 126.282 65.4641 132.827C67.5056 139.856 69.0641 146.871 68.6561 149.126L68.6591 149.124Z" fill="#001550"/>
<path d="M58.8254 135.232C59.2274 132.795 59.4465 130.749 59.391 129.843C58.9965 123.408 54.756 119.598 48.2265 119.598C41.697 119.598 36.933 124.195 36.669 130.498C36.6315 131.395 36.8925 133.14 37.3155 135.237C35.3865 134.622 34.3485 136.885 35.3325 139.12C36.0495 140.751 37.5419 141.672 38.6669 141.177L38.6939 141.163C39.5624 144.534 39.9449 146.4 41.6729 148.384C41.7254 149.757 41.7839 154.926 39.7499 156.477C44.7614 169.551 51.708 169.812 56.916 156.477C54.6105 155.002 54.5444 150.445 54.6164 148.618C56.2799 146.691 56.925 144.036 57.6 141.265C58.6965 141.579 60.06 140.674 60.735 139.138C61.7055 136.929 60.7079 134.704 58.8254 135.232Z" fill="#ffffff"/>
<path d="M44.457 143.82C46.8645 144.129 49.251 144.144 51.6105 143.711C51.6105 143.711 49.4595 147.561 46.9875 146.646C45.0075 145.913 44.457 143.82 44.457 143.82Z" fill="#4582ec"/>
<path d="M46.0529 139.011C45.7859 138.683 46.2839 138.273 46.5539 138.606C47.5004 139.769 48.6689 139.74 49.5149 138.485C49.7534 138.132 50.2859 138.491 50.0489 138.845C48.8969 140.556 47.1974 140.421 46.0529 139.011Z" fill="#001550"/>
<path d="M51.9918 143.158C49.3068 144.322 45.3723 143.814 43.5588 143.103C43.1613 142.95 42.9273 143.548 43.3248 143.704C43.5213 143.781 43.7613 143.862 44.0358 143.94C44.3628 144.369 44.8068 145.383 46.2018 146.536C48.1863 148.18 50.0883 146.041 51.6018 143.994C51.8208 143.922 52.0353 143.841 52.2468 143.749C52.6293 143.584 52.3893 142.986 51.9918 143.158ZM46.6098 146.041C45.8253 145.395 45.2553 144.637 44.9373 144.16C46.7313 144.537 48.7848 144.637 50.5863 144.264C49.4103 145.756 48.0213 147.205 46.6098 146.041Z" fill="#001550"/>
<path d="M38.5347 121.095C36.0207 123.657 33.9537 127.99 36.6807 134.613C38.3712 127.279 43.6122 128.092 43.7757 121.269C43.7847 120.925 44.4177 120.727 44.6307 121.165C47.9742 128.082 55.4517 126.438 59.7207 132.397C60.9852 128.283 60.2112 124.86 58.3767 122.263C54.7422 117.118 41.7942 117.771 38.5347 121.095Z" fill="#001550"/>
<path d="M40.908 129.986C40.5975 129.986 40.467 129.569 40.734 129.395C40.8375 129.327 43.2645 127.785 45.8355 129.282C46.2045 129.497 45.879 130.053 45.5115 129.839C43.197 128.493 41.13 129.986 40.908 129.986Z" fill="#001550"/>
<path d="M54.979 130.048C54.8935 129.985 52.849 128.551 50.5615 129.723C50.1865 129.915 49.885 129.349 50.266 129.151C52.903 127.774 55.255 129.457 55.3555 129.528C55.7035 129.774 55.318 130.297 54.979 130.048Z" fill="#001550"/>
<path d="M79.1292 172.076L77.3007 167.351C75.7932 163.226 72.3402 160.175 68.0742 159.191L57.0957 156.203C54.9777 154.615 54.6837 150.757 55.0512 148.586C56.5782 146.696 57.1902 144.245 57.8397 141.62C59.1957 141.761 60.4602 140.563 61.0347 139.253C61.9977 137.057 61.1307 134.692 59.2092 134.833C59.5692 132.574 59.7627 130.693 59.7087 129.821C59.3037 123.215 54.8352 119.273 48.2232 119.273C41.6112 119.273 36.6147 123.989 36.3447 130.483C36.3102 131.32 36.5322 132.901 36.9102 134.836C34.9347 134.642 34.0557 137.038 35.0307 139.253C35.6547 140.666 37.0752 141.91 38.4687 141.58C39.2652 144.635 39.6552 146.519 41.3877 148.544C41.3457 149.935 41.5617 154.612 39.6042 156.179L28.3512 159.187C24.0717 160.174 20.6202 163.225 19.1127 167.35L17.3832 172.078C17.3052 172.291 17.4672 172.508 17.6862 172.508C18.0057 172.508 17.8752 172.612 19.7172 167.567C21.1482 163.649 24.4302 160.748 28.5072 159.811L39.5577 156.857C44.6892 170 51.8832 169.979 57.1047 156.872L67.9197 159.815C71.9832 160.751 75.2277 163.664 76.6992 167.576C78.6027 172.639 78.5157 172.511 78.8277 172.511C79.0767 172.511 79.2102 172.276 79.1337 172.078L79.1292 172.076ZM60.4452 138.997C59.8977 140.237 58.8747 141.035 57.9912 140.992C58.4277 139.153 58.8102 137.228 59.1042 135.484C60.7872 135.221 61.1622 137.375 60.4452 138.997ZM35.6217 138.997C34.8642 137.267 35.3757 135.154 37.0422 135.497C37.3842 137.176 37.8267 139.072 38.3082 140.962C37.3752 141.178 36.2157 140.351 35.6217 138.997ZM39.9417 144.542C38.4252 139.244 36.9042 132.548 36.9882 130.51C37.2417 124.373 41.9682 119.918 48.2232 119.918C54.6327 119.918 58.6872 123.634 59.0697 129.862C59.2017 132.013 57.7812 140.477 56.0922 145.351C54.5817 149.716 50.9037 151.273 47.9682 151.273C45.4347 151.273 41.2722 149.186 39.9402 144.544L39.9417 144.542ZM40.1352 156.572C41.9262 154.954 42.0582 150.937 42.0282 149.231C43.7982 150.958 46.0407 151.915 47.9682 151.915C50.0307 151.915 52.4337 151.202 54.3042 149.401C54.2337 151.117 54.3402 154.96 56.5257 156.592C51.3927 169.525 44.9202 168.857 40.1352 156.572Z" fill="#001550"/>
<path d="M42.7735 131.232C44.7085 131.232 46.2775 132.801 46.2775 134.736C46.2775 136.671 44.7085 138.24 42.7735 138.24C40.8385 138.24 39.2695 136.671 39.2695 134.736C39.2695 132.801 40.8385 131.232 42.7735 131.232Z" fill="#4582ec"/>
<path d="M42.9137 133.98C43.4567 133.98 43.8977 134.502 43.8977 135.147C43.8977 135.792 43.4567 136.314 42.9137 136.314C42.3707 136.314 41.9297 135.792 41.9297 135.147C41.9297 134.502 42.3707 133.98 42.9137 133.98Z" fill="#001550"/>
<path d="M40.7071 134.16C40.7746 134.123 42.4141 133.254 44.7451 133.862C45.2806 134.001 45.0676 134.811 44.5336 134.669C42.5431 134.141 41.1196 134.888 41.1031 134.897C40.6336 135.159 40.2196 134.432 40.7071 134.16Z" fill="#001550"/>
<path d="M53.4102 131.232C55.3452 131.232 56.9143 132.801 56.9143 134.736C56.9143 136.671 55.3452 138.24 53.4102 138.24C51.4752 138.24 49.9062 136.671 49.9062 134.736C49.9062 132.801 51.4752 131.232 53.4102 131.232Z" fill="#4582ec"/>
<path d="M53.2652 133.98C53.8082 133.98 54.2493 134.502 54.2493 135.147C54.2493 135.792 53.8082 136.314 53.2652 136.314C52.7222 136.314 52.2812 135.792 52.2812 135.147C52.2812 134.502 52.7222 133.98 53.2652 133.98Z" fill="#001550"/>
<path d="M55.2701 134.938C55.0211 134.938 53.7506 134.101 51.6446 134.662C51.1151 134.803 50.8916 133.996 51.4331 133.855C53.7611 133.248 55.4006 134.118 55.4711 134.154C55.8491 134.35 55.7051 134.938 55.2701 134.938Z" fill="#001550"/>
<path d="M59.2236 134.149L57.3036 134.292C57.0816 132.339 55.4196 130.816 53.4081 130.816C51.4791 130.816 49.8726 132.216 49.5471 134.053C48.5781 133.594 47.6031 133.596 46.6356 134.056C46.3116 132.217 44.7051 130.816 42.7746 130.816C40.7586 130.816 39.0966 132.343 38.8776 134.301L36.6981 134.196C36.1401 134.181 36.1116 135.001 36.6591 135.031L38.8716 135.138C39.0711 137.115 40.7436 138.66 42.7731 138.66C44.8566 138.66 46.5651 137.028 46.6866 134.974C47.6301 134.409 48.5496 134.409 49.4931 134.971C49.6146 137.026 51.3231 138.66 53.4081 138.66C55.4391 138.66 57.1131 137.109 57.3111 135.129L59.2851 134.982C59.8356 134.943 59.7741 134.11 59.2236 134.149ZM42.7731 137.824C41.0736 137.824 39.6876 136.438 39.6876 134.739C39.6876 133.039 41.0736 131.653 42.7731 131.653C44.4726 131.653 45.8601 133.039 45.8601 134.739C45.8601 136.438 44.4741 137.824 42.7731 137.824ZM53.4081 137.824C51.7071 137.824 50.3226 136.438 50.3226 134.739C50.3226 133.039 51.7086 131.653 53.4081 131.653C55.1076 131.653 56.4936 133.039 56.4936 134.739C56.4936 136.438 55.1076 137.824 53.4081 137.824Z" fill="#001550"/>
<path d="M89.7803 163.547H67.2773V186.05H89.7803V163.547Z" fill="#4582ec"/>
<path d="M89.7792 186.501H67.2762C67.0287 186.501 66.8262 186.298 66.8262 186.051V163.548C66.8262 163.3 67.0287 163.098 67.2762 163.098H89.7792C90.0267 163.098 90.2292 163.3 90.2292 163.548V167.058C90.2292 167.653 89.3292 167.653 89.3292 167.058V163.998H67.7262V185.601H89.3292V176.079C89.3292 175.483 90.2292 175.483 90.2292 176.079V186.051C90.2292 186.298 90.0267 186.501 89.7792 186.501Z" fill="#001550"/>
<path d="M97.8244 163.326L78.9409 176.827L75.6649 167.952L71.1094 169.488C71.1094 169.488 76.8544 181.765 77.6449 183.153C77.5519 183.226 97.1869 167.092 97.8559 166.558L97.8229 163.324L97.8244 163.326Z" fill="#001550"/>
<path d="M80.8981 7.94922H14.832V74.0153H80.8981V7.94922Z" fill="#4582ec"/>
<path d="M81.3489 7.95C81.3489 7.7025 81.1464 7.5 80.8989 7.5H11.2898C11.0423 7.5 10.8398 7.7025 10.8398 7.95V74.016C10.8398 74.2635 11.0423 74.466 11.2898 74.466H80.8989C81.1464 74.466 81.3489 74.2635 81.3489 74.016V7.95ZM80.4489 73.566H15.2828V8.4H80.4474L80.4489 73.566Z" fill="#001550"/>
<path d="M59.9661 33.5289C59.6061 33.3699 59.2461 33.3474 58.8936 33.4359C59.0061 30.6954 58.9566 28.3854 58.8951 27.3894C58.4676 20.4009 54.6484 16.5039 47.5594 16.5039C40.4704 16.5039 35.8551 21.2094 35.5686 28.0539C35.5281 29.0439 35.5714 31.0374 35.7574 33.4239C35.4214 33.3489 35.0749 33.3789 34.7314 33.5289C32.3254 34.5864 33.7761 39.7029 36.5931 40.0644C37.1811 43.2984 37.6986 45.6309 39.9306 47.8614C40.1136 49.5834 40.4899 54.9144 38.3614 56.5374C40.2454 59.5119 44.9031 60.8229 48.0861 63.4914C50.3616 61.4049 55.0191 59.4414 56.9976 56.5374C54.8391 55.1559 54.6994 50.8973 54.8269 48.3368C57.1339 46.1618 57.7954 43.2429 58.2859 40.0779C60.6079 39.9399 62.5131 34.6494 59.9646 33.5304L59.9661 33.5289Z" fill="#ffffff"/>
<path d="M43.6777 43.4821C46.4617 43.8676 49.1332 44.0311 51.2962 43.1641C51.2962 43.1641 48.9397 47.4016 46.7287 46.5391C44.8252 45.7966 43.6777 43.4821 43.6777 43.4821Z" fill="#4582ec"/>
<path d="M45.2461 35.4745C46.1431 32.731 45.6316 31.8205 46.2616 31.8775C46.4386 31.894 46.5691 32.0515 46.5511 32.2285C46.3996 33.742 46.0981 34.939 45.8566 35.6785C45.4246 37.003 47.7256 38.0845 49.2541 36.1C49.5136 35.7625 50.0221 36.1495 49.7656 36.4885C47.8636 38.9995 44.5621 37.567 45.2461 35.4745Z" fill="#001550"/>
<path d="M51.9134 42.5505C49.0424 43.926 44.7449 43.5405 42.7454 42.846C42.3464 42.708 42.1334 43.314 42.5369 43.4535C42.7649 43.533 43.0454 43.614 43.3679 43.6905C43.6919 44.4465 45.0989 45.885 45.7829 46.407C48.0479 48.135 50.1524 45.675 51.7259 43.332C51.8819 43.269 52.0379 43.2015 52.1894 43.128C52.5734 42.9435 52.2944 42.366 51.9134 42.549V42.5505ZM46.1759 45.897C45.2654 45.201 44.5994 44.37 44.2409 43.869C46.2944 44.226 48.6839 44.2425 50.7044 43.6815C49.4579 45.414 47.8424 47.169 46.1759 45.897Z" fill="#001550"/>
<path d="M42.142 34.5839C42.6358 34.5839 43.036 34.109 43.036 33.5234C43.036 32.9376 42.6358 32.4629 42.142 32.4629C41.6484 32.4629 41.248 32.9376 41.248 33.5234C41.248 34.109 41.6484 34.5839 42.142 34.5839Z" fill="#001550"/>
<path d="M52.5893 34.5839C53.0831 34.5839 53.4833 34.109 53.4833 33.5234C53.4833 32.9376 53.0831 32.4629 52.5893 32.4629C52.0957 32.4629 51.6953 32.9376 51.6953 33.5234C51.6953 34.109 52.0957 34.5839 52.5893 34.5839Z" fill="#001550"/>
<path d="M38.284 29.885C38.3965 29.7755 41.0455 27.221 44.533 28.574C45.0475 28.7735 44.746 29.552 44.23 29.3525C41.2525 28.196 38.965 30.3845 38.8675 30.4805C38.485 30.863 37.888 30.2765 38.284 29.885Z" fill="#001550"/>
<path d="M55.8593 30.4815C55.7633 30.387 53.4743 28.197 50.4968 29.3535C49.9823 29.553 49.6793 28.776 50.1938 28.575C53.6828 27.219 56.3333 29.778 56.4428 29.886C56.8328 30.273 56.2494 30.8655 55.8579 30.48L55.8593 30.4815Z" fill="#001550"/>
<path d="M81.0839 73.4846L79.101 68.3546C77.4675 63.8861 73.7265 60.5816 69.1035 59.5136L57.177 56.2691C54.8265 54.7016 55.0425 51.1496 55.26 48.3611C57.42 46.2041 58.0815 43.4006 58.572 40.3676C60.144 40.0586 61.8675 37.3601 61.4325 35.0966C61.1685 33.7106 60.1935 33.0371 59.235 33.0656C59.328 30.4526 59.274 28.2896 59.217 27.3656C58.77 20.0486 54.7395 16.1816 47.5605 16.1816C40.3815 16.1816 35.55 20.8361 35.2515 28.0406C35.2155 28.9001 35.2455 30.7646 35.412 33.0671C35.1405 33.0671 34.869 33.1226 34.6035 33.2396C32.0145 34.3721 33.2715 39.6491 36.321 40.3436C36.936 43.6241 37.482 45.7961 39.594 47.9771C39.621 49.1231 40.4415 54.4676 38.22 56.2436L25.992 59.5091C21.36 60.5801 17.6175 63.8846 15.984 68.3531L14.1059 73.4876C14.0279 73.6991 14.1884 73.9181 14.4074 73.9181C14.7254 73.9181 14.5769 74.0666 16.584 68.5721C18.141 64.3091 21.711 61.1561 26.145 60.1331L34.461 57.9116C36.3255 63.7211 40.0455 69.7061 40.0845 69.7676C40.176 69.9206 40.4025 69.9791 40.566 69.8411L47.6415 63.9866V70.1021C47.6415 70.5266 48.285 70.5281 48.285 70.0991V64.2971L54.987 69.8456C55.1475 69.9776 55.368 69.9251 55.4655 69.7691C55.5015 69.7121 59.187 63.7826 61.062 57.9941L68.9445 60.1376C73.368 61.1561 76.9365 64.3106 78.495 68.5796L80.4824 73.7141C80.6294 74.1101 81.2369 73.8866 81.0839 73.4846ZM59.2095 33.7091C60.507 33.6086 61.4205 35.4176 60.474 37.5731C60.1185 38.3801 59.5035 39.3536 58.6785 39.6641C58.9665 37.6706 59.127 35.5946 59.2095 33.7091ZM35.46 33.7091C35.6085 35.5421 35.841 37.6031 36.1905 39.6311C33.369 38.5751 33.0675 33.6071 35.46 33.7091ZM37.737 43.5896C36.1875 38.1986 35.799 30.4061 35.895 28.0661C36.177 21.2381 40.758 16.8236 47.5605 16.8236C54.363 16.8236 58.1565 20.4791 58.581 27.4031C58.707 29.4836 58.815 39.0536 56.9415 44.4671C55.1805 49.5566 50.046 50.9126 47.2875 50.9126C44.163 50.9126 39.1095 48.3701 37.737 43.5896ZM40.2795 48.6296C42.4785 50.5571 45.2625 51.5576 47.283 51.5576C49.1955 51.5576 52.191 50.9366 54.561 48.9896C54.366 50.6801 54.1755 54.7766 56.535 56.6021C53.916 59.7866 50.0205 61.3211 48.051 63.0821C44.568 60.8441 40.86 59.2256 38.802 56.5856C40.758 54.7421 40.464 50.2811 40.278 48.6296H40.2795ZM40.44 69.1106C39.66 67.8161 36.6855 62.7116 35.0835 57.7436L38.238 56.9006C40.305 59.6171 43.8885 61.2176 47.346 63.3941L40.44 69.1106ZM55.1085 69.1106L48.4425 63.5936C50.322 61.8686 54.399 60.2696 57.1065 56.9156L60.4395 57.8216C58.833 62.7656 55.884 67.8191 55.1085 69.1106Z" fill="#001550"/>
<path d="M37.0523 41.3947C37.0523 41.3947 38.8778 39.2827 46.4708 39.1867C54.0638 39.0907 57.6188 39.3802 57.8123 42.4567C58.0058 45.5332 56.1788 49.3777 54.3533 50.9152C52.5278 52.4527 46.5668 52.9342 43.8758 52.4512C41.1848 51.9682 37.0508 48.7027 37.0508 41.3962L37.0523 41.3947ZM52.1453 47.3767C53.0513 46.6147 54.2618 44.3932 54.5108 42.3967C54.5813 41.8312 54.1988 41.3092 53.6393 41.2072C52.8938 41.0707 50.7908 41.6842 48.8978 41.6437C48.4283 41.6332 47.9783 40.8202 47.4188 40.8202C46.7753 40.8202 46.7753 41.5927 46.0628 41.6017C43.5068 41.6347 41.9228 41.2282 40.7708 41.5237C40.2203 41.6647 39.8798 42.2092 39.9863 42.7642C40.7453 46.7167 42.7283 48.0352 44.1143 48.2587C44.3903 48.3037 45.0143 48.3907 46.0688 48.3907C48.9713 48.3907 50.8133 48.6487 52.1453 47.3767Z" fill="#c2eafc"/>
<path d="M54.8279 42.4349C54.9209 41.6984 54.4229 41.0204 53.6968 40.8884C52.8914 40.7384 50.7239 41.3639 48.9073 41.3219C48.7978 41.3189 48.5984 41.1479 48.4379 41.0129C46.8839 39.7019 46.6799 41.2799 46.0589 41.2799C43.6154 41.3159 41.9039 40.9004 40.6904 41.2154C39.9794 41.3984 39.5294 42.1094 39.6704 42.8294C40.6064 47.6609 43.2704 48.4529 44.0654 48.5804C45.1544 48.7454 45.7649 48.7019 47.3159 48.7289C49.1939 48.7619 51.0719 48.8429 52.3604 47.6204C53.3444 46.7849 54.5669 44.5079 54.8279 42.4349ZM53.5843 41.5259C53.9758 41.5964 54.2459 41.9639 54.1949 42.3584C54.0059 43.8614 52.9964 46.2674 51.9254 47.1509C50.8904 48.1409 49.4714 48.1214 47.3249 48.0899C45.8774 48.0659 45.1304 48.1034 44.1644 47.9489C43.4759 47.8394 41.1584 47.1359 40.3004 42.7124C40.2269 42.3239 40.4669 41.9414 40.8494 41.8409C41.9084 41.5634 43.4714 41.9609 46.0694 41.9309C46.9304 41.9204 47.0054 41.1494 47.4194 41.1494C47.7959 41.1494 48.2879 41.9579 48.8924 41.9699C50.6909 42.0149 52.9558 41.4104 53.5843 41.5259Z" fill="#001550"/>
<path d="M58.134 42.4338C57.915 38.9013 53.556 38.7753 46.467 38.8653C38.8155 38.9613 36.8835 41.0958 36.807 41.1858C36.759 41.2428 36.7305 41.3178 36.7305 41.3943C36.7305 48.8073 40.971 52.2573 43.8195 52.7643C46.5195 53.2488 52.635 52.7763 54.5595 51.1563C56.412 49.5963 58.3335 45.6318 58.134 42.4338ZM54.144 50.6673C52.4265 52.1103 46.5645 52.6023 43.9305 52.1328C41.31 51.6663 37.4235 48.4578 37.3725 41.5338C37.797 41.1678 39.996 39.5853 46.473 39.5058C54.462 39.4068 57.3255 39.8373 57.4905 42.4728C57.681 45.4818 55.8765 49.2078 54.144 50.6673Z" fill="#001550"/>
<path d="M43.5879 16.4818C43.5879 16.4818 50.5284 17.0157 53.2734 15.0312L43.5879 16.4818Z" fill="#c2eafc"/>
<path d="M47.4609 19.6295C49.5414 19.8905 55.9764 19.8575 58.0824 17.627L47.4609 19.6295Z" fill="#c2eafc"/>
<path d="M58.3611 17.47C57.5826 15.622 55.0371 15.3415 53.3016 15.0655C54.0981 13.3615 39.9216 12.4 38.2566 17.464C30.3516 18.9205 34.7361 33.5305 34.7361 33.5305C36.4806 32.8075 35.5356 33.5185 35.9121 29.8525C36.2286 26.7715 39.1401 27.8905 42.0906 20.4685C43.9866 23.014 48.5811 22.4935 52.8306 22.324C53.4801 23.797 54.4506 25.024 57.2256 27.355C58.8906 28.7545 58.8756 30.5815 58.7946 32.7625C58.7871 32.9485 58.8981 33.1195 59.0676 33.193L59.8971 33.5365C59.8971 33.5365 64.5456 20.6905 58.3611 17.47Z" fill="#c2eafc"/>
<path d="M58.6127 17.2283C57.9977 15.9128 56.6387 15.2183 53.6402 14.7909C53.1677 12.7509 39.9047 12.3369 38.0132 17.1788C31.8722 18.4928 32.7497 27.5559 34.4252 33.6189C34.4732 33.7853 34.6592 33.9053 34.8587 33.8214C36.8132 33.0009 35.8502 33.5663 36.2312 29.8763C36.5087 27.1358 39.5867 27.5858 42.1922 21.0713C44.3972 23.3168 49.1177 22.7963 52.6277 22.6403C53.3537 24.1868 54.4982 25.4693 57.0197 27.5873C57.8492 28.2849 58.3667 29.3108 58.4462 30.4028C58.6097 32.6183 58.2167 33.1703 58.9487 33.4734C59.8337 33.8393 59.8697 33.8888 60.0317 33.8168C60.1127 33.7778 60.1772 33.7133 60.2057 33.6308C60.2192 33.5993 61.3862 30.3413 61.7747 26.7323C62.2922 21.9233 61.1987 18.6413 58.6142 17.2268L58.6127 17.2283ZM59.7092 33.0998L59.1977 32.8883C58.8032 32.7278 59.9852 29.2448 57.4367 27.1058C52.3907 22.8653 53.5202 21.9818 52.8332 21.9968C49.3457 22.0748 44.1992 22.7528 42.3557 20.2733C42.2132 20.0768 41.8922 20.1098 41.7992 20.3468C40.7492 23.0303 39.5192 25.2458 36.9062 27.3488C34.7432 29.0903 35.8127 32.7398 35.4437 32.8883L34.9487 33.0938C33.4382 27.4913 32.5907 18.8348 38.3147 17.7818C38.4302 17.7593 38.5277 17.6783 38.5622 17.5658C39.9827 13.2489 51.7517 13.5954 52.9622 14.8584C50.2637 16.6493 43.6757 16.1693 43.6097 16.1633C43.1912 16.1243 43.1342 16.7723 43.5617 16.8023C46.0232 17.0468 51.0887 16.8668 53.3177 15.3923L53.5877 15.4328C55.1867 15.6773 57.1517 15.9788 57.9317 17.3078C56.1167 19.4393 49.7822 19.5968 47.4962 19.3088C47.0732 19.2563 46.9922 19.8983 47.4167 19.9493C50.2907 20.2958 56.3252 20.0123 58.3442 17.8118C63.5042 20.6933 60.3572 31.1303 59.7107 33.0968L59.7092 33.0998Z" fill="#001550"/>
<path d="M89.7803 65.4414H67.2773V87.9444H89.7803V65.4414Z" fill="#4582ec"/>
<path d="M89.7792 88.3952H67.2762C67.0287 88.3952 66.8262 88.1927 66.8262 87.9452V65.4422C66.8262 65.1947 67.0287 64.9922 67.2762 64.9922H89.7792C90.0267 64.9922 90.2292 65.1947 90.2292 65.4422V68.9522C90.2292 69.5477 89.3292 69.5477 89.3292 68.9522V65.8922H67.7262V87.4952H89.3292V77.9732C89.3292 77.3777 90.2292 77.3777 90.2292 77.9732V87.9452C90.2292 88.1927 90.0267 88.3952 89.7792 88.3952Z" fill="#001550"/>
<path d="M97.8244 65.2188L78.9409 78.7202L75.6649 69.8447L71.1094 71.3823C71.1094 71.3823 76.8544 83.6598 77.6449 85.0473C77.5519 85.1208 97.1869 68.9868 97.8559 68.4528L97.8244 65.2188Z" fill="#001550"/>
<path d="M180.848 19.3247H177.134V13.3052C177.134 12.5102 175.935 12.5102 175.935 13.3052V19.3247H172.223C171.431 19.3247 171.431 20.5247 172.223 20.5247H175.935V26.5427C175.935 27.3377 177.134 27.3377 177.134 26.5427V20.5247H180.848C181.64 20.5247 181.64 19.3247 180.848 19.3247Z" fill="#001550"/>
<path d="M275.557 117.698H273.211V113.298C273.211 112.505 272.011 112.505 272.011 113.298V117.698H269.661C268.866 117.698 268.866 118.898 269.661 118.898H272.011V123.299C272.011 124.092 273.211 124.092 273.211 123.299V118.898H275.557C276.349 118.898 276.349 117.698 275.557 117.698Z" fill="#001550"/>
<path d="M158.868 292.078C158.868 292.078 163.507 239.51 171.7 229.307L193.965 212.453L222.724 214.309L246.844 236.573C251.833 249.11 254.862 270.038 257.668 291.925H210.666L204.634 268.114L201.388 292.234C201.388 292.234 158.173 292.774 158.868 292.079V292.078Z" fill="#4582ec"/>
<path d="M190.051 120.254C190.051 120.254 192.262 117.75 196.493 120.057C200.723 122.366 213.901 116.885 215.92 118.328C217.939 119.771 222.076 130.926 222.076 130.926C222.076 130.926 211.786 180.165 199.859 185.168C187.933 190.17 181.586 144.968 190.051 120.254Z" fill="#4582ec"/>
<path d="M211.24 91.476C211.24 91.476 209.148 91.0395 209.32 86.853C209.494 82.6635 209.844 83.3655 207.838 82.23C205.833 81.096 205.746 79.44 206.356 77.781C206.356 77.781 203.476 77.52 205.659 71.586C205.659 71.586 202.257 72.1095 201.297 68.2725C201.297 68.2725 197.02 71.4135 195.799 65.916C195.799 65.916 193.662 68.781 191.176 66.003C189.694 64.344 187.675 66.003 187.675 66.003C183.13 73.4265 180.487 76.8435 181.258 80.604C181.5 81.777 182.094 82.893 182.049 84.0885C181.923 87.3285 177.846 88.3245 180.637 96.6675C181.554 99.4065 182.859 102.046 183.273 104.904C184.18 111.166 183.805 113.2 194.274 111.556C194.38 114.138 194.631 120.657 194.49 122.187L196.933 135.972C196.933 135.972 197.895 144.61 198.592 145.044C199.29 145.477 201.382 138.849 201.382 135.01L214.99 119.917L213.768 100.288C213.768 100.288 217.519 100.027 219.525 93.747C221.53 87.465 213.417 85.2855 211.237 91.4775L211.24 91.476Z" fill="#ffffff"/>
<path d="M173.348 198.754C168.629 208.456 164.793 221.597 161.075 235.18L187.236 234.977L199.109 204.592C199.109 204.592 192.77 178.231 191.262 166.96C189.755 155.692 189.651 128.624 190.356 124.901C191.06 121.178 193.475 118.964 193.475 118.964C190.154 118.463 185.628 121.883 185.628 121.883C185.628 121.883 171.14 125.506 168.623 126.31C166.109 127.112 137.22 156.295 137.22 156.295L129.282 129.932L112.334 135.734C112.334 135.734 116.465 157.327 120.033 171.407C123.602 185.488 128.105 189.245 135.053 187.931C141.999 186.617 168.287 161.269 168.287 161.269L173.354 198.752L173.348 198.754Z" fill="#c2eafc"/>
<path d="M112.402 135.707L113.932 142.504C117.723 143.815 122.695 142.7 131.301 136.247L129.186 129.676C129.186 129.676 120.364 137.149 112.402 135.707Z" fill="#4582ec"/>
<path d="M287.491 182.366C284.074 175.748 258.253 131.993 249.928 127.938C241.601 123.882 221.578 120.174 221.578 120.174C221.578 120.174 218.527 117.663 216.01 118.425C216.01 118.425 219.136 120.942 218.527 123.915C204.43 192.728 203.255 179.744 196.258 202.917L206.474 236.318L251.317 236.09L244.762 209.112C257.444 207.819 269.129 206.549 273.62 205.415C293.045 200.513 290.906 188.979 287.492 182.366H287.491ZM241.556 187.796L241.261 164.714L258.047 184.799L241.556 187.796Z" fill="#c2eafc"/>
<path d="M215.361 95.7007C216.469 94.4077 217.372 92.4622 216.705 91.2322C216.166 90.2392 214.836 90.4447 214.351 91.8082C214.168 92.3257 213.376 92.0527 213.564 91.5292C213.924 90.5227 214.701 89.8522 215.592 89.7832C217.626 89.6257 219.088 92.6737 215.994 96.2512C215.635 96.6652 215.004 96.1162 215.361 95.7007Z" fill="#001550"/>
<path d="M185.708 95.9132C184.058 95.7197 182.834 94.9682 182.348 93.8522C181.593 92.1167 182.88 90.8672 184.106 89.6987C185.861 88.0262 187.664 86.3057 185.582 79.6112C185.418 79.0877 186.21 78.8297 186.378 79.3607C188.664 86.5382 186.534 88.5467 184.68 90.3032C183.681 91.2497 182.562 92.2547 183.111 93.5177C183.474 94.3532 184.455 94.9247 185.802 95.0807C186.264 95.1332 186.347 95.9132 185.708 95.9132Z" fill="#001550"/>
<path d="M188.406 95.5896C188.37 95.3256 188.268 94.5276 186.958 94.3971C186.406 94.3416 186.496 93.5151 187.042 93.5646C188.313 93.6801 189.091 94.3716 189.235 95.4801C189.306 96.0291 188.481 96.1371 188.406 95.5896Z" fill="#001550"/>
<path d="M190.312 100.946C189.525 100.55 189.037 100.81 188.679 100.997C188.182 101.258 188.043 101.194 187.77 100.991C187.489 100.784 187.024 100.429 186.229 100.679C185.178 101.011 183.988 99.8109 183.856 99.6729C183.475 99.2739 184.074 98.6934 184.461 99.0939C184.765 99.4089 185.538 100.021 185.979 99.8814C187.129 99.5199 187.879 100.03 188.229 100.289C189.019 99.8874 189.708 99.7059 190.689 100.199C191.488 100.601 193.888 100.469 194.781 100.469C195.334 100.469 195.334 101.305 194.781 101.305C193.53 101.305 191.316 101.45 190.312 100.946Z" fill="#001550"/>
<path d="M186.391 103.061C185.864 102.883 186.134 102.098 186.655 102.271C186.931 102.362 189.332 102.947 191.197 102.788C191.753 102.742 191.816 103.574 191.27 103.621C189.77 103.75 187.813 103.46 186.391 103.061Z" fill="#001550"/>
<path d="M181.035 77.7053C182.923 76.6808 184.719 77.4413 184.795 77.4743C185.337 77.7053 184.992 78.5348 184.438 78.3008C184.371 78.2723 182.962 77.7008 181.465 78.4973C180.928 78.7823 180.522 77.9843 181.035 77.7068V77.7053Z" fill="#001550"/>
<path d="M200.688 81.1066C196.752 77.3821 191.321 79.3921 191.265 79.4131C190.7 79.6186 190.4 78.7786 190.947 78.5701C191.189 78.4786 196.916 76.3726 201.302 80.4481C201.74 80.8546 201.117 81.5131 200.688 81.1066Z" fill="#001550"/>
<path d="M194.569 114.209L203.425 109.988L194.35 111.551L194.569 114.209Z" fill="#001550"/>
<path d="M252.678 58.6907C254.05 55.6412 252.475 53.6372 249.303 52.4612C249.315 48.4607 247.266 46.9502 243.462 48.0437C241.845 44.6297 239.265 43.8362 235.428 48.4772C231.994 45.6332 229.206 47.0327 227.112 50.9687C225.753 50.7302 224.575 50.9687 223.608 51.6827C221.445 53.2742 221.152 56.6522 221.139 56.7932C221.119 57.0242 233.037 78.8207 233.166 79.0097C235.072 81.8282 237.303 82.5407 239.755 80.2022C242.544 81.6677 245.131 81.2552 246.529 78.5012C249.499 78.1502 251.22 76.3382 251.637 73.1102C254.538 71.3882 255.213 69.0707 253.611 66.2207C256.089 63.6737 255.34 61.0847 252.679 58.6892L252.678 58.6907Z" fill="#001550"/>
<path d="M197.19 199.786C186.838 167.609 189.831 127.634 189.864 127.232C189.909 126.682 190.741 126.749 190.696 127.3C190.663 127.699 187.557 167.549 197.983 199.522C198.156 200.048 197.358 200.309 197.19 199.786Z" fill="#001550"/>
<path d="M240.345 159.413C240.307 159.255 236.572 143.511 244.656 129.224C244.927 128.744 245.655 129.155 245.382 129.635C237.46 143.624 241.117 159.056 241.155 159.21C241.288 159.75 240.472 159.942 240.345 159.413Z" fill="#001550"/>
<path d="M232.369 81.5552C235.123 77.7317 235.252 73.5377 231.038 71.2847C231.874 66.3632 230.161 63.3467 225.808 62.0852C225.679 57.8702 223.526 56.2427 219.857 56.7617C218.377 52.1792 215.362 51.1187 210.83 52.7462C206.405 49.0127 202.541 49.0232 199.334 53.6237C196.924 50.9297 194.695 51.6707 192.953 54.8717C188.189 54.0137 185.36 55.6022 185.324 60.5192C184.543 61.1042 181.57 63.5252 181.651 66.3542C181.694 67.9007 182.633 69.2702 184.441 70.4342C181.675 74.9132 180.235 77.6657 180.856 80.6882C181.096 81.8687 181.678 82.9607 181.637 84.0737C181.585 85.4462 180.568 86.6867 179.981 88.0442C178.387 91.7162 179.816 95.7902 181.16 99.2987C182.687 103.31 182.738 104.051 183.016 106.05C183.781 111.626 184.249 113.502 193.96 112.035C193.99 112.494 194.18 115.629 194.165 118.799C193.903 118.683 193.568 118.625 193.195 118.722C192.053 119.021 191.144 120.596 190.408 123.534C188.896 129.572 190.649 142.179 192.616 142.179C193.145 142.179 193.355 141.636 193.478 141.122C194.092 138.543 195.719 137.775 196.69 136.929C196.802 137.805 197.836 145.896 198.734 146.072C198.812 146.102 198.992 146.078 199.105 145.976C199.186 145.901 201.014 144.128 201.719 135.758C202.885 136.77 205.396 139.214 206.239 142.118C206.35 142.5 206.635 143.159 207.316 143.159C209.453 143.159 213.364 135.216 214.594 132.816C214.685 132.638 217.018 128.448 217.685 126.827C218.45 124.92 219.283 123.474 218.351 121.272C218.005 120.446 216.692 117.968 215.281 117.428C215.246 117.416 215.21 117.405 215.174 117.402C214.625 113.235 214.333 108.36 214.184 104.924C217.444 105.563 220.952 105.044 221.87 101.846C224.9 101.259 227.947 99.5282 228.203 96.4352C231.638 95.7077 233.585 92.8997 231.647 88.2887C232.258 87.5597 233.933 85.1027 232.37 81.5537L232.369 81.5552ZM192.664 140.915C192.631 141.053 192.599 141.15 192.574 141.221C191.618 139.829 189.677 129.888 191.218 123.732C191.482 122.676 192.262 119.954 193.309 119.555C193.793 119.37 194.069 119.718 194.146 119.897C194.131 120.678 194.107 121.319 194.056 122.03C194.033 122.25 195.841 133.643 196.513 135.368C196.997 136.619 193.637 136.827 192.665 140.916L192.664 140.915ZM215.363 118.727C215.347 118.611 215.327 118.496 215.311 118.38C216.163 118.971 217.136 120.531 217.583 121.589C218.375 123.462 217.61 124.805 216.914 126.498C216.262 128.073 213.886 132.359 213.851 132.423C210.893 138.573 208.183 142.325 207.335 142.325C206.818 142.325 206.972 139.029 202.003 134.903C207.49 129.852 212.756 123.429 214.795 120.864C215.27 120.266 215.479 119.489 215.363 118.73V118.727ZM214.141 120.344C203.965 133.158 200.918 134.181 200.944 134.934C200.501 140.969 199.493 143.669 198.932 144.74C198.232 142.412 197.611 137.601 197.398 135.839C197.495 135.147 196.967 135.471 194.891 122.054C195.16 118.199 194.858 112.701 194.812 111.899C198.32 111.324 201.593 110.535 204.68 109.934C205.219 109.829 205.073 109.01 204.523 109.11C203.462 109.316 202.36 109.551 201.193 109.799C184.712 113.289 184.684 112.047 183.847 105.935C183.493 103.181 183.091 101.999 181.943 99.0017C180.685 95.6897 179.258 91.8107 180.751 88.3772C181.319 87.0557 182.408 85.7267 182.474 84.1082C182.524 82.8122 181.903 81.6437 181.678 80.5202C180.899 76.7327 184.115 72.6092 187.949 66.3677C188.695 66.0227 190.379 65.4617 191.444 66.8222C192.559 68.2547 194.186 67.8977 195.601 66.7742C196.172 69.7487 198.166 70.7987 201.172 68.8322C201.586 70.9052 202.985 72.1907 205.201 72.0977C204.209 74.2862 203.72 77.0222 205.952 77.9102C205.612 79.5077 205.73 82.2272 208.279 83.2472C210.875 84.2852 207.073 88.4087 210.544 92.2157C210.616 92.6357 211.207 92.6942 211.352 92.2832C214.414 83.5247 224.104 89.8337 216.434 98.3072C214.997 99.8927 214.258 100.532 211.814 99.1007C211.339 98.8172 210.911 99.5432 211.39 99.8207C212.086 100.229 212.68 100.487 213.205 100.619C213.583 118.521 215.317 118.859 214.141 120.344Z" fill="#001550"/>
<path d="M257.337 292.131C254.626 270.015 251.736 249.143 246.574 236.867C246.361 236.361 247.129 236.031 247.345 236.546C252.549 248.918 255.382 269.864 258.166 292.028C258.235 292.574 257.403 292.674 257.337 292.131Z" fill="#001550"/>
<path d="M158.445 292.032C161.054 271.248 163.037 247.843 168.381 235.135C168.597 234.621 169.365 234.952 169.152 235.456C163.968 247.788 161.969 270.154 159.273 292.135C159.206 292.684 158.376 292.581 158.445 292.032Z" fill="#001550"/>
<path d="M210.43 291.68C208.498 283.122 206.234 273.243 203.833 264.357C203.788 264.2 203.659 264.081 203.498 264.056C203.44 264.047 197.621 263.072 190.973 263.654C190.423 263.7 190.498 264.54 191.047 264.486C196.792 263.982 201.899 264.66 203.096 264.837C203.353 265.79 203.608 266.754 203.86 267.726C203.252 272.351 201.317 288.683 200.903 292.029C200.869 292.295 201.082 292.496 201.317 292.496C202.036 292.496 201.541 292.461 204.421 269.907C209.942 291.602 209.213 292.187 210.02 292.187C210.301 292.187 210.485 291.932 210.428 291.678L210.43 291.68Z" fill="#001550"/>
<path d="M202.19 259.124C201.164 251.667 200.31 239.478 201.27 229.671C201.324 229.125 202.157 229.197 202.103 229.752C201.149 239.486 201.99 251.598 203.019 259.01C203.096 259.562 202.263 259.662 202.19 259.124Z" fill="#001550"/>
<path d="M195.473 259.161C194.09 252.181 192.614 241.458 192.653 232.263C192.656 231.712 193.492 231.715 193.489 232.269C193.448 241.399 194.894 252.06 196.292 258.993C196.4 259.531 195.58 259.705 195.473 259.161Z" fill="#001550"/>
<path d="M136.367 65.4982C133.271 78.0802 126.64 87.2677 121.55 86.0182C116.461 84.7687 114.844 73.5517 117.94 60.9697C121.036 48.3877 127.667 39.2002 132.757 40.4497C137.846 41.7007 139.463 52.9162 136.367 65.4982ZM125.455 80.7967C131.213 74.6242 135.659 59.7322 134.308 49.4947C133.27 41.6377 130.541 42.3937 126.484 48.8002C124.571 51.8197 122.608 56.1652 121.228 61.7752C118.834 71.5102 118.972 87.7462 125.455 80.7967Z" fill="#c2eafc"/>
<path d="M125.452 80.7969C131.209 74.6244 135.657 59.7309 134.305 49.4949C133.267 41.6379 130.539 42.3939 126.481 48.8004C124.569 51.8199 122.605 56.1654 121.225 61.7754C118.831 71.5089 118.969 87.7479 125.452 80.7969Z" fill="#4582ec"/>
<path d="M126.131 48.5833C130.863 41.1073 133.733 41.9308 134.724 49.4443C136.106 59.9218 131.546 74.8843 125.759 81.0838C117.269 90.1768 116.997 63.0118 126.132 48.5833H126.131ZM126.834 49.0303C125.31 51.4348 123.173 55.6168 121.632 61.8793C119.742 69.5653 119.616 80.5468 122.172 81.9298C125.613 83.7913 135.951 65.1268 133.893 49.5583C133.04 43.1008 131.261 42.0448 126.834 49.0303Z" fill="#001550"/>
<path d="M118.351 97.491C118 97.524 117.708 97.7805 117.631 98.124L111.475 126.144C110.763 129.376 116.928 130.678 117.592 127.44L123.312 99.4785C123.376 99.1635 123.247 98.838 122.983 98.652C121.647 97.707 120 97.3365 118.351 97.491Z" fill="#4582ec"/>
<path d="M136.28 41.4223C135.876 41.1418 134.427 40.4248 132.858 40.0408C130.218 39.3913 127.169 41.2528 124.262 45.2743C121.433 49.1893 119.042 54.7288 117.534 60.8653C115.668 68.4493 114.048 82.8883 121.062 86.3218L118.806 97.0408C118.641 97.0468 118.475 97.0573 118.308 97.0723C117.771 97.1233 117.338 97.5088 117.222 98.0338L111.066 126.057C110.619 128.092 112.781 130.311 115.985 129.58C116.997 129.349 117.788 128.538 117.996 127.519L123.716 99.5578C123.881 98.7448 123.326 98.3338 122.694 97.9723L124.889 87.2338C127.148 87.0178 129.614 85.1773 131.984 81.8968C140.411 70.2343 143.492 46.3963 136.28 41.4223ZM122.897 99.3958L117.179 127.357C117.038 128.055 116.493 128.611 115.8 128.769C114.434 129.081 113.286 128.805 112.395 127.939C111.945 127.506 111.749 126.853 111.884 126.238L118.04 98.2153C118.076 98.0488 118.217 97.9228 118.386 97.9063C119.99 97.7548 121.536 98.1403 122.739 98.9923C122.865 99.0823 122.928 99.2413 122.897 99.3958ZM135.965 65.3998C131.256 84.5308 119.337 93.2713 117.092 77.6803C116.42 73.0003 116.864 67.0978 118.349 61.0633C123.048 41.9278 134.973 33.1753 137.222 48.7858C137.894 53.4628 137.45 59.3653 135.965 65.3998Z" fill="#001550"/>
<path d="M118.061 135.167L117.206 127.451C117.145 126.905 117.977 126.803 118.039 127.358L118.894 135.072C118.955 135.62 118.118 135.714 118.061 135.167Z" fill="#001550"/>
<path d="M116.531 140.415C116.996 140.415 117.372 140.039 117.372 139.574C117.372 139.109 116.996 138.732 116.531 138.732C116.066 138.732 115.689 139.109 115.689 139.574C115.689 140.039 116.066 140.415 116.531 140.415Z" fill="#001550"/>
<path d="M125.241 123.44C123.831 119.319 124.975 114.792 123.93 109.539C123.708 108.426 122.949 107.496 121.902 107.058C120.907 106.641 119.604 107.261 119.109 107.856C117.385 109.926 117.592 110.891 115.602 113.627C114.579 115.032 115.875 115.833 116.578 115.784C116.91 115.76 119.731 119.091 119.731 119.091L118.069 127.289L118.867 134.997C122.07 134.249 124.695 133.02 127.444 130.838C127.444 130.838 126.138 126.06 125.242 123.441L125.241 123.44Z" fill="#ffffff"/>
<path d="M112.462 107.075C113.137 106.763 112.53 105.03 113.751 104.423C115.263 103.67 117.541 104.532 119.038 105.314C119.404 105.504 119.673 105.839 119.784 106.233C119.889 106.607 119.967 107.046 119.829 107.262L118.608 108.362C117.264 110.823 117.792 109.827 116.29 112.76C116.29 112.76 118.245 114.255 118.611 115.203C118.977 116.151 119.128 119.019 117.483 118.041L115.072 116.607L113.143 116.469L112.23 120.555C112.23 120.555 108.877 117.308 110.739 113.676C110.739 113.676 110.038 111.294 111.378 110.349C111.378 110.349 110.89 107.801 112.461 107.076L112.462 107.075Z" fill="#ffffff"/>
<path d="M127.847 130.725C127.834 130.677 126.529 125.906 125.639 123.302C124.267 119.28 125.392 114.747 124.34 109.46C124.004 107.76 122.338 106.019 120.298 106.649C120.196 105.906 119.9 105.299 119.228 104.946C117.568 104.078 115.211 103.23 113.561 104.049C112.252 104.7 112.022 105.998 112.03 106.854C110.927 107.706 110.851 109.196 110.999 110.058C109.778 111.104 109.991 112.74 110.341 113.651C109.066 115.473 109.717 118.142 110.695 119.921C110.92 120.329 111.383 120.869 112.112 121.58C112.514 121.967 113.087 121.368 112.694 120.983C111.875 120.185 111.553 119.748 111.428 119.52C110.711 118.215 109.843 115.581 111.142 113.978C111.992 112.926 114.161 113.016 115.388 113.208C114.914 113.874 114.571 114.567 114.986 115.319C115.333 115.943 116.083 116.241 116.609 116.202C117.047 116.171 117.61 115.83 118.186 115.341C118.675 116.027 119 117.747 117.947 117.81C116.927 117.878 116.291 116.283 115.135 116.216L112.469 116.055C111.896 116.039 111.881 116.859 112.418 116.891L115.084 117.051C115.801 117.095 116.489 118.674 117.904 118.649C118.282 118.641 118.63 118.541 118.955 118.253C119.059 119.868 119.471 121.512 120.37 122.952C120.665 123.425 121.372 122.978 121.081 122.511C118.958 119.103 119.776 114.435 120.836 112.122C120.875 112.041 120.914 111.965 120.943 111.894C121.156 111.398 120.421 111.062 120.184 111.543C119.29 113.333 117.22 115.317 116.551 115.365C116.32 115.382 115.895 115.227 115.718 114.909C115.564 114.633 115.64 114.282 115.94 113.871C116.936 112.502 117.397 111.56 117.805 110.727C118.223 109.875 118.583 109.139 119.431 108.12C119.836 107.634 120.964 107.117 121.742 107.442C122.662 107.828 123.328 108.641 123.523 109.622C123.995 112.004 124.015 114.225 124.031 116.373C124.082 123.062 124.438 121.466 127.043 130.949C127.18 131.483 127.999 131.264 127.85 130.727L127.847 130.725ZM115.9 112.451C115.145 112.302 112.528 111.891 111.007 112.968C110.845 112.338 110.762 111.324 111.593 110.655C112.783 109.692 115.507 110.025 116.956 110.558C116.686 111.102 116.378 111.705 115.9 112.451ZM117.329 109.808C115.738 109.196 113.248 108.948 111.791 109.571C111.749 108.933 111.839 107.825 112.855 107.319C114.236 106.631 116.851 107.558 118.159 108.413C117.809 108.914 117.556 109.364 117.329 109.808ZM119.48 107.016C119.024 107.292 118.84 107.525 118.661 107.744C117.227 106.776 114.547 105.872 112.888 106.406C113.2 103.73 116.384 104.39 118.84 105.681C119.104 105.819 119.3 106.064 119.38 106.347C119.5 106.773 119.489 106.961 119.48 107.016Z" fill="#001550"/>
<path d="M197.143 208.383L187.12 234.651H161.644C162.57 231.021 168.211 209.377 173.584 198.948C174.189 197.83 166.503 162.394 169.09 136.65C169.152 136.104 168.315 136.017 168.261 136.566C167.53 143.835 167.565 151.855 168.169 160.735C165.643 163.158 141.399 186.306 134.973 187.522C129 188.65 124.242 186.327 120.436 171.307C118.203 162.492 115.728 150.619 114.204 143.049C119.794 144.181 126.589 140.757 130.98 136.971L139.539 165.913C139.696 166.446 140.497 166.201 140.343 165.675L137.602 156.405C139.116 154.929 164.868 129.913 167.653 127.8C169.927 126.073 180.724 123.339 184.803 122.349C180.7 125.638 174.135 131.538 174.06 131.607C173.895 131.758 173.866 132.022 174.031 132.201L180.943 139.687C171.876 145.279 172.296 144.892 172.357 145.281C172.389 145.506 175.842 168.205 183.859 192.502C184.033 193.023 184.824 192.762 184.647 192.238C177.124 169.446 173.632 148.068 173.218 145.426C182.484 139.714 181.968 140.113 182.004 139.833C182.046 139.555 182.542 140.19 174.931 131.944C176.5 130.539 183.514 124.287 186.796 121.854C190.357 119.211 193.633 119.491 193.666 119.494C194.217 119.548 194.299 118.719 193.75 118.665C193.606 118.651 190.177 118.344 186.37 121.135C184.938 121.468 170.01 124.963 167.146 127.135C164.404 129.213 140.796 152.13 137.334 155.496L129.708 129.705C129.378 128.592 128.044 128.347 126.889 128.461C126.978 129.138 127.15 130.203 127.326 130.683C124.587 132.738 121.458 134.224 118.47 134.952L118.012 131.077C114.402 133.63 111.697 133.81 111.867 135.709C111.88 135.859 116.448 158.958 119.631 171.517C122.671 183.528 126.427 188.604 132.595 188.604C133.399 188.604 134.245 188.518 135.135 188.35C141.783 187.093 165.073 164.941 168.255 161.892C169.05 172.807 170.677 185.007 172.786 198.693C166.915 210.178 160.773 234.727 160.711 234.973C160.533 235.728 160.09 235.491 187.416 235.491C187.587 235.491 187.744 235.381 187.804 235.221L197.931 208.687C198.129 208.174 197.35 207.871 197.149 208.389L197.143 208.383ZM112.843 136.183C118.324 136.92 124.699 134.065 129.03 130.386L130.716 136.087C125.389 140.797 118.582 143.268 114.022 142.155C113.445 139.273 113.026 137.125 112.843 136.183Z" fill="#001550"/>
<path d="M196.236 62.6303C195.006 62.6303 197.613 58.7513 200.974 59.7473C202.485 60.1943 202.747 60.5828 203.7 59.3288C204.171 58.7093 204.634 58.2143 205.39 58.0133C206.085 57.8303 206.812 58.0478 207.204 58.5563C207.718 59.2238 207.633 60.0278 208.365 59.7323C209.599 59.2343 210.976 58.3073 212.26 59.0093C212.91 59.3633 213.699 60.4613 213.784 60.9698C213.933 61.8488 212.998 62.3723 212.814 61.8383C212.755 61.6718 212.845 61.4873 213.013 61.4303C213.556 61.2458 212.452 59.8508 211.95 59.5748C210.973 59.0393 209.739 59.8718 208.603 60.3263C207.25 60.8693 207.088 59.4593 206.691 58.9478C206.458 58.6493 205.99 58.5203 205.549 58.6328C204.946 58.7873 204.556 59.2613 204.208 59.7128C203.349 60.8303 202.83 61.0778 201.247 60.5138C201.093 60.4583 200.938 60.4013 200.788 60.3563C199.149 59.8703 197.157 60.8333 196.536 62.4263C196.488 62.5508 196.365 62.6288 196.237 62.6288L196.236 62.6303Z" fill="#c2eafc"/>
<path d="M209.075 72.2846C209.356 70.7636 210.707 68.9621 211.904 68.8901C212.582 68.8496 212.975 69.1962 215.29 70.6737C215.639 69.7062 215.561 68.3726 216.502 67.6196C217.285 66.9926 218.629 66.9612 219.851 68.1057C220.18 67.0482 220.925 66.6552 221.536 66.7527C222.077 66.8397 222.401 67.2687 222.761 67.4922C223.205 67.7682 223.829 67.7351 224.24 67.4111C224.378 67.3016 224.582 67.3272 224.69 67.4667C225.106 67.9977 223.537 68.7281 222.424 68.0351C222.109 67.8401 221.74 67.4337 221.437 67.3857C221.153 67.3407 220.868 67.5492 220.711 67.7787C220.508 68.0712 220.423 68.4507 220.334 68.8197C220.271 69.0807 219.944 69.1557 219.775 68.9577C218.65 67.6467 217.508 67.6437 216.907 68.1252C216.104 68.7687 216.305 70.1861 215.723 71.2976C215.635 71.4671 215.417 71.5167 215.267 71.4192C212.602 69.6972 212.375 69.5082 211.949 69.5322C211.363 69.5652 210.031 70.7202 209.716 72.4032C209.636 72.8247 208.997 72.7062 209.075 72.2846Z" fill="#c2eafc"/>
<path d="M215.33 83.6863C213.662 83.6863 212.713 81.9883 213.395 81.7888C213.565 81.7393 213.743 81.8398 213.794 82.0108C214.169 83.2873 216.184 83.5933 217.433 81.7318C217.892 81.0463 218.153 80.2318 218.395 79.3783C218.465 79.1308 218.794 79.0558 218.957 79.2688C219.338 79.7653 220.066 79.9663 220.648 79.7413C221.23 79.5163 221.627 78.8743 221.576 78.2533C221.554 77.9758 221.861 77.8033 222.085 77.9638C222.778 78.4633 223.874 78.0598 224.393 77.3653C224.981 76.5778 225.095 75.5008 225.161 74.5498C225.191 74.1238 225.83 74.1688 225.8 74.5948C225.728 75.6358 225.598 76.8223 224.906 77.7523C224.299 78.5683 223.151 79.0678 222.187 78.7363C221.899 80.2903 220.139 80.9923 218.86 80.0638C218.638 80.7838 218.378 81.4723 217.966 82.0888C217.358 82.9978 216.404 83.6863 215.33 83.6863Z" fill="#c2eafc"/>
<path d="M229.668 58.5169C229.81 56.0764 231.181 53.7289 233.23 52.3954C234.114 51.8194 234.946 51.6859 235.573 52.0264C236.253 52.3954 237.322 54.0844 237.708 54.7549C238.267 53.6044 239.121 52.5904 240.171 51.8584C240.331 51.7459 240.553 51.8059 240.64 51.9709C240.861 52.3894 241.02 52.8454 241.107 53.3119C241.843 53.0194 242.608 52.7914 243.387 52.6339C245.214 52.2619 246.076 53.4694 244.869 55.3189C244.636 55.6744 244.101 55.3234 244.332 54.9679C244.557 54.6229 245.032 53.7784 244.635 53.3794C244.093 52.8394 241.674 53.7529 240.976 54.0604C240.78 54.1474 240.546 54.0139 240.526 53.7934C240.489 53.3884 240.391 52.9864 240.234 52.6099C239.256 53.3809 238.486 54.4309 238.048 55.5964C237.949 55.8604 237.591 55.8769 237.46 55.6324C237.127 55.0084 235.881 52.9174 235.267 52.5874C234.714 52.2904 233.976 52.6744 233.583 52.9309C231.703 54.1609 230.442 56.3119 230.31 58.5529C230.284 58.9789 229.645 58.9354 229.671 58.5139L229.668 58.5169Z" fill="#c2eafc"/>
<path d="M237.944 70.8144C236.575 70.8144 235.447 69.4509 235.684 68.1564C235.76 67.7364 236.394 67.8534 236.317 68.2689C236.145 69.2139 237.055 70.2294 238.015 70.1694C238.883 70.1139 239.572 69.3504 239.866 68.6139C240.209 67.7559 240.22 66.7914 240.223 65.8584C240.223 65.5584 240.608 65.4204 240.799 65.6619C241.894 67.0494 244.158 66.5574 244.542 64.7934C244.611 64.3254 245.26 64.4139 245.177 64.9059C245.159 65.0859 245.446 65.2584 245.65 65.2239C246.423 65.0919 247.015 63.4464 247.123 62.5974C247.177 62.1684 247.814 62.2599 247.762 62.6739C247.523 64.5759 246.172 66.6099 244.913 65.6379C244.1 67.1454 242.227 67.5564 240.863 66.5934C240.841 67.3389 240.764 68.1234 240.47 68.8539C240.031 69.9459 239.059 70.8144 237.944 70.8144Z" fill="#c2eafc"/>
<path d="M222.603 94.0298C223.018 92.9288 224.662 93.5423 225.136 92.9843C225.423 92.6483 225.714 90.9173 224.962 89.3588C224.592 88.5893 224.544 88.1228 225.268 87.6713C227.551 86.2493 227.922 84.2993 227.203 83.0873C227.152 83.0003 227.062 82.9328 227.007 82.9103C226.897 83.0168 226.72 83.0318 226.596 82.9388C226.275 82.7018 226.575 82.2353 227.01 82.2608C227.871 82.3118 228.651 84.1538 227.791 85.9448C227.031 87.5303 225.486 88.2203 225.37 88.4078C225.121 88.8158 226.555 90.0413 225.936 92.6933C225.513 94.5008 223.464 93.5573 223.197 94.2623C223.045 94.6628 222.454 94.4213 222.601 94.0313L222.603 94.0298Z" fill="#c2eafc"/>
<path d="M230.102 75.9808C231.018 75.2878 231.144 73.7368 230.381 72.9073C229.7 72.1663 229.242 71.7013 230.102 70.7863C231.333 69.4753 230.226 67.6243 228.674 67.9063C228.36 67.9633 228.164 67.5718 228.398 67.3528C229.659 66.1738 228.273 63.3883 227.411 63.0133C227.144 62.8963 226.733 62.9653 226.629 63.2218C226.479 63.5953 225.918 63.4063 226.019 63.0193C226.185 62.3728 226.383 61.1578 225.768 60.2638C225.287 59.5633 224.148 59.2543 223.553 59.8333C223.248 60.1303 222.801 59.6668 223.106 59.3743C224.337 58.1893 227.169 59.1343 226.803 62.3503C227.681 62.1343 228.32 62.7748 228.786 63.5488C229.44 64.6318 229.883 66.1498 229.278 67.2613C231.122 67.5313 231.993 69.6838 230.574 71.2288C230.064 71.7838 230.276 71.8273 230.861 72.4798C231.879 73.6168 231.704 75.5623 230.495 76.4953C230.159 76.7548 229.764 76.2373 230.102 75.9808Z" fill="#c2eafc"/>
<path d="M226.353 191.447L219.936 192.53C219.936 192.53 223.957 204.437 224.728 208.147C225.345 207.916 231.843 206.833 231.843 206.833C230.217 200.789 228.474 195.269 226.353 191.447Z" fill="#4582ec"/>
<path d="M227.655 202.605C228.24 202.605 228.713 203.079 228.713 203.663C228.713 204.246 228.239 204.72 227.655 204.72C227.072 204.72 226.598 204.246 226.598 203.663C226.598 203.079 227.072 202.605 227.655 202.605Z" fill="#001550"/>
<path d="M287.862 182.173C284.969 176.566 258.795 131.792 250.109 127.561C242.124 123.67 223.253 120.068 221.748 119.783C217.163 116.636 215.217 117.8 215.684 118.519C215.81 118.711 216.063 118.769 216.257 118.643C216.27 118.634 217.23 118.156 219.719 119.506C224.555 122.131 230.388 128.776 233.489 133.585C222.014 142.69 222.717 142.03 222.732 142.345C222.747 142.66 222.017 142.097 234.356 149.951C233.366 152.404 226.679 168.658 215.321 189.968C215.067 190.462 215.801 190.846 216.054 190.36C228.357 167.278 235.191 150.109 235.259 149.938C235.332 149.752 235.265 149.536 235.095 149.429L223.866 142.283L234.302 134.005C234.465 133.876 234.507 133.642 234.398 133.462C231.756 129.26 227.498 124.264 223.299 120.932C228.398 121.946 243.024 125.035 249.747 128.309C257.762 132.215 283.229 175.003 287.126 182.554C292.113 192.211 289.205 201.044 273.521 205.009C267.449 206.54 246.381 208.526 233.169 209.869C231.164 202.064 229.266 195.791 226.659 190.78L270.707 182.771C271.251 182.672 271.104 181.856 270.558 181.948L258.134 184.207L241.829 164.501C241.578 164.198 241.083 164.381 241.086 164.771L241.215 187.282C225.615 190.118 225.788 189.989 225.645 190.289C225.525 190.537 225.678 190.708 225.884 191.099C219.473 192.182 219.722 192.074 219.576 192.314C219.512 192.418 219.498 192.545 219.537 192.661C219.576 192.779 223.559 204.584 224.318 208.229C224.373 208.489 224.654 208.622 224.874 208.535C225.281 208.384 229.118 207.709 231.629 207.289C231.9 208.306 232.173 209.35 232.448 210.425C232.496 210.611 232.662 210.74 232.853 210.74L244.589 209.546L251.093 235.921H206.928L197.168 205.124C196.799 203.957 196.856 202.688 197.331 201.553C208.464 175.054 218.526 124.786 218.625 124.28C218.733 123.736 217.914 123.577 217.806 124.117C213.389 145.7 205.091 180.916 196.56 201.229C196.007 202.55 195.939 204.022 196.371 205.379L206.225 236.465C206.279 236.639 206.441 236.758 206.624 236.758H251.627C251.906 236.758 252.096 236.497 252.032 236.243L245.427 209.461C258.066 208.166 269.267 206.941 273.722 205.816C289.914 201.725 293.1 192.323 287.864 182.168L287.862 182.173ZM257.19 184.381L242.054 187.133L241.931 165.941L257.19 184.381ZM225.041 207.637C224.192 203.987 221.216 195.035 220.485 192.862L226.28 191.885C228.266 195.899 229.844 200.723 231.408 206.482C230.15 206.695 226.416 207.326 225.039 207.637H225.041Z" fill="#001550"/>
<path d="M217.441 219.659L199.535 162.842C199.474 162.646 199.279 162.524 199.076 162.553C153.08 169.202 154.972 168.779 155.179 169.46L172.223 225.071C172.277 225.248 172.442 225.367 172.622 225.367L217.091 220.198C217.36 220.169 217.519 219.898 217.441 219.659Z" fill="#001550"/>
<path d="M166.289 166.379L168.053 172.667L189.811 169.436L188.042 163.01L166.289 166.379Z" fill="#4582ec"/>
<path d="M168.053 173.085C167.87 173.085 167.702 172.964 167.651 172.779L165.882 166.494C165.816 166.256 165.971 166.011 166.22 165.971L187.977 162.602C188.186 162.573 188.388 162.699 188.444 162.905C190.317 169.829 190.304 169.445 190.16 169.668C190.001 169.916 190.164 169.811 168.113 173.082C168.093 173.082 168.072 173.085 168.053 173.085ZM166.815 166.724L168.356 172.202L189.281 169.097L187.737 163.484L166.815 166.724Z" fill="#001550"/>
<path d="M220.322 194.208C220.322 194.208 215.619 195.33 213.825 194.731C212.031 194.133 205.547 188.539 204.461 188.019C203.583 187.597 201.825 187.87 199.343 188.07C196.862 188.269 192.197 188.758 190.692 189.127C188.987 189.547 189.294 191.598 190.875 191.5C192.071 191.427 200.088 190.989 200.088 190.989C200.088 190.989 199.731 191.301 198.504 191.523C197.552 191.697 190.658 192.195 189.152 192.609C188.099 192.901 187.976 193.948 188.663 194.403C189.224 194.773 190.242 194.775 190.914 194.751C189.347 194.967 189.53 196.69 191.733 197.038C194.144 197.418 200.178 197.049 200.178 197.049C200.178 197.049 200.499 197.193 199.886 197.415C198.629 197.871 194.636 198.604 193.19 198.838C191.895 199.051 191.486 199.722 191.879 200.388C192.467 201.387 193.679 201.291 194.84 201.181C197.595 200.925 203.541 199.815 203.541 199.815C203.541 199.815 209.553 201.904 213.069 202.63C216.582 203.356 222.948 202.63 222.948 202.63L220.322 194.205V194.208Z" fill="#ffffff"/>
<path d="M223.578 202.475L220.902 194.098C220.807 193.799 220.438 193.756 220.225 193.807C218.949 194.113 215.335 194.8 213.957 194.341C212.278 193.775 205.765 188.185 204.64 187.648C203.82 187.255 202.467 187.378 200.599 187.549C198.606 187.724 192.663 188.221 190.591 188.729C188.436 189.257 188.817 191.869 190.69 191.924C189.964 192.02 189.379 192.118 189.039 192.211C187.446 192.647 187.164 194.818 189.585 195.13C189.024 196.312 190.335 197.242 191.665 197.455C193.066 197.677 195.606 197.651 197.554 197.59C193.207 198.526 191.938 198.332 191.424 199.423C191.25 199.789 191.281 200.207 191.514 200.599C192.244 201.839 193.704 201.704 194.874 201.595C197.445 201.356 202.66 200.402 203.505 200.245C204.328 200.528 209.736 202.373 212.982 203.042C215.677 203.6 220.273 203.357 223.002 203.051C223.53 202.991 223.663 202.747 223.576 202.478L223.578 202.475ZM213.159 202.226C208.621 201.292 203.83 199.334 203.47 199.406C203.412 199.418 197.509 200.515 194.806 200.77C193.575 200.885 192.672 200.911 192.244 200.182C191.922 199.639 192.639 199.36 193.263 199.259C194.269 199.096 198.634 198.323 200.034 197.816C201.079 197.455 200.67 196.627 200.158 196.64C200.097 196.642 194.14 197.003 191.803 196.634C190.402 196.417 189.714 195.377 190.951 195.178C192.574 195.119 200.257 194.605 200.257 194.605C200.802 194.567 200.754 193.741 200.196 193.772C200.176 193.772 190.603 194.351 190.519 194.351C189.721 194.351 188.427 194.245 188.68 193.483C188.88 192.856 190.036 192.776 195.784 192.236C196.996 192.122 199.57 191.996 200.362 191.311C200.662 191.045 200.457 190.55 200.067 190.577C190.975 190.951 190.63 191.326 190.182 190.895C189.81 190.546 189.849 189.769 190.792 189.539C192.999 188.996 200.331 188.411 200.677 188.378C202.345 188.227 203.667 188.108 204.28 188.401C205.356 188.915 211.792 194.5 213.693 195.133C215.377 195.697 219.27 194.882 220.215 194.669L222.636 202.25C221.401 202.375 216.165 202.85 213.156 202.229L213.159 202.226Z" fill="#001550"/>
<path d="M194.367 82.3438C197.457 82.3438 199.96 85.0827 199.96 88.4607C199.96 91.8387 197.455 94.5777 194.367 94.5777C191.278 94.5777 188.773 91.8387 188.773 88.4607C188.773 85.0827 191.277 82.3438 194.367 82.3438Z" fill="#4582ec"/>
<path d="M181.322 80.1055C183.894 80.1055 185.979 82.597 185.979 85.6705C185.979 88.744 183.894 91.2355 181.322 91.2355C178.749 91.2355 176.664 88.744 176.664 85.6705C176.664 82.597 178.749 80.1055 181.322 80.1055Z" fill="#4582ec"/>
<path d="M212.435 88.6064C199.473 88.5719 200.409 88.6064 200.409 88.4549C200.409 84.8324 197.696 81.8864 194.366 81.8864C191.54 81.8864 189.159 84.0059 188.502 86.8604C187.877 86.3474 187.127 86.2394 186.381 86.4734C186.791 82.9379 184.467 79.6484 181.32 79.6484C178.505 79.6484 176.213 82.3454 176.213 85.6634C176.213 88.9814 178.505 91.6784 181.32 91.6784C183.57 91.6784 185.484 89.9579 186.164 87.5744C186.924 87.0509 187.743 87.1379 188.336 88.0079C188.099 91.8209 190.889 95.0219 194.366 95.0219C197.388 95.0219 199.901 92.5979 200.34 89.4419L212.432 89.5049C213.029 89.5049 213.026 88.6079 212.435 88.6064ZM181.32 90.7799C179 90.7799 177.113 88.4849 177.113 85.6649C177.113 82.8449 179 80.5499 181.32 80.5499C183.641 80.5499 185.528 82.8449 185.528 85.6649C185.528 88.4849 183.641 90.7799 181.32 90.7799ZM194.366 94.1234C191.531 94.1234 189.222 91.5809 189.222 88.4564C189.222 85.3319 191.531 82.7894 194.366 82.7894C197.201 82.7894 199.509 85.3319 199.509 88.4564C199.509 91.5809 197.201 94.1234 194.366 94.1234Z" fill="#001550"/>
<path d="M196.61 87.6998C194.575 85.4228 191.563 86.9513 191.434 87.0188C190.904 87.2963 190.487 86.4908 191.015 86.2208C191.054 86.2013 194.792 84.2798 197.284 87.1043C197.678 87.5528 197.005 88.1423 196.609 87.6983L196.61 87.6998Z" fill="#001550"/>
<path d="M193.711 86.2324C194.254 86.2324 194.695 86.6839 194.695 87.2419C194.695 87.7999 194.254 88.2514 193.711 88.2514C193.168 88.2514 192.727 87.7999 192.727 87.2419C192.727 86.6839 193.168 86.2324 193.711 86.2324Z" fill="#001550"/>
<path d="M185.412 86.0153C183.94 83.9993 181.741 85.3478 181.647 85.4078C181.15 85.7273 180.663 84.9683 181.164 84.6458C182.19 83.9873 184.551 83.3273 186.136 85.4813C186.493 85.9673 185.755 86.4848 185.412 86.0153Z" fill="#001550"/>
<path d="M183.526 86.4871C184.003 86.4871 184.39 86.0693 184.39 85.5541C184.39 85.0388 184.003 84.6211 183.526 84.6211C183.049 84.6211 182.662 85.0388 182.662 85.5541C182.662 86.0693 183.049 86.4871 183.526 86.4871Z" fill="#001550"/>
</svg>