<svg width="405" height="300" viewBox="0 0 405 300" fill="none" xmlns="http://www.w3.org/2000/svg">
<path d="M33.5423 26.7616C36.4849 30.7263 42.3856 38.7953 43.7795 41.3197C45.6379 44.7115 51.6316 54.6853 43.3458 62.46C44.9227 65.3666 46.7138 68.1517 48.7044 70.7922C48.8903 70.7922 54.7136 59.9511 73.4843 64.5973C73.794 55.723 74.3671 42.0476 74.3361 40.8551C74.3361 39.3064 75.9932 8.9201 52.344 1.74944C28.6947 -5.42123 14.1211 20.6131 14.1211 20.6131C32.2723 10.9954 38.173 17.686 33.5423 26.7616Z" fill="#FB5F66"/>
<path d="M12.8983 39.9555C12.8983 39.9555 26.2639 36.8581 33.5739 27.0391C33.5739 27.0391 41.9062 37.8802 43.7801 41.3184C45.6541 44.7566 51.6322 54.6841 43.3465 62.4587C44.9234 65.3653 46.7145 68.1504 48.7051 70.791C48.7051 70.791 55.5815 59.4232 73.485 64.7663C73.485 64.7663 72.7261 86.7739 75.1576 96.8717C77.5891 106.97 79.8038 115.875 88.9878 119.654C88.9878 119.654 69.4737 131.563 49.9441 124.3C30.4145 117.036 22.5314 106.66 19.7902 100.016C19.7902 100.016 22.2062 82.0813 38.5454 78.9063C38.5454 78.9063 34.9368 68.917 32.7841 66.7642C32.7841 66.7642 23.4916 68.7931 17.7923 59.0205C17.7923 59.0205 11.4115 60.972 10.9933 56.9607C10.4822 52.1596 15.5156 52.6552 16.9405 52.5468C18.3653 52.4384 19.8211 51.7105 18.4892 48.5975C16.8792 45.5605 15.0085 42.6689 12.8983 39.9555Z" fill="white"/>
<path d="M72.5862 68.793V70.2333C64.3772 71.3469 56.5717 74.4755 49.8661 79.3399C49.7405 79.4181 49.596 79.4609 49.448 79.4638C49.2956 79.464 49.1472 79.4154 49.0245 79.3251C48.9018 79.2348 48.8113 79.1075 48.7662 78.962C48.7212 78.8165 48.724 78.6603 48.7742 78.5165C48.8244 78.3726 48.9195 78.2487 49.0453 78.1628C55.9929 73.1341 64.0831 69.9139 72.5862 68.793Z" fill="#FB5F66"/>
<path d="M44.8325 83.104C36.93 89.7291 30.1336 97.5711 24.6989 106.335C24.3892 105.932 24.0794 105.514 23.7852 105.081C29.2689 96.4073 36.0663 88.6381 43.9343 82.0508C44.0767 81.979 44.2392 81.9571 44.3956 81.9887C44.552 82.0202 44.6933 82.1033 44.7969 82.2247C44.9004 82.3461 44.9602 82.4987 44.9667 82.6582C44.9731 82.8176 44.9259 82.9746 44.8325 83.104Z" fill="#FB5F66"/>
<path d="M31.623 115.566L31.9018 115.799C31.7924 115.743 31.6971 115.664 31.623 115.566Z" fill="#FB5F66"/>
<path d="M72.6318 81.803C52.0491 89.5467 35.8647 111.229 33.1699 114.993C32.8137 114.698 32.442 114.404 32.0703 114.079C35.0129 109.975 51.5689 87.998 72.5698 80.3008C72.6008 80.7964 72.6163 81.292 72.6318 81.803Z" fill="#FB5F66"/>
<path d="M74.3985 96.8416C63.5823 103.272 54.5638 112.328 48.1783 123.17L46.8464 122.675C46.8403 122.623 46.8403 122.571 46.8464 122.52C53.433 111.263 62.7966 101.883 74.0423 95.2773C74.1972 95.8504 74.2901 96.346 74.3985 96.8416Z" fill="#FB5F66"/>
<path d="M33.6664 47.3131C34.0908 45.9218 34.3964 44.4971 34.5801 43.0541C34.3633 43.209 32.2725 45.1604 31.4827 44.7113C31.2658 44.6028 30.5689 44.3396 27.1152 37.8039C27.0715 37.7205 27.0446 37.6293 27.0361 37.5355C27.0276 37.4418 27.0377 37.3472 27.0657 37.2574C27.0938 37.1675 27.1393 37.084 27.1996 37.0117C27.2599 36.9394 27.3338 36.8796 27.4172 36.8359C27.5006 36.7922 27.5918 36.7653 27.6856 36.7568C27.7793 36.7483 27.8739 36.7584 27.9637 36.7864C28.0536 36.8145 28.1371 36.86 28.2094 36.9203C28.2817 36.9806 28.3415 37.0545 28.3852 37.1379C29.454 39.275 30.654 41.3439 31.9783 43.3329C32.9694 42.7908 34.3323 41.0407 35.3545 41.397C35.8191 41.5673 36.7948 41.908 35.1067 47.7468C35.0492 47.9378 34.9182 48.0981 34.7425 48.1925C34.5667 48.2869 34.3607 48.3076 34.1697 48.2501C33.9787 48.1926 33.8184 48.0616 33.724 47.8859C33.6296 47.7102 33.6089 47.5041 33.6664 47.3131Z" fill="#501200"/>
<path d="M32.3507 55.3655C30.5696 55.3655 29.3616 53.476 28.6337 52.0976C28.5738 51.983 28.5462 51.8541 28.554 51.725C28.5618 51.5958 28.6046 51.4712 28.6778 51.3646C28.7511 51.2579 28.852 51.1732 28.9697 51.1195C29.0874 51.0659 29.2176 51.0453 29.3461 51.06C31.21 51.2546 33.092 51.1868 34.9371 50.8587C35.0596 50.8303 35.1873 50.8341 35.3079 50.8697C35.4285 50.9054 35.5378 50.9717 35.6251 51.0621C35.7125 51.1526 35.7749 51.2642 35.8063 51.3859C35.8377 51.5077 35.837 51.6355 35.8044 51.7569C35.6959 52.1131 34.968 55.3035 32.3507 55.3655ZM30.5851 52.6242C31.2666 53.6309 31.9325 54.173 32.4436 54.173C32.9547 54.173 33.5897 53.3676 33.9923 52.6242C32.8581 52.7069 31.7193 52.7069 30.5851 52.6242Z" fill="#501200"/>
<path d="M88.5848 118.71C86.0294 118.059 81.2283 115.271 77.6352 103.811C71.208 83.2899 75.0643 59.083 75.0643 44.9585C75.0643 22.9664 69.4734 2.38369 47.6052 0.168995C33.2329 -1.37974 21.0133 7.91269 13.6413 19.9929C11.972 20.8977 10.3769 21.9335 8.87119 23.0903C3.97717 26.9002 -8.47469 42.0624 10.4199 54.9634C10.1235 55.6634 10.0598 56.4401 10.2383 57.179C10.4167 57.918 10.8279 58.58 11.4111 59.0676C7.97671 64.8638 6.53519 71.6254 7.30696 78.3184C8.48401 87.1152 15.3604 96.5161 18.969 99.8304C29.4694 120.181 48.8132 125.617 56.8976 127.042C66.825 128.761 79.4937 125.199 88.7861 121.311C89.0506 121.198 89.2729 121.004 89.4219 120.758C89.5709 120.512 89.639 120.225 89.6168 119.938C89.5946 119.651 89.4832 119.379 89.2981 119.158C89.113 118.938 88.8636 118.781 88.5848 118.71ZM47.4658 1.59383C68.4977 3.74658 73.6395 23.8183 73.6395 44.9585C73.6395 49.93 73.1129 56.636 72.7877 63.7293C69.6902 62.9084 56.433 60.1362 48.7822 69.7693C47.0438 67.5023 45.5243 65.0754 44.2444 62.5212C46.6015 60.2816 48.0235 57.2329 48.2247 53.9877C48.7048 43.4408 40.2177 35.5887 34.921 26.7918C35.7454 25.0171 36.0924 23.0579 35.9277 21.108C35.3082 12.8996 24.6219 14.8201 16.1658 18.7384C20.6416 12.2492 31.2815 -0.0323441 47.4658 1.59383ZM8.28267 34.3652C15.4224 33.2656 22.4536 28.4645 27.4561 23.524C27.9052 23.0594 28.6331 23.7718 28.1685 24.2209C18.6437 33.7457 8.8557 35.3409 8.43754 35.4028C8.36941 35.413 8.29994 35.4096 8.2331 35.393C8.16626 35.3763 8.10336 35.3466 8.04799 35.3056C7.99263 35.2646 7.94587 35.2131 7.91041 35.1541C7.87494 35.095 7.85145 35.0296 7.84128 34.9614C7.83111 34.8933 7.83446 34.8238 7.85114 34.757C7.86782 34.6902 7.8975 34.6273 7.93848 34.5719C7.97947 34.5165 8.03096 34.4698 8.09002 34.4343C8.14907 34.3988 8.21453 34.3753 8.28267 34.3652ZM12.9289 26.1568C13.1767 25.94 19.1238 21.2164 23.9714 20.6124C24.1028 20.5959 24.2354 20.6324 24.34 20.7137C24.4445 20.795 24.5125 20.9146 24.5289 21.046C24.5454 21.1774 24.5089 21.31 24.4276 21.4146C24.3463 21.5191 24.2267 21.5871 24.0953 21.6035C19.5265 22.1766 13.6413 26.8848 13.5639 26.9312C13.0063 27.3339 12.3713 26.5595 12.8824 26.1568H12.9289ZM7.16758 45.3302C5.87612 43.9358 4.82896 42.3336 4.0701 40.5911C4.069 40.4883 4.09893 40.3875 4.15599 40.302C4.21304 40.2165 4.29456 40.1502 4.38991 40.1117C4.48525 40.0732 4.58998 40.0644 4.69041 40.0864C4.79085 40.1083 4.88232 40.1601 4.95288 40.2349C5.64921 41.8552 6.61248 43.3472 7.80256 44.6488C8.32913 45.0515 7.6322 45.7949 7.16758 45.3302ZM16.7233 81.7721C14.075 75.4377 15.1746 66.1143 15.252 65.7116C15.2684 65.5802 15.3364 65.4607 15.441 65.3794C15.5455 65.298 15.6781 65.2616 15.8095 65.278C15.941 65.2944 16.0605 65.3624 16.1418 65.467C16.2232 65.5715 16.2596 65.7041 16.2432 65.8355C16.2432 65.944 15.1281 75.3138 17.6525 81.3229C17.7121 81.4462 17.7203 81.588 17.6753 81.7173C17.6302 81.8465 17.5357 81.9526 17.4125 82.0121C17.2893 82.0717 17.1474 82.0799 17.0182 82.0348C16.8889 81.9898 16.7829 81.8953 16.7233 81.7721ZM18.1481 57.968C17.2963 57.7666 15.3449 59.0056 14.075 58.7268C13.6682 58.7189 13.2697 58.6103 12.9151 58.4108C12.5605 58.2112 12.2609 57.9269 12.0431 57.5833C11.8252 57.2396 11.6959 56.8473 11.6667 56.4415C11.6375 56.0357 11.7093 55.6289 11.8757 55.2577C12.2165 54.4213 13.2386 52.9345 16.3051 53.7089C16.8408 53.8695 17.4099 53.882 17.952 53.7452C18.4942 53.6085 18.9893 53.3275 19.3847 52.9321C19.7801 52.5367 20.0611 52.0416 20.1978 51.4995C20.3346 50.9573 20.322 50.3882 20.1615 49.8526C19.573 47.6688 14.2453 40.3898 14.2453 40.3898C14.2453 40.3898 28.819 36.7038 34.0847 28.2631C39.4588 36.9051 47.187 44.1997 46.7379 53.9412C46.4281 60.4769 40.0628 63.9461 40.0009 63.9925C39.8499 64.0889 39.7407 64.2386 39.6951 64.4118C39.6496 64.585 39.6709 64.769 39.7548 64.9272C39.8388 65.0853 39.9793 65.2061 40.1483 65.2654C40.3173 65.3247 40.5024 65.3181 40.6668 65.247C41.524 64.7624 42.333 64.1971 43.0828 63.5589C44.5193 66.2495 46.188 68.8094 48.0698 71.2097C48.1627 75.2519 48.7048 81.3229 48.9681 83.9868C46.4126 82.6703 42.5872 80.8893 40.0009 79.5884C39.6137 78.5662 35.3546 67.8489 33.8059 66.3466C32.2572 64.8444 28.6331 66.6874 24.0798 63.8841C19.5265 61.0809 19.2168 58.2157 18.1481 57.968ZM23.801 75.6081C22.9476 73.6423 22.4243 71.5492 22.2523 69.4131C22.2592 69.2909 22.3097 69.1751 22.3948 69.087C22.4798 68.9988 22.5936 68.9442 22.7156 68.9329C22.8376 68.9217 22.9595 68.9546 23.0592 69.0257C23.1589 69.0967 23.2298 69.2013 23.259 69.3202C23.4435 71.306 23.9401 73.2504 24.7303 75.0815C24.8001 75.2048 24.8181 75.3507 24.7804 75.4872C24.7426 75.6237 24.6522 75.7396 24.5289 75.8094C24.4057 75.8793 24.2598 75.8973 24.1233 75.8595C23.9868 75.8218 23.8709 75.7313 23.801 75.6081ZM57.1454 125.632C49.4017 124.269 30.8168 119.05 20.5332 99.722C21.2301 95.9431 24.4515 84.0178 37.5693 79.9755C39.9079 81.0906 46.583 84.281 49.5411 85.8608C49.6568 85.9191 49.786 85.9456 49.9154 85.9373C50.0447 85.9291 50.1695 85.8864 50.2769 85.8138C50.3842 85.7412 50.4702 85.6412 50.526 85.5242C50.5818 85.4072 50.6054 85.2775 50.5942 85.1483C50.5942 85.1483 49.696 76.398 49.5876 71.2097C56.9286 61.2203 70.6039 64.5966 72.8186 65.216C72.2921 77.606 72.4005 91.5446 76.3807 104.26C78.3631 110.563 82.0027 118.4 88.1976 120.072C82.3899 122.442 68.2963 127.584 57.1454 125.632Z" fill="#501200"/>
<path d="M22.9257 44.8259C23.5209 44.5866 23.7575 43.7813 23.4543 43.0275C23.1511 42.2736 22.4228 41.8565 21.8277 42.0959C21.2325 42.3352 20.9958 43.1404 21.299 43.8943C21.6022 44.6482 22.3305 45.0653 22.9257 44.8259Z" fill="#501200"/>
<path d="M34.123 37.6599C34.7181 37.4205 34.9548 36.6153 34.6516 35.8614C34.3484 35.1076 33.6201 34.6905 33.0249 34.9298C32.4297 35.1692 32.1931 35.9744 32.4963 36.7283C32.7995 37.4822 33.5278 37.8993 34.123 37.6599Z" fill="#501200"/>
<path d="M24.7536 52.5945C25.4798 52.339 25.9052 51.6675 25.7036 51.0947C25.5021 50.5218 24.7501 50.2644 24.0239 50.5199C23.2977 50.7753 22.8723 51.4468 23.0739 52.0197C23.2754 52.5926 24.0274 52.8499 24.7536 52.5945Z" fill="#FCCAC2"/>
<path d="M40.6422 43.4227C41.3923 43.2494 41.8895 42.6293 41.7528 42.0376C41.6161 41.4458 40.8972 41.1067 40.1471 41.28C39.3971 41.4533 38.8999 42.0734 39.0366 42.6651C39.1733 43.2568 39.8922 43.596 40.6422 43.4227Z" fill="#FCCAC2"/>
<path d="M14.5541 56.5275C15.0759 56.5275 15.4988 56.2363 15.4988 55.877C15.4988 55.5178 15.0759 55.2266 14.5541 55.2266C14.0323 55.2266 13.6094 55.5178 13.6094 55.877C13.6094 56.2363 14.0323 56.5275 14.5541 56.5275Z" fill="#501200"/>
<path d="M306.464 81.2868C306.464 81.2868 322.183 59.6974 348.14 60.4098C354.955 60.6112 367.36 58.4739 381.02 73.5431C399.187 93.6768 394.757 118.875 388.516 128.926C388.516 128.926 378.201 100.445 357.727 97.8583L356.968 100.135C356.968 100.135 349.596 105.54 344.95 96.8672C344.95 96.8672 328.285 95.0242 314.533 117.001C314.533 117.001 309.406 88.6588 307.548 86.3357C307.548 86.3357 306.603 86.1963 305.891 86.1499C306.198 84.5446 306.389 82.9195 306.464 81.2868Z" fill="#FB5F66"/>
<path d="M310.521 138.249C310.521 138.249 318.265 146.643 325.839 149.214C325.839 149.214 328.131 133.432 328.177 132.178C328.177 132.162 316.407 138.682 310.521 138.249Z" fill="#FB5F66"/>
<path d="M354.955 51.6895C354.955 51.6895 346.731 61.3226 343.556 70.4292C340.381 79.5358 339.173 83.8568 348.512 89.138C347.669 91.9422 346.472 94.6276 344.95 97.1295C344.95 97.1295 348.59 105.663 356.999 100.227C357.54 97.3946 358.349 94.6202 359.415 91.9412C362.814 90.1733 365.773 87.6645 368.073 84.6002C368.073 84.6002 373.431 86.6755 375.182 84.3833C376.359 82.8346 374.547 80.1863 372.812 78.5291C372.187 77.9521 371.753 77.1982 371.567 76.3681C371.382 75.5379 371.454 74.671 371.774 73.8829C372.363 72.3341 373.153 70.9403 373.757 69.4225C374.002 68.8008 374.006 68.1098 373.769 67.4852C373.531 66.8605 373.068 66.3473 372.471 66.0463C369.049 64.3272 362.544 60.8735 360.004 58.3026C357.991 56.3704 356.289 54.1399 354.955 51.6895Z" fill="white"/>
<path d="M300.161 86.8466C300.161 86.8466 303.94 86.5679 305.892 86.1497C305.892 86.1497 307.441 80.1561 305.752 78.7312C304.064 77.3064 301.54 77.8485 299.898 77.9414C296.894 78.1117 294.292 72.211 293.192 70.1977C292.092 68.1843 289.336 65.5515 289.088 69.6092C289.079 72.917 290.274 76.1152 292.449 78.6073C293.92 80.0012 299.418 82.154 300.161 86.8466Z" fill="white"/>
<path d="M357.449 61.7253C357.35 61.7253 357.252 61.7047 357.161 61.6647C357.071 61.6247 356.989 61.5662 356.922 61.493C356.131 60.6942 355.116 60.1542 354.011 59.9443C353.83 59.9109 353.669 59.8088 353.562 59.6594C353.454 59.5101 353.409 59.325 353.435 59.1429C353.461 58.9608 353.556 58.7959 353.701 58.6826C353.846 58.5692 354.029 58.5163 354.212 58.5349C355.647 58.8022 356.963 59.5115 357.976 60.5637C358.054 60.6681 358.102 60.7915 358.116 60.921C358.13 61.0505 358.109 61.1815 358.056 61.3001C358.002 61.4188 357.917 61.5208 357.81 61.5956C357.704 61.6704 357.579 61.7152 357.449 61.7253Z" fill="#501200"/>
<path d="M366.633 69.3916C366.106 68.3114 365.249 67.4272 364.186 66.8672C364.011 66.7932 363.873 66.653 363.802 66.4773C363.731 66.3015 363.733 66.1048 363.807 65.9302C363.881 65.7556 364.021 65.6176 364.197 65.5464C364.372 65.4752 364.569 65.4768 364.744 65.5507C366.128 66.2378 367.245 67.3655 367.919 68.7566C368.368 69.562 367.098 70.2279 366.633 69.3916Z" fill="#501200"/>
<path d="M349.999 73.8048C349.895 73.6826 349.823 73.537 349.788 73.3805C349.753 73.224 349.756 73.0614 349.798 72.9066C350.634 70.0414 356.333 65.1629 356.984 64.5898C357.128 64.4666 357.314 64.4056 357.503 64.4201C357.692 64.4346 357.867 64.5235 357.99 64.6673C358.114 64.811 358.175 64.9979 358.16 65.1867C358.146 65.3755 358.057 65.5507 357.913 65.674C356.364 66.9904 352.369 70.6764 351.346 72.8601C352.107 72.8956 352.87 72.8541 353.623 72.7362C353.715 72.7162 353.81 72.7159 353.902 72.7354C353.995 72.7549 354.082 72.7937 354.158 72.8493C354.234 72.9049 354.297 72.976 354.344 73.0579C354.39 73.1399 354.419 73.2307 354.428 73.3245C354.437 73.4183 354.425 73.5129 354.395 73.6021C354.364 73.6913 354.315 73.7729 354.251 73.8418C354.187 73.9106 354.109 73.965 354.022 74.0013C353.935 74.0377 353.841 74.0552 353.747 74.0526C352.942 74.1301 350.355 74.254 349.999 73.8048Z" fill="#501200"/>
<path d="M347.475 75.6795C346.892 75.3719 346.256 75.1775 345.601 75.1065C345.412 75.1065 345.231 75.0314 345.097 74.8978C344.964 74.7642 344.889 74.583 344.889 74.3941C344.889 74.2051 344.964 74.0239 345.097 73.8903C345.231 73.7567 345.412 73.6816 345.601 73.6816C346.456 73.7542 347.288 73.9964 348.048 74.3941C348.19 74.4865 348.295 74.6267 348.343 74.7894C348.391 74.9521 348.38 75.1266 348.311 75.2816C348.242 75.4366 348.12 75.5618 347.966 75.6348C347.813 75.7077 347.639 75.7236 347.475 75.6795Z" fill="#501200"/>
<path d="M353.623 80.8688C352.838 79.5818 351.78 78.4823 350.525 77.6474C350.365 77.5468 350.251 77.3866 350.209 77.2022C350.167 77.0177 350.2 76.8241 350.301 76.6639C350.401 76.5038 350.561 76.3901 350.746 76.348C350.93 76.3059 351.124 76.3387 351.284 76.4394C352.712 77.4079 353.912 78.6764 354.8 80.1563C354.843 80.3069 354.836 80.4675 354.779 80.6135C354.722 80.7594 354.618 80.8825 354.484 80.9636C354.35 81.0447 354.193 81.0794 354.037 81.0623C353.882 81.0451 353.736 80.9771 353.623 80.8688Z" fill="#501200"/>
<path d="M346.963 79.5358C346.655 79.2234 346.424 78.8443 346.287 78.4279C346.15 78.0116 346.111 77.5692 346.173 77.1353C346.198 76.9464 346.296 76.7749 346.447 76.6588C346.598 76.5426 346.789 76.4912 346.978 76.5158C347.167 76.5404 347.339 76.6391 347.455 76.7902C347.571 76.9412 347.623 77.1322 347.598 77.3211C347.598 77.5844 347.598 78.2039 347.877 78.4362C348.155 78.6686 348.558 78.6066 349.178 78.4362C349.356 78.3746 349.552 78.3865 349.722 78.4693C349.892 78.5521 350.022 78.699 350.084 78.8776C350.145 79.0563 350.133 79.2521 350.051 79.4221C349.968 79.592 349.821 79.722 349.642 79.7836C349.204 79.939 348.738 79.9972 348.275 79.9544C347.813 79.9117 347.365 79.7688 346.963 79.5358Z" fill="#501200"/>
<path d="M363.981 71.8408C364.311 71.061 364.081 70.218 363.466 69.9578C362.852 69.6977 362.086 70.1189 361.756 70.8987C361.426 71.6784 361.656 72.5214 362.271 72.7816C362.885 73.0417 363.651 72.6205 363.981 71.8408Z" fill="#501200"/>
<path d="M353.34 64.5336C353.733 63.7833 353.572 62.9243 352.981 62.6149C352.39 62.3055 351.592 62.6629 351.199 63.4131C350.807 64.1633 350.967 65.0223 351.559 65.3317C352.15 65.6411 352.947 65.2838 353.34 64.5336Z" fill="#501200"/>
<path d="M371.061 82.4486C371.643 82.4486 372.114 82.088 372.114 81.6432C372.114 81.1985 371.643 80.8379 371.061 80.8379C370.479 80.8379 370.008 81.1985 370.008 81.6432C370.008 82.088 370.479 82.4486 371.061 82.4486Z" fill="#501200"/>
<path d="M361.593 78.6893C361.812 78.0141 361.252 77.2268 360.341 76.9308C359.43 76.6347 358.513 76.9421 358.294 77.6173C358.074 78.2925 358.635 79.0798 359.546 79.3759C360.457 79.6719 361.374 79.3645 361.593 78.6893Z" fill="#FCCAC2"/>
<path d="M348.205 71.0695C348.465 70.4551 348.012 69.6759 347.193 69.329C346.374 68.9822 345.499 69.199 345.239 69.8134C344.978 70.4277 345.432 71.207 346.251 71.5538C347.07 71.9007 347.945 71.6839 348.205 71.0695Z" fill="#FCCAC2"/>
<path d="M381.268 72.7836C382.533 68.7596 382.598 64.4538 381.453 60.3937C380.122 56.4599 373.276 51.5968 367.128 48.5923C364.572 47.3533 361.862 43.7137 360.685 43.3885C359.508 43.0633 358.362 45.9904 358.362 45.9904C357.866 46.0678 356.813 44.4417 355.822 44.4417C354.831 44.4417 353.592 46.7338 353.963 50.0481C351.561 53.0193 349.509 56.2568 347.846 59.6967C339.974 59.8158 332.227 61.6841 325.166 65.1663C318.105 68.6485 311.907 73.6574 307.021 79.8303C306.82 78.8391 306.03 76.8568 302.003 77.2285C301.353 77.37 300.68 77.3799 300.026 77.2575C299.372 77.1352 298.749 76.8831 298.193 76.516C294.941 73.9451 293.655 65.9536 289.799 66.8209C286.423 67.5798 289.381 76.8103 292.68 79.5051C295.467 81.7663 298.875 83.2066 299.463 86.7997C298.323 87.0925 297.236 87.5629 296.242 88.1935C295.872 88.4526 295.579 88.8065 295.394 89.2181C295.208 89.6297 295.138 90.0836 295.189 90.5321C293.082 128.151 300.315 136.53 307.795 138.682C308.529 138.882 309.282 139.002 310.041 139.039C314.989 143.935 320.816 147.855 327.217 150.592C326.148 154.046 321.997 157.236 321.889 157.887C321.889 158.274 322.168 158.429 322.446 158.46C333.148 159.823 342.363 154.139 342.89 154.154C355.28 154.526 372.006 149.353 380.927 140.433C400.1 121.275 397.901 89.8507 381.268 72.7836ZM305.379 85.5607C305.178 85.5607 302.886 85.9634 300.919 86.4744C300.129 82.3703 296.133 80.5273 293.593 78.452C291.053 76.3767 288.591 69.0201 289.815 68.3077C292.122 66.9448 295.39 76.2992 297.326 77.6931C300.176 79.7684 303.258 77.9564 305.07 79.0869C306.045 79.6755 305.828 83.0982 305.364 85.5607H305.379ZM324.615 147.882C320.051 145.522 315.826 142.558 312.054 139.07C319.024 138.481 327.17 133.541 327.17 133.541L324.615 147.882ZM315.059 114.29C315.059 114.29 310.32 87.2333 308.57 85.9943C308.029 85.7189 307.426 85.5907 306.82 85.6226C306.928 84.9876 307.191 82.3083 307.191 82.076C311.856 75.74 317.912 70.5579 324.892 66.9279C331.873 63.298 339.593 61.317 347.459 61.1371C345.244 65.0244 340.35 74.1465 340.35 78.8701C340.35 84.7708 344.686 87.9148 348.094 89.448C347.166 91.613 346.095 93.7136 344.888 95.7359C324.661 97.0368 315.043 114.29 315.043 114.29H315.059ZM345.863 96.82C347.185 94.6316 348.355 92.3548 349.364 90.0056C350.17 90.314 350.998 90.5625 351.842 90.749C352.018 90.7653 352.194 90.7152 352.336 90.6085C352.478 90.5018 352.574 90.3461 352.607 90.1718C352.64 89.9976 352.607 89.8173 352.514 89.6663C352.421 89.5152 352.275 89.4043 352.105 89.3551C350.262 88.9201 348.496 88.2045 346.87 87.2333C345.343 86.4332 344.063 85.2316 343.167 83.7579C342.272 82.2843 341.796 80.5943 341.79 78.8701C341.79 73.9451 347.985 63.1194 349.425 60.6105C350.986 58.0309 352.858 55.6537 355.001 53.5327C358.346 59.3095 370.736 65.1948 372.192 66.9448C373.648 68.6949 370.039 74.0845 369.745 75.4784C369.725 76.1222 369.867 76.7607 370.16 77.3347C370.452 77.9087 370.885 78.3995 371.418 78.7617C371.418 78.7617 376.064 81.4565 374.747 83.6557C373.292 86.2421 368.212 83.8261 368.057 83.7641C368.024 83.7378 367.983 83.7234 367.941 83.7234C367.898 83.7234 367.857 83.7378 367.825 83.7641C364.727 87.6979 362.094 88.9989 359.152 91.0432C357.975 93.7671 357.068 96.5992 356.441 99.4993C355.094 100.583 348.217 101.76 345.848 96.82H345.863ZM378.619 107.878C373.52 101.879 366.314 98.0653 358.486 97.2227C358.997 95.3797 359.461 93.7535 359.74 92.8552C361.63 92.9637 366.895 92.6074 371.944 86.2112C375.042 86.3505 377.225 84.1978 375.878 81.3171C377.902 79.3048 379.521 76.9232 380.648 74.3013C393.719 88.0696 396.492 110.139 388.717 126.835C386.762 119.86 383.317 113.392 378.619 107.878Z" fill="#501200"/>
<path d="M325.978 134.502C328.564 124.079 330.283 119.216 330.299 119.169C330.365 119.027 330.483 118.914 330.628 118.852C330.773 118.791 330.936 118.786 331.084 118.839C331.233 118.891 331.357 118.996 331.432 119.135C331.507 119.273 331.528 119.434 331.491 119.587C331.491 119.587 329.772 124.45 327.201 134.796C327.146 134.939 327.04 135.057 326.904 135.128C326.768 135.2 326.61 135.219 326.461 135.183C326.312 135.147 326.181 135.058 326.092 134.933C326.003 134.808 325.962 134.655 325.978 134.502Z" fill="white"/>
<path d="M374.375 146.226C374.239 146.228 374.107 146.185 373.997 146.103C373.888 146.022 373.809 145.907 373.771 145.777C372.703 142.137 369.125 123.893 368.955 123.119C368.939 123.038 368.94 122.955 368.956 122.875C368.972 122.795 369.005 122.719 369.051 122.651C369.097 122.583 369.156 122.526 369.225 122.481C369.293 122.436 369.37 122.405 369.45 122.391C369.615 122.359 369.785 122.393 369.924 122.486C370.063 122.578 370.16 122.722 370.194 122.886C370.194 123.072 373.926 141.827 374.979 145.42C375.006 145.514 375.01 145.613 374.992 145.708C374.974 145.804 374.934 145.894 374.876 145.972C374.817 146.05 374.742 146.113 374.655 146.157C374.568 146.201 374.473 146.225 374.375 146.226Z" fill="white"/>
<path d="M315.679 120.407C314.781 115.931 314.425 112.957 314.425 112.911C314.404 112.746 314.45 112.581 314.551 112.45C314.653 112.319 314.803 112.234 314.967 112.214C315.131 112.193 315.297 112.239 315.428 112.34C315.558 112.442 315.643 112.592 315.664 112.756C315.664 112.756 316.035 115.729 316.903 120.159C316.919 120.239 316.919 120.322 316.904 120.402C316.888 120.483 316.856 120.559 316.811 120.628C316.72 120.766 316.577 120.862 316.415 120.894C316.253 120.927 316.084 120.894 315.946 120.803C315.808 120.711 315.712 120.569 315.679 120.407Z" fill="white"/>
<path d="M276.757 130.924C264.987 125.968 200.611 129.891 169.894 132.472L168.346 261.792L278.306 260.244C272.731 247.234 274.951 168.61 276.757 130.924Z" fill="white" stroke="#501200"/>
<path d="M182.618 156.994C182.659 156.445 182.502 150.735 182.367 148.099C181.641 149.193 180.603 150.845 180.199 151.633C180.135 151.76 180.023 151.856 179.889 151.9C179.754 151.944 179.607 151.933 179.481 151.869C179.354 151.805 179.258 151.693 179.214 151.558C179.17 151.424 179.181 151.277 179.245 151.15C179.27 151.102 182.01 146.174 182.728 146.121C182.806 146.114 182.884 146.124 182.957 146.151C183.03 146.178 183.097 146.221 183.151 146.276C183.589 146.718 183.685 156.986 183.676 157.085C183.65 157.214 183.578 157.328 183.473 157.407C183.367 157.485 183.237 157.522 183.107 157.511C182.976 157.5 182.854 157.441 182.764 157.345C182.674 157.25 182.622 157.125 182.618 156.994Z" fill="#FB5F66"/>
<path d="M179.188 184.021C179.188 183.211 183.176 178.695 183.691 177.854C184.263 176.925 184.195 175.483 182.891 175.257C182.447 175.213 182.005 175.345 181.658 175.623C181.31 175.902 181.086 176.305 181.032 176.747C181.029 176.888 180.97 177.023 180.869 177.121C180.767 177.219 180.63 177.273 180.488 177.271C179.378 177.247 180.157 174.74 182.006 174.254C182.534 174.126 183.088 174.169 183.59 174.374C184.092 174.58 184.517 174.939 184.803 175.399C185.09 175.86 185.224 176.4 185.187 176.941C185.15 177.482 184.943 177.998 184.596 178.415C184.037 179.326 180.921 183.187 180.591 183.631C182.149 183.767 183.715 183.779 185.276 183.667C185.416 183.662 185.552 183.713 185.655 183.808C185.758 183.902 185.82 184.034 185.827 184.174C185.834 184.314 185.786 184.451 185.693 184.555C185.6 184.66 185.47 184.724 185.33 184.734C184.314 184.785 179.18 185.147 179.188 184.021Z" fill="#FB5F66"/>
<path d="M194.928 184.284C194.791 184.275 194.663 184.214 194.57 184.114C194.477 184.013 194.426 183.881 194.428 183.744C194.429 183.608 194.483 183.477 194.579 183.378C194.674 183.28 194.803 183.222 194.94 183.217C195.267 183.217 227.629 183.593 235.562 183.489C235.698 183.494 235.828 183.552 235.924 183.65C236.02 183.748 236.075 183.879 236.076 184.016C236.078 184.153 236.028 184.285 235.935 184.385C235.842 184.486 235.714 184.547 235.577 184.556C228.896 184.654 199.134 184.35 194.928 184.284Z" fill="#501200"/>
<path d="M244.402 161.643C244.271 161.636 244.144 161.6 244.027 161.538C243.913 161.476 243.812 161.389 243.733 161.284C243.114 160.234 243.611 145.377 243.93 144.698C243.972 144.613 244.032 144.538 244.106 144.481C244.181 144.423 244.269 144.383 244.362 144.365C248.983 143.644 260.069 144.251 260.692 144.749C261.121 145.09 261.051 161.115 260.537 161.612C259.6 162.53 245.327 161.826 244.402 161.643ZM244.645 160.613C246.68 161.078 258.051 161.387 259.753 160.822C259.97 159.089 260.075 147.624 259.899 145.606C254.904 145.042 249.868 144.964 244.859 145.373C244.521 150.446 244.45 155.533 244.642 160.613H244.645Z" fill="#501200"/>
<path d="M251.412 157.615C251.412 157.615 250.591 157.798 248.69 153.195C248.625 153.069 248.613 152.922 248.656 152.787C248.7 152.652 248.796 152.539 248.921 152.475C249.047 152.41 249.194 152.397 249.328 152.441C249.465 152.484 249.576 152.579 249.641 152.705C250.313 154.009 251.072 155.428 251.511 156.181C252.514 154.647 255.098 150.243 255.692 149.105C255.757 148.978 255.869 148.883 256.005 148.84C256.14 148.797 256.287 148.809 256.412 148.874C256.538 148.939 256.634 149.051 256.677 149.186C256.721 149.321 256.708 149.468 256.643 149.594C256.594 149.674 252.4 157.615 251.412 157.615Z" fill="#FB5F66"/>
<path d="M243.055 192.388C242.925 192.381 242.798 192.345 242.684 192.283C242.569 192.221 242.468 192.135 242.391 192.03C241.789 191.007 242.182 176.754 242.489 176.109C242.529 176.024 242.589 175.949 242.664 175.891C242.739 175.834 242.826 175.794 242.919 175.776C247.542 175.055 258.626 175.666 259.251 176.16C259.457 176.326 259.735 176.551 259.645 186.085C259.588 192.057 259.45 192.164 259.199 192.357C257.781 193.441 244.922 192.757 243.055 192.388ZM243.3 191.358C245.321 191.823 256.709 192.142 258.413 191.57C258.625 189.867 258.66 178.987 258.462 177.012C253.466 176.45 248.426 176.373 243.415 176.78C243.102 181.633 243.065 186.5 243.3 191.358Z" fill="#501200"/>
<path d="M195.264 153.5C195.123 153.499 194.988 153.441 194.888 153.339C194.789 153.238 194.735 153.102 194.736 152.96C194.738 152.818 194.796 152.683 194.897 152.584C194.999 152.485 195.135 152.43 195.277 152.432C195.604 152.432 227.966 152.81 235.899 152.706C236.035 152.711 236.165 152.768 236.261 152.866C236.357 152.964 236.411 153.095 236.413 153.232C236.414 153.369 236.365 153.501 236.272 153.602C236.179 153.703 236.051 153.764 235.914 153.773C234.886 153.785 195.548 153.5 195.264 153.5Z" fill="#501200"/>
<path d="M251.525 184.39L254.366 181.491C254.465 181.389 254.521 181.253 254.519 181.111C254.518 180.969 254.459 180.834 254.358 180.735C254.257 180.636 254.12 180.581 253.979 180.582C253.836 180.584 253.701 180.641 253.602 180.743C252.473 181.892 251.549 182.835 250.779 183.623C250.005 182.835 249.085 181.892 247.954 180.743C247.855 180.641 247.72 180.584 247.578 180.582C247.437 180.581 247.299 180.636 247.198 180.735C247.098 180.834 247.039 180.969 247.037 181.111C247.036 181.253 247.091 181.389 247.19 181.491L250.032 184.39C248.965 185.363 247.976 186.419 247.076 187.549C247.029 187.679 247.036 187.823 247.093 187.948C247.15 188.074 247.254 188.173 247.383 188.224C247.511 188.274 247.655 188.274 247.782 188.221C247.911 188.169 248.013 188.069 248.069 187.943C248.175 187.822 249.357 186.608 250.779 185.155C252.199 186.609 253.381 187.823 253.488 187.943C253.543 188.069 253.646 188.169 253.774 188.221C253.901 188.274 254.045 188.274 254.174 188.224C254.302 188.173 254.406 188.074 254.463 187.948C254.521 187.823 254.527 187.679 254.48 187.549C253.582 186.419 252.594 185.362 251.525 184.39Z" fill="#FB5F66"/>
<path d="M188.002 156.333C187.994 156.504 187.92 156.665 187.796 156.783C187.673 156.901 187.508 156.967 187.337 156.967C187.166 156.967 187.001 156.901 186.878 156.783C186.754 156.665 186.68 156.504 186.672 156.333C186.68 156.162 186.754 156.001 186.878 155.883C187.001 155.765 187.166 155.699 187.337 155.699C187.508 155.699 187.673 155.765 187.796 155.883C187.92 156.001 187.994 156.162 188.002 156.333Z" fill="#FB5F66"/>
<path d="M188.665 183.899C188.665 184.075 188.595 184.244 188.47 184.369C188.346 184.493 188.177 184.563 188 184.563C187.824 184.563 187.655 184.493 187.53 184.369C187.406 184.244 187.336 184.075 187.336 183.899C187.336 183.723 187.406 183.554 187.53 183.429C187.655 183.304 187.824 183.234 188 183.234C188.177 183.234 188.346 183.304 188.47 183.429C188.595 183.554 188.665 183.723 188.665 183.899Z" fill="#FB5F66"/>
<path d="M354.444 253.156C332.666 271.264 307.463 297.45 303.8 299.456C303.8 299.456 253.528 275.125 238.303 216.753C267.05 201.704 294.702 178.304 300.062 176.91C306.187 187.847 313.067 198.345 320.649 208.326C320.852 208.583 332.128 205.937 332.128 205.937C332.128 205.937 336.155 197.027 348.576 196.44C359.286 195.933 361.754 200.713 361.754 200.713C361.754 200.713 373.886 198.284 375.375 198.93C376.649 199.48 377.288 205.971 376.822 206.674C375.904 208.068 366.301 209.562 366.301 209.562C370.257 217.671 372.148 226.631 371.806 235.646C371.806 235.646 364.074 239.197 353.05 249.379C352.691 249.712 354.444 253.156 354.444 253.156Z" fill="white"/>
<path d="M321.182 208.296L330.878 206.223C330.878 206.223 324.683 208.527 329.807 215.966C327.62 216.66 325.338 217.005 323.045 216.989L325.29 214.059L322.125 212.326L324.434 210.079L321.182 208.296Z" fill="#FB5F66"/>
<path d="M330.879 206.221L371.281 199.088C371.281 199.088 372.709 207.296 372.803 208.273L339.851 214.414C339.851 214.414 334.977 206.564 330.879 206.221Z" fill="#FB5F66"/>
<path d="M315.889 211.121C316.618 211.744 317.101 212.606 317.25 213.554C317.397 214.502 317.2 215.472 316.696 216.288C316.696 216.288 310.68 215.532 310.719 214.962C310.758 214.392 315.889 211.121 315.889 211.121Z" fill="#FB5F66"/>
<path d="M268.8 220.276C287.212 209.634 287.221 207.057 288.068 208.143C288.112 208.198 288.144 208.26 288.163 208.329C288.181 208.397 288.188 208.466 288.18 208.538C288.171 208.607 288.149 208.674 288.115 208.736C288.081 208.796 288.034 208.85 287.978 208.894C282.086 213.466 275.853 217.581 269.335 221.205C269.211 221.276 269.065 221.295 268.927 221.257C268.791 221.22 268.673 221.13 268.604 221.008C268.533 220.884 268.512 220.737 268.55 220.601C268.587 220.463 268.677 220.347 268.8 220.276Z" fill="#501200"/>
<path d="M255.65 228.926C255.53 228.926 255.415 228.887 255.321 228.813C255.227 228.74 255.16 228.638 255.131 228.522C255.102 228.407 255.113 228.285 255.161 228.177C255.21 228.068 255.293 227.978 255.399 227.923C255.439 227.899 259.469 225.754 264.885 222.626C264.945 222.59 265.013 222.569 265.083 222.559C265.153 222.55 265.224 222.555 265.292 222.573C265.36 222.592 265.424 222.623 265.479 222.666C265.535 222.71 265.582 222.762 265.617 222.823C265.651 222.885 265.675 222.951 265.684 223.021C265.693 223.091 265.687 223.162 265.67 223.23C265.651 223.298 265.619 223.362 265.577 223.417C265.534 223.473 265.479 223.52 265.419 223.555C265.054 223.761 256.063 228.926 255.65 228.926Z" fill="#501200"/>
<path d="M266.309 247.307C266.193 247.307 266.078 247.269 265.985 247.197C265.892 247.128 265.826 247.029 265.795 246.915C265.764 246.802 265.77 246.683 265.813 246.575C265.857 246.466 265.934 246.375 266.035 246.315C266.253 246.188 287.819 233.291 300.192 223.17C300.302 223.088 300.44 223.053 300.576 223.068C300.713 223.085 300.838 223.153 300.925 223.26C301.012 223.367 301.055 223.502 301.044 223.639C301.033 223.776 300.971 223.904 300.869 223.996C289.847 232.48 278.304 240.265 266.309 247.307Z" fill="#501200"/>
<path d="M306.404 247.006C308.417 245.397 310.409 243.814 312.261 242.019C312.31 241.97 312.371 241.933 312.436 241.906C312.501 241.88 312.571 241.868 312.64 241.869C312.71 241.869 312.78 241.885 312.843 241.913C312.908 241.941 312.966 241.981 313.015 242.03C313.065 242.08 313.102 242.14 313.128 242.205C313.154 242.27 313.167 242.34 313.165 242.41C313.165 242.479 313.15 242.549 313.122 242.613C313.094 242.678 313.054 242.735 313.004 242.785C311.123 244.589 309.101 246.212 307.071 247.841C306.961 247.929 306.819 247.971 306.678 247.954C306.537 247.939 306.408 247.868 306.32 247.758C306.232 247.648 306.19 247.505 306.207 247.364C306.222 247.223 306.294 247.095 306.404 247.006Z" fill="#501200"/>
<path d="M280.442 266.509C280.325 266.509 280.21 266.469 280.117 266.396C280.024 266.325 279.958 266.222 279.928 266.108C279.897 265.995 279.907 265.874 279.953 265.764C279.999 265.656 280.082 265.566 280.184 265.508C288.14 260.915 295.745 255.739 302.936 250.021C303.046 249.933 303.189 249.891 303.33 249.908C303.471 249.924 303.599 249.995 303.687 250.105C303.776 250.215 303.818 250.357 303.8 250.498C303.785 250.639 303.714 250.768 303.604 250.856C293.893 258.641 281.048 266.509 280.442 266.509Z" fill="#501200"/>
<path d="M297.066 280.159C297.23 280.034 313.661 267.46 324.652 255.28C324.748 255.181 324.88 255.122 325.018 255.118C325.157 255.112 325.292 255.161 325.396 255.254C325.498 255.347 325.561 255.477 325.571 255.615C325.58 255.753 325.535 255.891 325.445 255.996C314.387 268.251 297.878 280.883 297.714 281.01C297.6 281.095 297.458 281.133 297.319 281.113C297.178 281.095 297.051 281.02 296.964 280.907C296.879 280.796 296.842 280.653 296.86 280.512C296.879 280.373 296.953 280.244 297.066 280.159Z" fill="#501200"/>
<path d="M297.865 201.587C297.802 201.556 297.746 201.514 297.698 201.462C297.651 201.409 297.616 201.348 297.593 201.282C297.569 201.216 297.56 201.145 297.563 201.075C297.568 201.005 297.585 200.936 297.616 200.873C297.647 200.81 297.689 200.753 297.741 200.707C297.794 200.66 297.854 200.624 297.921 200.601C297.987 200.578 298.057 200.568 298.128 200.572C298.198 200.576 298.266 200.593 298.33 200.624C299.116 201.003 300.043 201.415 300.605 201.627C300.51 200.413 300.052 197.52 299.79 196.362C299.759 196.223 299.784 196.078 299.86 195.958C299.936 195.838 300.057 195.753 300.194 195.722C300.332 195.691 300.478 195.716 300.599 195.792C300.718 195.868 300.803 195.988 300.834 196.126C300.848 196.188 302.216 202.264 301.392 202.744C300.918 203.018 299.965 202.599 297.865 201.587Z" fill="#FB5F66"/>
<path d="M301.616 191.711C301.517 191.615 301.395 191.543 301.262 191.503C301.13 191.464 300.989 191.456 300.853 191.482C300.746 191.528 291.268 196.733 291.268 198.199C293.125 201.758 295.383 205.09 297.998 208.135C298.373 208.349 298.813 208.135 299.237 207.921C300.229 207.434 308.304 202.533 308.364 201.648C308.425 200.884 302.861 192.731 301.616 191.711ZM298.441 207.113C296.208 204.291 294.184 201.312 292.381 198.199C295.101 196.097 297.984 194.219 301.006 192.581C303.321 195.371 305.394 198.353 307.201 201.496C304.419 203.576 301.492 205.451 298.441 207.11V207.113Z" fill="#501200"/>
<path d="M324.952 224.819C324.869 224.721 324.767 224.642 324.652 224.586C324.536 224.532 324.41 224.501 324.282 224.498C321.047 226.49 318.065 228.867 315.4 231.574C314.968 232.096 314.915 232.248 315.313 232.883C317.336 235.857 319.66 238.612 322.251 241.105C322.343 241.167 322.45 241.127 322.541 241.181C323.026 241.477 331.988 234.604 331.988 233.702C331.974 232.909 325.671 225.475 324.952 224.819ZM322.619 240.068C320.285 237.633 318.13 235.031 316.176 232.284C318.697 229.86 321.403 227.633 324.266 225.624C326.596 228.176 328.782 230.857 330.814 233.653C328.237 235.982 325.499 238.125 322.619 240.068Z" fill="#501200"/>
<path d="M336.508 238.785C336.294 238.602 336.111 238.419 335.806 238.448C335.12 238.518 326.449 244.891 326.785 246.234C328.784 249.144 331.07 251.845 333.61 254.298C334.129 254.726 334.304 254.712 334.9 254.385C337.069 253.202 343.53 248.074 343.514 247.287C343.499 246.5 337.169 239.381 336.508 238.785ZM334.295 253.498C331.978 251.179 329.841 248.689 327.9 246.048C330.372 243.705 333.009 241.543 335.791 239.577C338.112 242.011 340.295 244.574 342.323 247.255C339.799 249.525 337.117 251.611 334.295 253.499V253.498Z" fill="#501200"/>
<path d="M404.647 261.317C403.823 256.494 380.194 235.307 378.241 233.795C376.897 232.742 375.95 233.033 373.677 233.98C373.249 234.163 372.791 234.361 372.334 234.574C371.998 222.185 369.93 215.901 366.975 209.939C369.876 209.404 373.249 208.687 373.249 208.687C378.707 207.424 377.922 206.615 376.76 200.567C376.226 197.818 374.347 198.139 372.348 198.506C371.951 198.566 366.384 199.398 362.294 200.086C359.17 195.34 340.991 191.626 331.426 205.588C331.068 205.588 321.487 207.586 320.863 207.862C313.499 198.043 306.822 187.725 300.884 176.983C298.89 173.241 277.793 194.778 238.41 215.999C238.284 216.09 238.184 216.213 238.119 216.355C238.055 216.496 238.029 216.652 238.043 216.807C237.998 221.454 251.842 270.549 303.372 299.965C305.884 301.22 335.759 268.438 353.896 254.341C358.542 264.583 373.647 288.136 375.967 287.983C390.649 286.959 405.654 267.222 404.647 261.317ZM340.08 213.846C339.699 213.281 339.287 212.702 338.875 212.121L371.967 206.092C372.089 206.809 372.181 207.42 372.257 207.817C368.654 208.659 340.235 213.69 340.08 213.845V213.846ZM342.522 217.159C342.11 216.669 340.905 215.037 340.737 214.792C341.897 214.563 345.59 213.907 350.063 213.089C350.851 213.894 351.443 214.871 351.788 215.943C348.46 216.211 343.012 217.08 342.522 217.157V217.159ZM352.063 216.99C352.063 216.99 352.882 219.607 350.858 220.501C348.654 221.474 346.08 220.811 343.408 218.105C345.134 217.843 349.422 217.188 352.063 216.99ZM372.546 199.559C374.745 199.163 375.387 199.116 375.721 200.765C376.156 202.398 376.423 204.069 376.516 205.756C376.531 206.748 375.371 207.1 373.294 207.588C373.036 206 372.303 201.498 371.921 199.666C372.134 199.618 372.348 199.59 372.546 199.559ZM371.417 202.811C371.54 203.544 371.677 204.307 371.8 205.04L338.172 211.161C337.563 210.32 336.9 209.519 336.188 208.765L371.417 202.811ZM361.02 200.296C352.549 201.715 340.746 203.83 333.053 205.265C339.544 195.591 355.566 195.043 361.02 200.296ZM370.846 199.816C370.953 200.288 371.075 200.976 371.228 201.754L335.22 207.829C334.546 207.202 333.756 206.71 332.897 206.38C340.813 204.885 368.334 200.168 370.852 199.818L370.846 199.816ZM328.917 207.142C328.243 207.64 327.744 208.34 327.496 209.141C327.496 209.141 324.72 209.615 324.689 209.63L322.475 208.439C323.733 208.167 326.007 207.708 328.923 207.143L328.917 207.142ZM329.923 225.107C329.109 224.419 328.599 223.437 328.505 222.375C330.142 222.812 331.865 222.801 333.496 222.346C334.36 223.405 335.112 224.549 335.739 225.764C334.785 226.104 333.766 226.224 332.758 226.111C331.751 225.996 330.783 225.654 329.93 225.109L329.923 225.107ZM336.244 226.725C336.625 227.458 336.976 228.206 337.297 228.954C335.773 229.423 334.128 229.287 332.702 228.573C332.07 228.183 331.574 227.607 331.283 226.924C332.931 227.25 334.633 227.184 336.25 226.727L336.244 226.725ZM327.467 220.62C326.344 219.702 326.933 217.949 327.085 217.17C327.421 217.109 329.298 216.758 329.589 216.705C330.535 218.277 331.68 219.865 332.809 221.406C331.917 221.681 330.975 221.754 330.052 221.619C329.129 221.483 328.248 221.142 327.473 220.622L327.467 220.62ZM324.032 216.515L325.581 214.453C325.627 214.484 328.192 214.057 328.192 214.057C328.433 214.625 328.703 215.18 329 215.72C327.408 216.287 325.726 216.556 324.038 216.516L324.032 216.515ZM323.039 212.271L324.826 210.637L327.314 210.256C327.294 211.204 327.455 212.147 327.788 213.035L325.528 213.476L323.039 212.271ZM321.071 208.898L323.651 210.272L321.727 212.011C321.662 212.07 321.614 212.144 321.585 212.226C321.557 212.308 321.549 212.397 321.562 212.483C321.576 212.57 321.611 212.651 321.664 212.72C321.717 212.79 321.786 212.846 321.865 212.881C321.865 212.881 324.384 214.179 324.428 214.224L322.658 216.56C320.668 216.496 317.755 215.996 317.468 215.996C317.701 215.528 317.842 215.02 317.88 214.5C317.953 213.293 317.589 212.102 316.858 211.14C318.207 210.363 320.908 208.969 321.077 208.899L321.071 208.898ZM318.537 217.476C315.847 219.649 313.039 221.672 310.127 223.535C307.965 220.815 305.997 217.95 304.234 214.957C306.804 212.778 309.528 210.789 312.385 209.005C313.121 209.726 313.785 210.519 314.369 211.37C314.355 211.385 310.075 214.057 310.157 214.912C310.161 215.008 310.186 215.101 310.231 215.186C310.276 215.269 310.34 215.342 310.417 215.4C313.03 216.155 315.684 216.752 318.37 217.185C318.452 217.309 318.497 217.4 318.543 217.478L318.537 217.476ZM315.912 211.69C316.392 212.252 316.691 212.948 316.77 213.682C316.849 214.418 316.705 215.159 316.355 215.811C314.681 215.564 313.025 215.207 311.399 214.743C311.935 214.226 315.903 211.707 315.918 211.692L315.912 211.69ZM352.82 251.648C352.975 252.137 353.185 252.701 353.439 253.328C332.4 270.674 305.044 299.4 303.771 298.951C253.476 270.178 238.946 220.602 239.098 216.832C255.911 207.557 272.078 197.154 287.485 185.693C293.697 181.22 299.054 177.359 299.94 177.497C305.875 188.221 312.539 198.524 319.886 208.334C318.619 208.954 316.909 209.883 315.277 210.837C314.602 209.869 313.846 208.96 313.017 208.12C312.866 207.992 312.68 207.907 312.483 207.876C311.853 207.696 303.127 213.86 303.127 214.822C302.817 215.286 309.125 224.675 310.027 224.697C310.851 224.718 318.607 218.883 319.307 218.21C319.59 217.938 319.771 217.702 319.616 217.34C321.744 217.687 323.913 217.692 326.042 217.356C324.851 220.792 327.187 221.759 327.416 221.881C327.388 222.804 327.614 223.716 328.07 224.52C328.523 225.324 329.191 225.987 329.996 226.437C331.625 231.444 336.849 230.176 337.749 229.948C339.005 233.222 340.585 236.362 342.467 239.32C345.538 243.057 349.891 245.518 354.677 246.219C351.74 248.903 352.148 249.472 352.826 251.652L352.82 251.648ZM355.674 245.329C347.79 244.037 344.621 240.257 343.295 238.658C340.215 234.949 338.839 227.858 334.946 222.525C332.775 219.827 330.873 216.922 329.268 213.852C329.113 213.515 327.188 209.621 329.832 207.777C333.504 205.217 337.814 212.514 340.363 216.126C344.011 221.237 348.107 223.041 351.398 221.407C355.036 219.598 352.504 214.051 351.291 212.844L365.87 210.143C368.812 215.979 370.997 222.426 371.272 235.069C365.712 237.906 360.483 241.349 355.68 245.334L355.674 245.329Z" fill="#501200"/>
<path d="M51.1689 209.136C50.3945 210.522 52.0547 218.119 66.9412 226.863C83.2309 236.422 93.5795 233.515 94.6637 232.054C100.677 223.888 108.878 191.143 107.958 187.486C107.219 184.553 83.0481 171.711 79.8701 171.449C76.3018 171.156 52.9406 205.972 51.1689 209.136Z" fill="#FB5F66"/>
<path d="M84.8462 173.242C84.8462 173.242 97.8122 179.866 104.582 184.383C107.765 183.003 110.706 181.121 113.292 178.807C113.292 178.807 131.985 187.37 132.284 187.207C136.906 184.675 149.909 176.91 166.511 135.597C174.038 117.017 179.185 97.5586 181.831 77.6868C181.831 77.6868 156.104 74.6497 142.834 72.7122C131.796 70.8754 120.86 68.4727 110.069 65.5137L94.1541 106.391C89.7433 117.708 73.0727 142.012 66.2148 151.97C66.2148 151.97 71.7903 158.207 84.6154 164.031L84.8462 173.242Z" fill="white"/>
<path d="M92.3164 138.519L92.5069 128.928L130.807 130.543C127.647 133.337 124.734 136.399 122.102 139.695L92.3164 138.519Z" fill="#FB5F66"/>
<path d="M136.63 130.857L142.582 131.3L139.794 133.495L141.605 135.663L139.323 137.291L142.266 139.792L135.715 140.299C135.715 140.299 139.258 134.245 136.63 130.857Z" fill="#FB5F66"/>
<path d="M147.134 132.656C146.758 133.55 146.583 134.516 146.623 135.486C146.662 136.455 146.914 137.405 147.362 138.266C147.362 138.266 153.06 136.181 153.092 135.656C153.125 135.131 147.134 132.656 147.134 132.656Z" fill="#FB5F66"/>
<path d="M150.744 89.5026C150.589 89.5026 116.325 81.0078 113.59 80.4533C113.454 80.422 113.336 80.3389 113.261 80.2219C113.185 80.1048 113.159 79.963 113.186 79.8265C113.214 79.6902 113.294 79.5699 113.409 79.4915C113.524 79.413 113.665 79.3825 113.802 79.4064C115.781 79.8075 137.877 85.2435 150.872 88.4479C150.994 88.4843 151.099 88.5627 151.169 88.6692C151.239 88.7756 151.268 88.9032 151.253 89.0294C151.238 89.1557 151.178 89.2724 151.085 89.359C150.992 89.4456 150.871 89.4965 150.744 89.5026Z" fill="#501200"/>
<path d="M172.351 87.1092C172.291 87.0612 159.876 84.0675 158.888 84.6312C158.823 84.669 158.767 84.7198 158.722 84.7802C158.678 84.8407 158.646 84.9097 158.629 84.9828C155.841 97.8234 155.287 97.6731 155.841 98.1254C155.996 98.2555 168.733 101.416 169.47 100.704C170.101 100.097 172.568 88.4179 172.568 87.6388C172.575 87.5399 172.559 87.4406 172.521 87.3488C172.484 87.2569 172.425 87.175 172.351 87.1092ZM168.733 99.8088C167.101 99.702 158.796 97.9163 156.797 97.351C157.042 96.3443 157.712 93.5659 159.575 85.6286C161.468 85.7835 170.091 87.4871 171.501 87.8727C171.343 89.5965 169.283 98.1594 168.733 99.8088Z" fill="#501200"/>
<path d="M166.673 107.105C166.596 107.029 154.128 103.563 153.21 104.082C153.143 104.118 153.086 104.169 153.041 104.229C152.996 104.29 152.965 104.359 152.95 104.434C151.805 109.288 150.066 116.669 149.973 116.979C149.916 117.085 149.897 117.208 149.919 117.327C149.942 117.446 150.004 117.555 150.095 117.634C150.25 117.789 162.742 121.386 163.757 120.779C164.531 120.245 166.871 107.911 166.887 107.788C166.903 107.666 166.893 107.541 166.856 107.423C166.819 107.305 166.757 107.197 166.673 107.105ZM163.1 119.82C159.044 119.055 155.029 118.081 151.073 116.904C151.333 115.913 152.002 113.119 153.896 105.09C155.804 105.32 164.398 107.395 165.821 107.853C165.124 111.888 164.216 115.882 163.1 119.82Z" fill="#501200"/>
<path d="M162.907 96.3248C162.075 96.3248 161.358 93.9722 161.073 91.866C161.064 91.729 161.108 91.594 161.196 91.4884C161.283 91.3828 161.408 91.3148 161.544 91.2982C161.68 91.2818 161.817 91.3182 161.927 91.3998C162.038 91.4816 162.112 91.6024 162.136 91.7374C162.306 92.857 162.591 93.9561 162.986 95.0176C163.822 94.1519 165.91 91.6306 167.759 89.2981C167.847 89.1871 167.976 89.1155 168.117 89.0993C168.258 89.0829 168.399 89.1233 168.511 89.2114C168.622 89.2995 168.693 89.4281 168.709 89.569C168.726 89.71 168.685 89.8515 168.597 89.9626C163.706 96.1265 163.214 96.3248 162.907 96.3248Z" fill="#FB5F66"/>
<path d="M157.062 115.883C156.047 115.652 155.369 111.477 155.358 111.435C155.344 111.296 155.385 111.156 155.473 111.046C155.56 110.938 155.687 110.867 155.826 110.851C155.965 110.834 156.105 110.873 156.216 110.958C156.327 111.043 156.4 111.169 156.419 111.308C156.598 112.479 156.909 113.625 157.348 114.725C159.09 112.934 160.656 110.983 162.027 108.895C162.109 108.779 162.234 108.7 162.374 108.675C162.515 108.652 162.659 108.685 162.775 108.767C162.891 108.849 162.97 108.974 162.994 109.114C163.018 109.255 162.986 109.399 162.904 109.515C162.134 110.621 158.355 116.176 157.062 115.883Z" fill="#FB5F66"/>
<path d="M147.217 158.018C143.729 155.784 140.118 153.745 136.402 151.913C135.332 151.449 135.233 151.504 134.807 152.355L128.64 162.765C128.581 162.866 128.552 162.982 128.557 163.098C128.563 163.214 128.602 163.327 128.671 163.422C129.046 163.899 139.265 170.001 140.302 170.001C141.34 170.001 147.214 159.186 147.34 158.613C147.376 158.407 147.332 158.193 147.217 158.018ZM140.18 168.886C138.806 168.367 131.481 164.085 129.786 162.933C130.777 161.269 134.335 155.225 135.8 152.753C137.463 153.423 144.806 157.667 146.225 158.598C144.398 162.135 142.381 165.569 140.18 168.886Z" fill="#501200"/>
<path d="M182.134 77.5691C181.369 75.7339 142.332 74.7969 110.532 65.0832C109.463 64.7626 108.761 66.3346 104.152 79.1566C100.717 88.7123 96.0168 101.793 91.7268 109.699C83.7136 124.412 69.854 146.456 66.1447 150.866C65.9559 151.119 65.8565 151.427 65.8622 151.741C65.8678 152.057 65.9781 152.361 66.1757 152.607C67.6253 155.094 75.1352 159.719 84.0791 164.588C84.1256 167.932 84.217 170.802 84.2789 172.405C80.8175 170.806 79.1572 170.236 76.6622 172.937C67.6459 183.986 59.1991 195.487 51.3543 207.397C45.6456 215.96 75.6308 237.967 93.0401 233.787C100.29 231.978 108.559 189.865 108.624 189.431C108.986 186.975 107.824 185.883 105.8 184.41C108.587 183.145 111.154 181.442 113.401 179.365C114.678 179.97 131.021 187.743 132.466 187.743C135.031 187.271 151.454 176.098 167.406 134.504C179.387 103.289 182.731 79.0497 182.134 77.5691ZM105.586 185.577C107.541 187.011 107.769 187.881 107.57 189.294C106.9 193.887 98.611 231.3 92.78 232.75C75.7717 236.956 47.4158 215.142 52.2386 207.97C65.5578 188.183 76.6762 174.526 77.4552 173.673C77.8939 172.968 78.5819 172.454 79.3823 172.234C80.1825 172.013 81.0366 172.101 81.7746 172.482C87.8859 174.508 105.342 185.394 105.586 185.577ZM104.732 183.745C100.579 181.135 90.7496 175.624 85.3615 172.953C85.2345 167.532 84.7993 155.465 85.5164 147.936C85.7937 144.687 86.7729 141.535 88.3862 138.701C89.1706 139.037 90.0213 139.189 90.8735 139.144C92.4609 139.113 103.108 139.465 111.602 139.739C108.335 145.387 110.363 146.807 110.9 147.128C113.465 148.622 118.706 144.784 121.325 141.602C128.593 132.774 130.462 131.521 131.141 131.1C131.728 130.737 134.278 128.98 136.238 131.436C139.324 135.308 133.998 141.532 130.774 145.265C129.048 147.261 123.36 152.821 121.966 157.5C120.214 163.441 120.107 176.887 104.732 183.745ZM87.728 131.634C87.9417 129.909 89.6825 129.604 91.9096 129.588C91.9096 129.743 91.8492 137.079 91.8492 138.091C91.4821 138.075 90.8719 138.075 90.8719 138.075C88.3072 138.091 87.8952 137.022 87.7884 135.878C87.6669 134.467 87.6468 133.048 87.728 131.634ZM129.429 130.993C128.774 131.513 128.146 132.068 127.551 132.656L92.9627 131.451C92.9782 130.779 92.9782 130.153 92.9782 129.593C94.561 129.588 118.508 130.324 129.429 130.993ZM95.9239 128.515C99.359 126.179 107.906 121.036 112.012 121.296C114.225 121.433 119.37 123.066 131.291 129.797C131.153 129.859 130.894 130.011 130.894 130.011C118.912 129.252 104.594 128.52 95.9239 128.52V128.515ZM126.544 133.691C125.78 134.484 125.048 135.339 124.346 136.178L92.9333 134.835C92.9488 134.087 92.9488 133.287 92.9627 132.512L126.544 133.691ZM123.491 137.216C123.049 137.766 122.087 138.972 122.042 139.032C119.099 138.926 99.6192 138.258 92.9255 138.103C92.9255 137.676 92.9255 136.881 92.941 135.906L123.491 137.216ZM111.678 141.871C112.034 141.15 112.437 140.451 112.883 139.78C116.516 139.903 119.613 140.025 121.201 140.07C120.958 140.38 119.522 141.994 118.988 142.481C116.57 142.096 114.126 141.893 111.678 141.876V141.871ZM118.012 143.367C115.379 145.58 112.647 146.775 111.448 146.191C110.487 145.726 110.984 143.826 111.264 142.955C113.517 142.966 115.768 143.106 118.006 143.372L118.012 143.367ZM153.576 135.949C153.628 135.847 153.652 135.732 153.647 135.617C153.642 135.501 153.607 135.39 153.546 135.292C152.927 134.316 148.508 132.607 145.288 131.598C145.716 130.623 146.188 129.539 146.723 128.301C148.508 128.744 156.48 131.828 157.873 132.5C156.456 136.314 154.804 140.039 152.927 143.651C151.782 143.315 147.173 141.315 144.228 139.988C147.074 139.159 153.057 137.084 153.576 135.954V135.949ZM147.546 133.491C149.236 134.055 150.867 134.78 152.416 135.659C150.918 136.479 149.35 137.163 147.731 137.705C147.376 137.066 147.174 136.353 147.143 135.622C147.111 134.891 147.249 134.163 147.546 133.496V133.491ZM146.54 133.126C146.194 133.911 146.027 134.763 146.051 135.619C146.075 136.475 146.289 137.318 146.678 138.081C144.999 138.661 142.51 139.32 142.388 139.333L139.976 137.425C139.976 137.425 142.256 136.372 142.299 135.822C142.299 135.336 140.452 133.686 140.452 133.686C141.226 133.166 142.834 131.961 142.834 131.961C143.12 132.046 145.975 132.932 146.54 133.13V133.126ZM138.939 136.804L137.732 136.757C138.024 135.902 138.181 135.006 138.197 134.103L139.388 134.132L140.913 135.659L138.939 136.804ZM139.403 133.064L138.107 133.019C137.981 132.504 137.808 132.004 137.588 131.523C138.869 131.614 140.122 131.69 141.342 131.767C140.724 132.246 140.074 132.681 139.395 133.068L139.403 133.064ZM138.793 137.872L140.839 139.475C139.327 139.582 137.45 139.658 136.428 139.689C136.786 139.088 137.097 138.461 137.357 137.812L138.793 137.872ZM128.571 149.366C129.216 148.591 131.15 146.443 131.181 146.404C132.834 146.66 134.514 146.682 136.173 146.466C135.208 149.835 131.982 150.207 128.559 149.37L128.571 149.366ZM130.815 150.786C130.467 153.027 128.582 154.741 124.755 154.193C125.691 152.822 126.705 151.507 127.792 150.255C128.771 150.553 129.782 150.733 130.803 150.79L130.815 150.786ZM132.067 145.443C133.399 143.968 134.64 142.413 135.784 140.787C136.165 140.758 137.952 140.696 139.691 140.604C139.855 141.255 139.845 141.936 139.663 142.582C139.481 143.228 139.133 143.813 138.654 144.283C137.329 145.728 133.987 145.632 132.054 145.447L132.067 145.443ZM166.426 134.117C149.039 179.405 132.432 186.656 132.403 186.672C131.608 186.549 124.054 183.237 114.208 178.566C122.753 169.859 121.291 159.493 124.174 155.166C128.022 155.903 131.35 154.579 131.898 150.801C133.21 150.815 134.484 150.357 135.487 149.511C136.49 148.664 137.156 147.487 137.364 146.191C138.541 145.856 139.548 145.086 140.18 144.039C140.813 142.991 141.024 141.741 140.771 140.544C140.926 140.544 142.6 140.389 142.755 140.36C145.852 141.856 152.081 144.741 153.241 144.741C154.222 144.741 158.809 133.288 158.972 132.591C159.02 132.474 159.035 132.345 159.017 132.218C158.998 132.093 158.945 131.973 158.865 131.874C158.789 131.797 147.203 126.807 146.21 127.219C145.926 127.344 146.055 127.16 144.286 131.278C141.803 130.734 139.273 130.438 136.732 130.394C136.2 129.853 135.532 129.464 134.799 129.271C134.065 129.077 133.293 129.085 132.564 129.294C122.398 123.509 115.514 120.457 112.096 120.228C109.839 120.314 107.628 120.881 105.608 121.891C104.433 121.617 99.2723 119.501 97.3813 118.656C97.3168 118.626 97.2474 118.611 97.177 118.609C97.1065 118.608 97.0365 118.62 96.9708 118.646C96.9053 118.673 96.8455 118.711 96.7952 118.761C96.7447 118.809 96.7046 118.868 96.6772 118.933C96.6498 118.998 96.6357 119.068 96.6355 119.139C96.6354 119.209 96.6493 119.278 96.6766 119.343C96.7037 119.408 96.7436 119.467 96.794 119.517C96.8441 119.566 96.9038 119.605 96.9693 119.631C97.1985 119.738 101.732 121.677 104.159 122.548C100.63 124.234 97.2604 126.237 94.0917 128.53C91.1212 128.53 87.0837 128.18 86.6888 131.492C86.5901 132.981 86.6104 134.478 86.7492 135.964C86.7679 136.725 87.0549 137.456 87.5591 138.026C85.8002 141.016 84.7412 144.366 84.4617 147.825C84.0652 152.053 84.0187 158.142 84.0652 163.348C73.7165 157.685 67.6873 153.64 66.9996 151.839C66.9237 151.625 66.9687 151.579 66.9841 151.565C70.7244 147.108 84.6398 124.975 92.6731 110.2C100.084 96.5551 108.374 68.5988 110.425 66.1673C139.495 74.9951 177.561 77.0441 181.143 78.1189C181.235 80.71 177.968 104.006 166.413 134.121L166.426 134.117Z" fill="#501200"/>
<path d="M143.697 109.918C143.542 109.918 109.276 101.424 106.541 100.869C106.405 100.838 106.287 100.755 106.212 100.638C106.137 100.521 106.11 100.378 106.138 100.242C106.165 100.106 106.245 99.9863 106.36 99.9074C106.475 99.8284 106.616 99.7989 106.753 99.8222C108.732 100.223 130.828 105.659 143.824 108.864C143.945 108.899 144.05 108.978 144.12 109.085C144.19 109.191 144.22 109.319 144.204 109.444C144.189 109.571 144.13 109.688 144.037 109.774C143.944 109.861 143.824 109.912 143.697 109.918Z" fill="#501200"/>
</svg>
