<svg xmlns="http://www.w3.org/2000/svg" width="357" height="300" viewBox="0 0 357 300" fill="none">
<path d="M244.326 225.467H131.533C130.706 225.467 130.035 226.137 130.035 226.965V233.421C130.035 234.249 130.706 234.919 131.533 234.919H244.326C245.154 234.919 245.824 234.249 245.824 233.421V226.965C245.824 226.137 245.154 225.467 244.326 225.467Z" fill="white"/>
<path d="M258.43 234.92H110.331C109.385 234.92 108.617 235.688 108.617 236.634V242.658C108.617 243.604 109.385 244.372 110.331 244.372H258.43C259.376 244.372 260.144 243.604 260.144 242.658V236.634C260.144 235.688 259.376 234.92 258.43 234.92Z" fill="#4582ec"/>
<path d="M258.253 265.139H126.679C125.635 265.139 124.789 265.985 124.789 267.029V276.119C124.789 277.162 125.635 278.009 126.679 278.009H258.253C259.296 278.009 260.143 277.162 260.143 276.119V267.029C260.143 265.985 259.296 265.139 258.253 265.139Z" fill="#4582ec"/>
<path d="M284.9 278.008H109.672C108.121 278.008 106.863 279.266 106.863 280.816V296.465C106.863 298.016 108.121 299.273 109.672 299.273H284.9C286.451 299.273 287.709 298.016 287.709 296.465V280.816C287.709 279.266 286.451 278.008 284.9 278.008Z" fill="#4582ec"/>
<path d="M225.692 169.928H124.575C123.525 169.928 122.674 170.78 122.674 171.829V184.835C122.674 185.884 123.525 186.737 124.575 186.737H225.692C226.741 186.737 227.594 185.884 227.594 184.835V171.829C227.594 170.78 226.741 169.928 225.692 169.928Z" fill="#4582ec"/>
<path d="M245.312 158.586C245.38 158.586 245.445 158.573 245.507 158.547C245.569 158.521 245.625 158.483 245.674 158.436C245.721 158.389 245.759 158.333 245.785 158.269C245.809 158.207 245.823 158.142 245.823 158.074V155.292C245.823 155.157 245.768 155.027 245.672 154.931C245.577 154.836 245.447 154.781 245.312 154.781H161.77C161.703 154.781 161.637 154.794 161.575 154.821C161.513 154.845 161.457 154.883 161.409 154.931C161.362 154.978 161.324 155.035 161.299 155.097C161.273 155.159 161.26 155.224 161.26 155.292V158.074C161.26 158.142 161.273 158.207 161.298 158.269C161.324 158.333 161.361 158.389 161.409 158.436C161.456 158.483 161.512 158.521 161.575 158.547C161.637 158.573 161.703 158.586 161.77 158.586H165.059V166.12H161.77C161.703 166.12 161.637 166.133 161.575 166.159C161.512 166.186 161.456 166.223 161.409 166.27C161.361 166.317 161.324 166.373 161.298 166.437C161.273 166.499 161.26 166.565 161.26 166.632V169.414C161.26 169.55 161.313 169.681 161.409 169.777C161.505 169.873 161.635 169.927 161.77 169.927H245.308C245.443 169.927 245.573 169.873 245.669 169.777C245.764 169.681 245.819 169.55 245.819 169.414V166.632C245.819 166.565 245.806 166.499 245.781 166.437C245.755 166.373 245.717 166.317 245.671 166.27C245.622 166.223 245.565 166.186 245.503 166.159C245.442 166.133 245.376 166.12 245.308 166.12H242.305V158.586H245.312Z" fill="white"/>
<path d="M254.273 190.542C254.34 190.542 254.406 190.528 254.468 190.504C254.532 190.478 254.588 190.44 254.635 190.393C254.682 190.344 254.72 190.288 254.746 190.226C254.772 190.164 254.785 190.099 254.785 190.031V187.249C254.785 187.114 254.731 186.982 254.635 186.887C254.539 186.791 254.408 186.736 254.273 186.736H139.509C139.373 186.736 139.242 186.791 139.146 186.887C139.05 186.982 138.996 187.114 138.996 187.249V190.031C138.996 190.099 139.009 190.164 139.035 190.226C139.061 190.288 139.099 190.344 139.146 190.393C139.194 190.44 139.25 190.478 139.313 190.504C139.375 190.528 139.441 190.542 139.509 190.542H142.888V200.889H139.509C139.373 200.889 139.242 200.943 139.146 201.039C139.05 201.135 138.996 201.266 138.996 201.401V204.184C138.996 204.319 139.05 204.45 139.146 204.546C139.242 204.642 139.373 204.696 139.509 204.696H254.273C254.408 204.696 254.539 204.642 254.635 204.546C254.731 204.45 254.785 204.319 254.785 204.184V201.401C254.785 201.266 254.731 201.135 254.635 201.039C254.539 200.943 254.408 200.889 254.273 200.889H250.644V190.536L254.273 190.542Z" fill="white"/>
<path d="M239.409 208.338H131.277V221.717H239.409V208.338Z" fill="white"/>
<path d="M241.276 248.865H123.717V260.945H241.276V248.865Z" fill="white"/>
<path d="M285.041 277.293H260.616C260.971 276.542 260.866 276.841 260.866 266.942C260.866 266.274 260.599 265.634 260.128 265.161C259.655 264.689 259.015 264.423 258.347 264.423H245.611C245.899 263.942 245.822 263.783 245.822 261.346C245.822 260.955 245.666 260.582 245.39 260.306C245.114 260.03 244.74 259.874 244.35 259.874H242.046V249.651H244.35C244.74 249.651 245.114 249.495 245.39 249.219C245.666 248.943 245.822 248.567 245.822 248.177C245.822 245.611 245.884 245.549 245.611 245.1H258.514C259.137 245.1 259.734 244.852 260.175 244.411C260.616 243.97 260.864 243.373 260.866 242.75V236.555C260.864 235.932 260.616 235.335 260.175 234.894C259.734 234.452 259.137 234.205 258.514 234.205H246.419C246.593 233.701 246.544 234.131 246.544 226.898C246.542 226.329 246.317 225.785 245.915 225.381C245.512 224.98 244.967 224.754 244.399 224.753H243.039C243.302 224.285 243.227 224.081 243.227 221.612C243.227 221.426 243.192 221.244 243.12 221.073C243.049 220.902 242.946 220.747 242.814 220.615C242.683 220.486 242.527 220.38 242.356 220.311C242.185 220.24 242.003 220.204 241.817 220.204H240.028V209.98H241.817C242.003 209.98 242.185 209.945 242.356 209.873C242.527 209.804 242.683 209.699 242.814 209.569C242.946 209.438 243.049 209.282 243.12 209.111C243.192 208.94 243.227 208.758 243.227 208.573C243.227 205.92 243.285 205.866 243.039 205.432H254.273C254.6 205.432 254.915 205.3 255.146 205.07C255.377 204.839 255.508 204.523 255.508 204.197V201.415C255.508 201.088 255.377 200.773 255.146 200.542C254.915 200.311 254.6 200.179 254.273 200.179H251.587V191.272H254.273C254.6 191.272 254.915 191.142 255.146 190.911C255.377 190.679 255.508 190.365 255.508 190.038V187.256C255.508 186.93 255.377 186.614 255.146 186.383C254.915 186.152 254.6 186.021 254.273 186.021H228.061C228.226 185.683 228.312 185.311 228.314 184.936C228.314 170.648 228.418 171.401 228.061 170.656H245.311C245.638 170.656 245.951 170.526 246.184 170.295C246.415 170.063 246.544 169.749 246.544 169.422V166.64C246.544 166.314 246.415 165.998 246.184 165.767C245.951 165.536 245.638 165.405 245.311 165.405H243.092V159.317H245.317C245.643 159.317 245.957 159.186 246.19 158.955C246.42 158.724 246.55 158.408 246.55 158.082V155.3C246.55 154.973 246.419 154.66 246.188 154.429C245.957 154.198 245.643 154.066 245.317 154.066H161.769C161.442 154.066 161.129 154.198 160.898 154.429C160.667 154.66 160.537 154.973 160.536 155.3V158.082C160.536 158.408 160.666 158.724 160.897 158.955C161.128 159.186 161.442 159.317 161.769 159.317H164.351V165.405H161.769C161.442 165.405 161.128 165.536 160.897 165.767C160.666 165.998 160.536 166.314 160.536 166.64V169.212H124.48C123.809 169.212 123.166 169.479 122.692 169.954C122.218 170.427 121.951 171.071 121.951 171.741V184.932C121.951 185.602 122.218 186.246 122.692 186.721C123.166 187.194 123.809 187.461 124.48 187.463H138.274V190.035C138.274 190.361 138.404 190.675 138.636 190.908C138.868 191.138 139.182 191.268 139.509 191.268H142.195V200.176H139.509C139.181 200.176 138.868 200.307 138.636 200.538C138.404 200.769 138.274 201.084 138.274 201.411C138.274 204.433 138.236 204.371 138.388 204.705H128.844C128.471 204.705 128.113 204.854 127.849 205.118C127.585 205.381 127.436 205.74 127.436 206.113V208.569C127.436 208.942 127.585 209.301 127.849 209.564C128.113 209.828 128.471 209.977 128.844 209.977H130.644V220.2H128.854C128.48 220.2 128.122 220.349 127.858 220.613C127.594 220.876 127.446 221.235 127.446 221.608V224.064C127.446 224.437 127.594 224.796 127.858 225.059C128.122 225.323 128.48 225.472 128.854 225.472H129.873C129.519 225.862 129.323 226.369 129.321 226.895C129.321 234.028 129.27 233.692 129.449 234.201H110.244C109.621 234.203 109.024 234.451 108.583 234.89C108.143 235.331 107.895 235.928 107.894 236.551V242.746C107.895 243.369 108.143 243.966 108.583 244.407C109.024 244.847 109.621 245.095 110.244 245.096H119.464C119.176 245.579 119.251 245.738 119.251 248.173C119.252 248.564 119.407 248.939 119.684 249.215C119.96 249.491 120.334 249.647 120.725 249.647H123.027V259.87H120.725C120.335 259.87 119.96 260.026 119.684 260.302C119.407 260.578 119.252 260.952 119.251 261.342V263.668C119.251 264.059 119.407 264.434 119.683 264.71C119.959 264.986 120.334 265.142 120.725 265.142H124.825C124.586 265.376 124.397 265.656 124.268 265.964C124.139 266.272 124.073 266.604 124.074 266.938C124.074 276.935 123.98 276.567 124.324 277.289H109.531C108.632 277.291 107.77 277.648 107.135 278.284C106.499 278.919 106.142 279.781 106.141 280.68V296.61C106.142 297.509 106.499 298.371 107.135 299.006C107.77 299.642 108.632 299.999 109.531 300H285.041C285.94 299.999 286.802 299.642 287.437 299.006C288.073 298.371 288.43 297.509 288.432 296.61V280.672C288.428 279.775 288.069 278.917 287.433 278.283C286.798 277.65 285.939 277.295 285.041 277.293ZM133.171 186.021H124.48C124.192 186.021 123.916 185.907 123.713 185.702C123.509 185.499 123.395 185.223 123.394 184.936V171.741C123.395 171.454 123.51 171.178 123.713 170.975C123.917 170.772 124.192 170.658 124.48 170.656H133.175L133.171 186.021ZM122.863 243.653H110.244C110.004 243.653 109.774 243.557 109.605 243.388C109.435 243.217 109.339 242.988 109.339 242.748V236.553C109.339 236.313 109.435 236.084 109.605 235.913C109.774 235.744 110.004 235.648 110.244 235.648H122.867L122.863 243.653ZM258.51 235.648C258.75 235.648 258.981 235.744 259.15 235.913C259.321 236.082 259.417 236.313 259.417 236.553V242.748C259.417 242.988 259.321 243.219 259.15 243.388C258.981 243.557 258.75 243.653 258.51 243.653H242.204V235.648H258.51ZM244.395 226.196C244.581 226.196 244.759 226.271 244.89 226.401C245.022 226.532 245.095 226.711 245.097 226.896V233.502C245.095 233.688 245.022 233.867 244.89 233.998C244.759 234.128 244.581 234.203 244.395 234.203H233.713V226.196H244.395ZM161.983 157.864V155.504H245.101V157.864H161.983ZM165.798 159.31H241.639V165.398H165.798V159.31ZM161.983 166.843H245.101V169.205H161.981L161.983 166.843ZM226.873 171.733V184.932C226.873 185.219 226.758 185.495 226.555 185.7C226.351 185.903 226.075 186.017 225.787 186.017H216.435V170.652H225.787C226.075 170.654 226.349 170.766 226.552 170.969C226.754 171.172 226.871 171.446 226.873 171.733ZM142.141 170.648H207.405V186.014H142.139L142.141 170.648ZM139.719 189.813V187.453H254.063V189.813H139.719ZM250.141 191.259V200.166H143.641V191.259H250.141ZM139.719 201.612H254.063V203.973H139.719V201.612ZM132.079 209.967H238.587V220.191H132.079V209.967ZM229.908 235.637V243.642H135.167V235.637H229.908ZM147.724 234.191V226.185H228.132V234.191H147.724ZM130.757 226.885C130.758 226.699 130.831 226.521 130.963 226.391C131.094 226.26 131.272 226.185 131.457 226.185H142.139V234.191H131.457C131.272 234.191 131.094 234.116 130.963 233.985C130.831 233.855 130.758 233.677 130.757 233.491V226.885ZM124.472 259.861V249.637H240.601V259.861H124.472ZM128.615 298.546H109.531C109.015 298.546 108.521 298.339 108.156 297.975C107.792 297.611 107.587 297.117 107.586 296.601V280.672C107.587 280.156 107.792 279.662 108.156 279.298C108.521 278.932 109.015 278.727 109.531 278.727H128.615V298.546ZM135.167 277.28H126.586C126.301 277.28 126.028 277.167 125.826 276.965C125.625 276.764 125.512 276.492 125.512 276.206V266.929C125.512 266.644 125.625 266.371 125.826 266.17C126.028 265.968 126.301 265.855 126.586 265.855H135.167V277.28ZM143.387 265.855H235.669V277.293H143.387V265.855ZM249.231 298.546H144.551V278.731H249.231V298.546ZM259.42 276.206C259.42 276.492 259.306 276.764 259.105 276.965C258.904 277.166 258.632 277.28 258.347 277.28H243.892V265.861H258.347C258.632 265.861 258.904 265.975 259.105 266.176C259.306 266.377 259.42 266.649 259.42 266.935V276.206ZM286.986 296.601C286.986 297.117 286.78 297.611 286.415 297.975C286.051 298.339 285.557 298.546 285.041 298.546H265.167V278.731H285.041C285.557 278.731 286.051 278.936 286.415 279.302C286.78 279.666 286.986 280.16 286.986 280.676V296.601Z" fill="#001550"/>
<path d="M168.751 219.038L183.171 209.246C183.171 209.246 187.603 215.871 187.113 216.554C186.623 217.238 165.096 235.259 164.804 234.724C164.511 234.189 168.751 219.038 168.751 219.038Z" fill="white"/>
<path d="M96.5684 231.069L108.519 218.664L124.757 217.494C124.757 217.494 125.536 225.743 124.757 226.004C123.978 226.265 97.5427 231.784 96.5684 231.069Z" fill="white"/>
<path d="M243.58 95.0979C234.23 74.9005 211.335 65.3866 211.335 65.3866C211.335 65.3866 209.645 26.8052 209.645 24.2334C209.645 21.6615 211.626 1.47726 192.573 0.822103C172.327 0.129395 175.982 22.9287 176.166 25.6019C176.311 27.7025 174.773 61.6189 174.773 61.6189C153.47 63.6951 138.36 84.6866 138.36 84.6866C138.36 84.6866 135.976 84.7392 127.647 85.0771C119.317 85.415 120.633 93.872 120.633 93.872C118.056 94.1855 118.927 100.472 118.927 100.472C115.923 104.557 117.945 105.342 117.945 105.342C116.255 109.697 119.259 109.097 119.259 109.097C118.093 112.892 120.385 112.406 120.385 112.406C119.259 116.694 122.803 114.236 122.803 114.236C123.708 124.101 122.803 131.939 131.439 131.357C140.568 130.739 212.562 130.606 212.562 130.606L212.876 122.692C239.09 130.679 252.925 115.286 243.58 95.0979ZM214.107 103.932L214.545 92.2407C218.299 94.2888 225.36 103.932 225.36 103.932C221.626 104.418 217.841 104.418 214.107 103.932Z" fill="white"/>
<path d="M191.248 19.7338C190.007 17.9046 189.348 15.744 189.354 13.5339C189.359 11.3239 190.029 9.1667 191.28 7.34388C191.398 7.19952 191.569 7.10679 191.755 7.08501C191.939 7.06323 192.126 7.1141 192.275 7.22712C192.423 7.33994 192.522 7.50608 192.552 7.69061C192.581 7.87515 192.537 8.06362 192.43 8.21681C191.338 9.79333 190.756 11.6664 190.76 13.5843C190.765 15.5021 191.357 17.3724 192.457 18.9434C192.552 19.1038 192.582 19.2949 192.541 19.4768C192.5 19.6589 192.389 19.8175 192.231 19.9196C192.076 20.0219 191.886 20.0597 191.702 20.0249C191.518 19.9902 191.357 19.886 191.248 19.7338Z" fill="#001550"/>
<path d="M195.25 19.7893C194.681 19.026 194.29 18.1441 194.11 17.2091C193.93 16.2742 193.964 15.3106 194.208 14.3904C194.266 14.2116 194.392 14.0626 194.557 13.9747C194.722 13.8867 194.917 13.867 195.098 13.9193C195.278 13.9719 195.43 14.0924 195.524 14.2558C195.616 14.4191 195.642 14.6121 195.595 14.794C195.419 15.4902 195.398 16.2167 195.531 16.9224C195.666 17.6281 195.954 18.2958 196.372 18.8789C196.491 19.0279 196.545 19.2177 196.524 19.4069C196.504 19.596 196.41 19.7694 196.262 19.8892C196.113 20.0092 195.924 20.0659 195.734 20.0473C195.546 20.0285 195.372 19.9358 195.25 19.7893Z" fill="#001550"/>
<path d="M199.61 19.734C200.697 12.9177 197.417 9.86153 197.277 9.73388C197.138 9.60547 197.053 9.42732 197.044 9.23771C197.034 9.04811 197.1 8.86245 197.226 8.72072C197.352 8.57899 197.528 8.49245 197.718 8.48006C197.907 8.46767 198.095 8.53037 198.238 8.65445C198.403 8.80088 202.255 12.3189 201.039 19.9612C201.009 20.1506 200.905 20.3203 200.75 20.4329C200.594 20.5456 200.4 20.5919 200.211 20.5619C200.021 20.5318 199.852 20.4277 199.74 20.2724C199.627 20.1172 199.58 19.9234 199.61 19.734Z" fill="#001550"/>
<path d="M183.665 19.1697C182.753 17.8324 182.359 16.2097 182.552 14.603C182.747 12.996 183.519 11.5145 184.722 10.433C184.861 10.3082 185.043 10.2421 185.229 10.2485C185.417 10.2549 185.593 10.3333 185.723 10.4674C185.854 10.6012 185.927 10.7805 185.927 10.9673C185.929 11.1541 185.858 11.3341 185.728 11.4692C185.587 11.6063 182.323 14.8614 184.835 18.3212C184.942 18.4767 184.983 18.6672 184.949 18.8527C184.917 19.038 184.814 19.2035 184.662 19.3141C184.51 19.4245 184.32 19.4712 184.134 19.4444C183.949 19.4174 183.78 19.319 183.665 19.1697Z" fill="#001550"/>
<path d="M187.038 19.7534C186.49 19.0064 186.154 18.1252 186.065 17.2031C185.975 16.2808 186.137 15.3518 186.533 14.5139C186.621 14.344 186.775 14.2168 186.957 14.1597C187.141 14.1026 187.34 14.1207 187.509 14.2098C187.678 14.299 187.806 14.4518 187.864 14.6348C187.92 14.8181 187.901 15.0161 187.813 15.186C187.543 15.7869 187.436 16.4492 187.507 17.1047C187.578 17.7601 187.822 18.3848 188.215 18.9142C188.326 19.0702 188.371 19.2641 188.339 19.4532C188.307 19.6422 188.202 19.811 188.046 19.9223C187.89 20.0336 187.697 20.0783 187.507 20.0466C187.317 20.0149 187.148 19.9094 187.038 19.7534Z" fill="#001550"/>
<path d="M179.281 18.9821C178.684 17.3631 178.62 15.5951 179.1 13.9375C179.581 12.2799 180.582 10.8202 181.952 9.77228C182.11 9.66715 182.301 9.62792 182.487 9.66283C182.673 9.69775 182.838 9.80419 182.947 9.95906C183.054 10.1141 183.097 10.3054 183.067 10.4918C183.035 10.6784 182.932 10.8453 182.78 10.9568C181.652 11.8125 180.835 13.0119 180.448 14.3736C180.063 15.7354 180.131 17.1857 180.644 18.5053C180.696 18.6834 180.679 18.8749 180.595 19.0405C180.51 19.2059 180.366 19.3324 180.189 19.3938C180.015 19.4552 179.821 19.4467 179.652 19.3699C179.483 19.2933 179.35 19.1544 179.281 18.9821Z" fill="#001550"/>
<path d="M188.501 36.6033C187.38 36.2503 186.291 35.8 185.249 35.2573C185.039 35.158 184.861 35.005 184.729 34.8139C184.598 34.6228 184.519 34.4001 184.502 34.1688C184.483 33.9376 184.529 33.7057 184.628 33.497C184.729 33.2882 184.885 33.1099 185.077 32.9802C185.959 32.4318 186.757 31.7569 187.442 30.9771C187.823 28.3681 187.812 25.7167 187.406 23.1114C187.388 22.9207 187.444 22.73 187.564 22.5813C187.686 22.4326 187.861 22.338 188.052 22.3183C188.242 22.2986 188.433 22.3555 188.581 22.4763C188.73 22.5974 188.826 22.7724 188.844 22.9631C189.077 25.2158 189.522 30.566 188.613 31.8219C187.887 32.6913 187.029 33.4425 186.072 34.0483C186.924 34.4801 187.802 34.8599 188.7 35.1859C188.867 35.234 189.011 35.341 189.107 35.487C189.201 35.6331 189.24 35.8086 189.216 35.981C189.192 36.1535 189.105 36.3114 188.974 36.4257C188.842 36.54 188.675 36.6031 188.501 36.6033Z" fill="#001550"/>
<path d="M197.395 24.1447C196.815 23.7899 196.16 23.5781 195.482 23.5265C194.803 23.4749 194.123 23.585 193.496 23.8481C193.329 23.9293 193.137 23.9429 192.959 23.886C192.783 23.8291 192.634 23.7061 192.546 23.5426C192.456 23.3793 192.433 23.1878 192.482 23.0084C192.531 22.8289 192.647 22.6751 192.807 22.579C193.644 22.1996 194.56 22.0281 195.478 22.0791C196.396 22.13 197.288 22.402 198.078 22.8719C198.24 22.9661 198.36 23.1197 198.411 23.2999C198.461 23.4803 198.441 23.6733 198.351 23.8383C198.262 24.0033 198.114 24.1274 197.936 24.1846C197.757 24.2417 197.564 24.2274 197.395 24.1447Z" fill="#001550"/>
<path d="M179.265 22.8723C180.055 22.4034 180.947 22.1321 181.865 22.081C182.783 22.0302 183.701 22.201 184.538 22.5795C184.698 22.6752 184.814 22.8286 184.863 23.0078C184.912 23.1869 184.889 23.378 184.801 23.5416C184.713 23.7051 184.566 23.8282 184.39 23.8858C184.212 23.9433 184.02 23.9305 183.853 23.8504C183.226 23.5872 182.545 23.4766 181.867 23.5278C181.187 23.5791 180.53 23.7907 179.95 24.1451C179.781 24.2359 179.584 24.256 179.4 24.2008C179.216 24.1458 179.062 24.0201 178.972 23.8513C178.88 23.6825 178.86 23.4845 178.916 23.3009C178.97 23.1173 179.096 22.9632 179.265 22.8723Z" fill="#001550"/>
<path d="M186.192 40.7266C186.03 40.6402 185.906 40.4955 185.846 40.3214C185.788 40.1476 185.798 39.9576 185.873 39.7904C185.95 39.6231 186.085 39.4908 186.256 39.4206C186.425 39.3503 186.614 39.3475 186.787 39.4125C187.318 39.6394 187.889 39.7581 188.465 39.7613C189.043 39.7645 189.616 39.6522 190.149 39.4312C190.318 39.3511 190.511 39.3395 190.688 39.3984C190.864 39.4573 191.013 39.5826 191.099 39.7478C191.185 39.913 191.206 40.1054 191.153 40.2847C191.101 40.4639 190.983 40.6162 190.821 40.7097C190.096 41.0463 189.308 41.222 188.508 41.2248C187.709 41.2278 186.918 41.0577 186.192 40.7266Z" fill="#001550"/>
<path d="M204.164 58.8908C203.917 55.9919 203.917 53.0773 204.164 50.1785C204.187 49.9913 204.283 49.8207 204.431 49.7029C204.577 49.5852 204.765 49.5299 204.953 49.5484C205.141 49.567 205.313 49.6583 205.435 49.8026C205.555 49.947 205.615 50.133 205.602 50.3211C205.368 53.1284 205.368 55.9503 205.602 58.7575C205.612 58.9436 205.548 59.126 205.426 59.2666C205.304 59.4074 205.133 59.4955 204.947 59.5127C204.761 59.53 204.577 59.4748 204.431 59.359C204.285 59.2432 204.189 59.0753 204.164 58.8908Z" fill="#001550"/>
<path d="M179.369 57.7861V51.6212C179.369 51.4295 179.446 51.2457 179.581 51.1102C179.716 50.9745 179.9 50.8984 180.092 50.8984C180.283 50.8984 180.467 50.9745 180.602 51.1102C180.738 51.2457 180.815 51.4295 180.815 51.6212V57.7861C180.815 57.9778 180.738 58.1615 180.602 58.2971C180.467 58.4326 180.283 58.5088 180.092 58.5088C179.9 58.5088 179.716 58.4326 179.581 58.2971C179.446 58.1615 179.369 57.9778 179.369 57.7861Z" fill="#001550"/>
<path d="M182.749 32.2269C183.481 32.2269 184.075 31.4285 184.075 30.4436C184.075 29.4586 183.481 28.6602 182.749 28.6602C182.017 28.6602 181.424 29.4586 181.424 30.4436C181.424 31.4285 182.017 32.2269 182.749 32.2269Z" fill="#001550"/>
<path d="M195.267 32.2269C195.999 32.2269 196.592 31.4285 196.592 30.4436C196.592 29.4586 195.999 28.6602 195.267 28.6602C194.535 28.6602 193.941 29.4586 193.941 30.4436C193.941 31.4285 194.535 32.2269 195.267 32.2269Z" fill="#001550"/>
<path d="M232.728 102.077C230.627 102.737 228.455 103.149 226.259 103.307C222.329 98.3422 217.888 93.8066 213.007 89.7754C212.872 89.6408 212.688 89.5655 212.496 89.5664C212.305 89.5674 212.121 89.6441 211.988 89.78C211.853 89.916 211.777 90.0997 211.777 90.2912C211.779 90.4825 211.856 90.6657 211.991 90.8003C212.016 90.8266 213.118 91.769 213.812 92.3603L213.469 103.267C210.107 103.021 207.612 102.704 207.077 102.627C206.93 102.473 206.752 102.349 206.557 102.265C206.36 102.18 206.149 102.136 205.935 102.135C206.414 100.648 205.748 99.4657 203.711 99.5483C202.96 98.2568 201.411 98.4577 200.058 99.0865C199.87 99.0865 194.332 97.4402 193.666 99.982C193.345 101.18 194.555 101.859 195.748 102.188C194.433 103.436 193.21 105.004 193.788 106.13C193.944 106.401 194.182 106.616 194.465 106.746C194.751 106.875 195.068 106.913 195.376 106.853C195.072 108.443 195.952 109.481 197.839 108.952C197.593 110.54 198.522 111.58 200.589 110.816C200.583 111.089 200.642 111.36 200.76 111.607C200.878 111.853 201.055 112.068 201.272 112.233C202.528 113.102 204.651 111.553 205.935 110.543C209.279 107.915 209.365 106.308 208.851 105.413C208.689 105.157 208.472 104.942 208.214 104.784C207.957 104.626 207.666 104.53 207.366 104.502C207.396 104.382 207.418 104.26 207.433 104.136C214.567 105.047 226.377 105.768 233.195 103.447C233.377 103.385 233.527 103.254 233.612 103.082C233.696 102.909 233.709 102.71 233.647 102.528C233.584 102.347 233.452 102.197 233.281 102.112C233.109 102.028 232.91 102.015 232.728 102.077ZM195.077 100.314C195.246 99.982 196.579 99.905 198.239 100.175C197.903 100.393 197.435 100.75 197.112 100.998C196.388 100.94 195.689 100.705 195.077 100.314ZM195.096 105.405C195.376 103.904 200.777 99.4977 202.241 100.083C200.069 101.651 198.013 103.374 196.089 105.236C195.77 105.35 195.434 105.407 195.096 105.405ZM196.883 107.658C196.851 107.661 196.819 107.661 196.788 107.658C196.75 107.192 196.846 106.725 197.062 106.31C199.052 104.372 201.199 102.602 203.482 101.018C204.291 100.926 204.589 101.071 204.629 101.133C204.74 101.32 204.494 102.006 204.137 102.554C202.143 103.885 200.283 105.407 198.582 107.097C198.062 107.401 197.482 107.593 196.883 107.658ZM201.047 109.015C199.827 109.661 199.358 109.646 199.254 109.627C199.245 109.106 199.361 108.591 199.596 108.126C201.233 106.503 203.022 105.042 204.939 103.761C205.228 103.658 205.528 103.598 205.834 103.583C205.892 103.58 205.95 103.585 206.009 103.598C206.029 104.057 205.919 104.513 205.689 104.912C204.42 105.925 201.546 108.555 201.041 109.013L201.047 109.015ZM207.597 106.136C208.181 107.14 203.467 111.045 202.096 111.045C201.963 110.881 202.057 110.219 202.096 110.003C202.776 109.387 205.475 106.93 206.615 106.006C207.049 105.863 207.492 105.952 207.597 106.136ZM214.918 103.361L215.226 93.6106C218.614 96.6054 221.733 99.8919 224.547 103.432C221.336 103.593 218.119 103.568 214.911 103.359L214.918 103.361Z" fill="#001550"/>
<path d="M203.681 20.6102C203.123 19.1734 203.142 17.5774 203.731 16.1536C203.823 15.9883 203.975 15.8653 204.157 15.8114C204.338 15.7574 204.533 15.7765 204.7 15.8645C204.867 15.9528 204.995 16.103 205.051 16.283C205.109 16.463 205.094 16.6584 205.01 16.8276C204.61 17.9094 204.627 19.1007 205.057 20.171C205.107 20.351 205.085 20.5436 204.997 20.708C204.906 20.8725 204.758 20.996 204.58 21.0529C204.401 21.1098 204.208 21.0955 204.041 21.0129C203.874 20.9303 203.744 20.786 203.681 20.6102Z" fill="#001550"/>
<path d="M127.639 85.0796C127.639 85.0796 178.055 83.4726 179.906 83.4238C181.759 83.4878 183.52 84.2526 184.83 85.5639C186.14 86.875 186.906 88.6349 186.97 90.4879C187.651 96.2849 189.598 120.543 189.698 122.052C189.698 122.052 203.768 121.908 205.279 122.052C206.79 122.197 208.42 128.247 204.633 128.775C200.847 129.302 186.379 128.992 186.379 128.992C186.379 128.992 131.884 131.211 130.268 131.26C128.651 131.309 124.399 130.351 123.697 124.474C122.995 118.596 122.79 114.237 122.79 114.237C122.79 114.237 127.703 110.483 127.313 108.243C127.159 107.349 125.867 108.068 125.867 108.068C125.867 108.068 128.12 103.25 124.859 103.884C124.859 103.884 127.133 100.036 123.947 100.912C123.947 100.912 126.218 96.9701 121.784 98.6221C121.784 98.6221 121.018 92.9716 120.939 91.6575C121.003 89.9124 121.734 88.2579 122.98 87.0345C124.226 85.8111 125.893 85.1115 127.639 85.0796Z" fill="#4582ec"/>
<path d="M152.266 110.703C153.948 110.703 155.312 109.339 155.312 107.656C155.312 105.973 153.948 104.609 152.266 104.609C150.583 104.609 149.219 105.973 149.219 107.656C149.219 109.339 150.583 110.703 152.266 110.703Z" fill="#001550"/>
<path d="M243.942 94.9474C237.294 81.4237 225.986 70.7569 212.096 64.9113L210.564 39.4445C212.496 38.8766 214.176 37.6688 215.329 36.0198C216.483 34.3706 217.041 32.3783 216.913 30.3698C216.83 28.5624 216.153 26.8333 214.981 25.4535C213.812 24.0735 212.218 23.1206 210.448 22.7444C210.472 22.6824 211.247 11.9352 205.255 5.35914C203.579 3.60297 201.55 2.22168 199.302 1.30596C197.054 0.390419 194.636 -0.0389069 192.21 0.0465082C189.888 -0.133333 187.555 0.209828 185.381 1.05103C183.209 1.89222 181.253 3.20968 179.657 4.90672C174.483 10.8126 175.172 20.0524 175.414 22.1662C173.567 22.5276 171.899 23.5111 170.688 24.953C169.478 26.3947 168.798 28.2078 168.761 30.0901C168.739 32.0038 169.359 33.8698 170.522 35.3894C171.685 36.909 173.325 37.9945 175.178 38.472L174.489 61.0216C159.746 63.6932 146.592 71.9279 137.749 84.0237L127.396 84.3503C126.364 84.3833 125.35 84.627 124.416 85.0663C123.482 85.5056 122.648 86.1312 121.964 86.9049C121.281 87.6785 120.763 88.5837 120.442 89.5647C120.122 90.546 120.005 91.5822 120.099 92.6102L120.167 93.3611C118.032 93.5094 118.102 99.3683 118.192 100.75C115.549 104.291 117.017 105.533 117.325 105.819C116.174 109.062 118.038 109.624 118.494 109.778C117.636 112.594 119.328 112.781 119.69 112.888C119.194 115.98 121.8 115.61 122.19 115.441L123.077 125.158C123.251 127.038 124.12 128.785 125.514 130.058C126.909 131.332 128.728 132.039 130.616 132.042C130.696 132.042 117.884 137.206 112.545 146.763C104.285 161.541 106.943 210.898 107.416 218.61C106.341 219.689 105.368 220.675 104.486 221.572L102.907 220.633C102.743 220.534 102.546 220.504 102.359 220.549C102.173 220.596 102.012 220.712 101.912 220.877C101.813 221.043 101.783 221.24 101.828 221.426C101.874 221.611 101.992 221.773 102.156 221.872L103.433 222.638C103.089 222.989 102.763 223.322 102.449 223.645L101.323 222.971C101.159 222.871 100.962 222.841 100.775 222.886C100.589 222.931 100.429 223.049 100.329 223.213C100.229 223.378 100.199 223.575 100.245 223.761C100.29 223.947 100.408 224.108 100.572 224.208L101.405 224.709C95.7456 230.547 95.6592 230.962 95.6217 231.165C95.5958 231.296 95.6053 231.431 95.6493 231.557C95.693 231.683 95.7698 231.796 95.8713 231.882C95.9765 231.974 96.0778 232.06 96.5603 232.06C99.7385 232.06 124.291 227.003 124.927 226.761C125.401 226.582 126.272 226.246 125.491 217.536C125.784 190.71 129.283 168.716 137.86 159.38C138.29 155.399 139.476 151.535 141.353 147.997C144.455 142.189 150.954 134.952 164.256 133.512C164.444 133.496 164.63 133.554 164.775 133.674C164.921 133.794 165.013 133.965 165.034 134.152C165.055 134.339 165.002 134.527 164.887 134.676C164.771 134.824 164.602 134.922 164.416 134.948C154.231 136.05 146.901 140.67 142.623 148.682C141.016 151.732 139.937 155.033 139.431 158.444C141.648 185.305 163.719 213.233 168.223 218.683L167.001 222.912L165.232 222.68C165.045 222.663 164.859 222.717 164.712 222.835C164.565 222.952 164.47 223.121 164.445 223.307C164.421 223.492 164.47 223.682 164.582 223.832C164.693 223.982 164.859 224.086 165.044 224.116L166.601 224.318C166.469 224.78 166.34 225.229 166.225 225.648L164.755 225.46C164.661 225.445 164.565 225.449 164.473 225.471C164.38 225.494 164.293 225.535 164.217 225.591C164.14 225.648 164.075 225.719 164.025 225.8C163.976 225.88 163.943 225.97 163.928 226.066C163.914 226.16 163.918 226.256 163.941 226.348C163.963 226.44 164.004 226.528 164.06 226.605C164.116 226.68 164.187 226.746 164.268 226.795C164.349 226.845 164.44 226.877 164.534 226.892L165.829 227.059C163.777 234.444 163.924 234.842 163.952 235.041C163.962 235.124 163.989 235.203 164.031 235.274C164.072 235.345 164.128 235.407 164.194 235.456C164.26 235.505 164.335 235.543 164.415 235.561C164.495 235.582 164.578 235.586 164.66 235.573C166.015 235.573 187.115 217.739 187.6 217.176C187.926 216.8 188.52 216.096 183.823 209.006C175.394 193.049 166.051 161.224 162.082 149.596C162.02 149.415 162.033 149.216 162.117 149.044C162.202 148.872 162.351 148.74 162.533 148.678C162.714 148.616 162.913 148.629 163.085 148.713C163.257 148.798 163.389 148.947 163.451 149.129L165.17 154.177H200.754C214.884 154.438 213.842 135.37 213.26 132.284L213.587 123.223C217.872 125.052 222.534 125.826 227.182 125.481C231.828 125.136 236.324 123.681 240.292 121.238C247.972 115.753 249.298 106.172 243.942 94.9474ZM124.237 225.464C121.853 226.061 103.354 229.759 97.9213 230.512C98.9669 229.359 100.754 227.491 102.705 225.477C104.649 226.65 104.582 226.652 104.858 226.652C105.016 226.652 105.17 226.599 105.296 226.504C105.421 226.408 105.513 226.275 105.555 226.123C105.598 225.97 105.589 225.807 105.531 225.661C105.473 225.514 105.368 225.39 105.233 225.308L103.731 224.418C104.058 224.08 104.387 223.742 104.713 223.41C106.215 224.309 106.172 224.317 106.423 224.317C106.581 224.317 106.735 224.264 106.861 224.168C106.987 224.073 107.078 223.939 107.121 223.787C107.163 223.635 107.155 223.472 107.097 223.325C107.039 223.179 106.934 223.055 106.799 222.972L105.757 222.345C106.654 221.435 107.525 220.549 108.31 219.759L124.117 218.281C124.389 220.665 124.429 223.072 124.237 225.464ZM169.576 219.287L182.963 210.277C184.296 212.19 185.441 214.226 186.383 216.361C184.572 218.022 170.081 230.104 165.67 233.356C166.011 231.959 166.608 229.708 167.307 227.238C167.307 227.238 169.122 227.474 169.156 227.474C169.338 227.47 169.512 227.399 169.644 227.273C169.776 227.147 169.856 226.977 169.867 226.796C169.879 226.614 169.822 226.434 169.707 226.293C169.592 226.151 169.428 226.059 169.248 226.032L167.701 225.832L168.076 224.502C168.076 224.502 169.631 224.703 169.664 224.703C169.848 224.703 170.026 224.634 170.16 224.508C170.295 224.382 170.376 224.21 170.388 224.027C170.399 223.844 170.341 223.661 170.223 223.521C170.106 223.378 169.939 223.286 169.756 223.263L168.476 223.094C168.857 221.764 169.233 220.463 169.576 219.286V219.287ZM210.615 64.2787C206.276 62.4316 201.752 61.0509 197.121 60.16V51.213C201.112 48.7703 204.009 44.8836 205.21 40.3606C205.342 40.4062 205.481 40.4308 205.619 40.4338C208.268 40.4601 208.828 40.6628 209.117 39.4163L210.615 64.2787ZM205.663 22.9528L207.696 22.9903V39.0315L205.663 38.9921V22.9528ZM192.19 1.48261C194.418 1.39851 196.639 1.78578 198.706 2.6191C200.774 3.45241 202.642 4.71299 204.189 6.31842C209.607 12.2618 209.096 21.7964 209.059 22.3971C209.059 22.3971 209.087 4.65517 192.7 3.51568C190.119 3.1804 187.493 3.49277 185.062 4.42446C182.631 5.35614 180.47 6.87784 178.773 8.85271C181.407 3.48564 186.256 1.38499 192.188 1.48261H192.19ZM181.369 9.093C182.728 7.84857 184.337 6.90825 186.087 6.33494C187.838 5.76162 189.691 5.56845 191.523 5.76838C194.375 5.7742 197.166 6.58123 199.58 8.09749C201.994 9.61375 203.934 11.7782 205.176 14.3437C206.153 16.661 206.887 19.0729 207.367 21.5411C205.394 21.5035 205.064 21.4115 204.574 21.9015C203.984 22.491 204.157 21.7138 204.26 37.7305C203.915 40.2905 202.997 42.7396 201.572 44.8949C200.149 47.0504 198.257 48.8565 196.038 50.1786C195.927 50.2413 195.835 50.3322 195.771 50.442C195.708 50.552 195.676 50.6768 195.676 50.8037V60.5786L189.948 70.4961L185.951 60.6368L186.149 54.6878C188.337 54.5357 190.412 53.6455 192.03 52.1629C192.143 52.0666 192.221 51.9382 192.259 51.7951C192.297 51.6521 192.287 51.5011 192.236 51.3626C192.184 51.2241 192.092 51.1047 191.97 51.0206C191.85 50.9365 191.705 50.8916 191.557 50.892C189.498 50.8236 187.472 50.3359 185.608 49.4587C183.742 48.5813 182.077 47.3329 180.71 45.7896C176.081 40.323 176.986 21.2895 176.986 21.2895C176.98 21.2126 176.787 13.6022 181.367 9.093H181.369ZM176.601 39.1854C176.994 41.9001 178.023 44.4834 179.604 46.7245C181.039 48.4684 182.816 49.8995 184.827 50.9295L184.523 60.053C181.649 60.0761 178.782 60.3126 175.944 60.7607L176.601 39.1854ZM175.306 62.3263C175.724 65.2417 177.339 75.5685 179.12 75.9064C181.119 76.2818 186.306 71.2245 187.994 69.5143L189.12 72.2795C189.083 83.6613 189.049 96.1526 189.043 105.811L187.555 89.5578C187.378 87.6357 186.473 85.8538 185.026 84.5756C183.58 83.2973 181.701 82.6193 179.772 82.6795L139.598 83.9655C148.505 72.6871 161.186 65.0031 175.306 62.3263ZM120.302 94.8704L120.63 98.4785C120.302 98.7 119.604 99.2989 119.579 99.3214C119.426 97.7997 119.676 96.2643 120.306 94.8704H120.302ZM123.66 99.0004C123.734 99.0002 123.805 99.0282 123.858 99.0783C123.912 99.1286 123.945 99.1973 123.949 99.2707C124.002 99.511 123.842 99.9634 123.264 100.519C123.077 100.707 119.446 103.335 118.179 104.617C117.026 103.964 120.319 98.7075 123.664 98.9985L123.66 99.0004ZM119.136 108.466C117.97 108.208 118.241 107.17 118.838 106.025C119.647 105.167 123.473 101.373 124.845 101.734C124.933 103.821 122.166 104.148 119.136 108.466ZM119.819 111.355C119.671 111.167 119.666 110.592 120.114 109.588C121.306 107.657 122.899 106.006 124.787 104.747C124.787 104.747 125.538 104.495 125.633 104.615C125.646 104.636 126.64 105.178 124.575 107.636C124.299 107.839 120.923 111.071 120.527 111.554C120.339 111.554 119.973 111.542 119.819 111.355ZM122.046 113.895C121.323 114.323 121.043 114.221 121.043 114.221C120.968 113.96 120.962 113.683 121.028 113.42C121.094 113.156 121.229 112.914 121.419 112.719C121.734 112.404 125.021 109.113 125.374 108.841C125.851 108.77 126.289 108.636 126.435 108.905C126.872 109.72 122.384 113.686 122.046 113.895ZM183.179 128.928L130.813 130.6C129.252 130.644 127.734 130.093 126.564 129.059C125.395 128.025 124.663 126.585 124.516 125.03L123.563 114.597C124.18 114.112 124.761 113.582 125.301 113.012C127.522 110.729 128.26 109.258 127.706 108.223C127.558 107.986 127.356 107.788 127.116 107.645C126.876 107.502 126.605 107.418 126.326 107.401C127.077 105.811 127.965 103.059 125.763 103.393C126.236 102.516 127.469 100.39 125.175 100.329C125.384 99.8677 126.17 96.6294 122.046 97.799C121.901 96.1958 121.524 92.4882 121.524 92.4882C121.446 91.6538 121.539 90.812 121.8 90.0151C122.06 89.2184 122.481 88.4834 123.037 87.8561C123.592 87.2285 124.271 86.722 125.031 86.3676C125.79 86.0132 126.615 85.8185 127.452 85.7958L180.016 84.125C181.544 84.1269 183.014 84.6989 184.142 85.7288C185.27 86.7586 185.972 88.1722 186.113 89.693L189.09 122.243C189.212 123.919 188.673 125.577 187.588 126.861C186.402 128.039 184.844 128.769 183.179 128.928ZM206.258 126.433C206.258 126.921 206.064 127.389 205.719 127.734C205.374 128.079 204.906 128.272 204.418 128.272H188.214C189.77 127.508 190.601 124.518 190.545 122.603H204.418C204.906 122.603 205.374 122.797 205.719 123.142C206.064 123.487 206.258 123.955 206.258 124.443V126.433ZM203.265 115.006C203.128 114.872 202.942 114.798 202.751 114.801C202.56 114.803 202.376 114.882 202.242 115.019C202.109 115.156 202.034 115.341 202.038 115.533C202.04 115.725 202.118 115.908 202.255 116.042C205.131 118.834 208.499 121.07 212.188 122.637L211.957 128.991L206.913 128.567C207.801 127.529 207.703 126.761 207.703 124.437C207.701 123.566 207.356 122.731 206.74 122.115C206.124 121.499 205.289 121.153 204.418 121.152H190.5C190.438 115.652 190.5 87.7369 190.558 72.3265L192.332 69.2534C193.984 71.1982 199.349 77.2974 201.397 77.1379C203.489 76.9689 205.086 66.7961 205.497 63.9145C216.153 67.5733 233.412 76.2387 242.637 95.5744C256.504 124.636 220.576 131.959 203.265 115.006Z" fill="#001550"/>
<path d="M198.122 38.4037C199.205 38.2777 200.011 37.558 199.922 36.7958C199.834 36.0338 198.884 35.518 197.801 35.6439C196.72 35.7697 195.914 36.4896 196.003 37.2516C196.091 38.0138 197.041 38.5295 198.122 38.4037Z" fill="#c2eafc"/>
<path d="M182.347 37.4733C182.428 36.7101 181.613 35.9998 180.53 35.8864C179.447 35.7732 178.503 36.3 178.423 37.0631C178.344 37.8262 179.158 38.5365 180.241 38.6497C181.326 38.7629 182.268 38.2362 182.347 37.4733Z" fill="#c2eafc"/>
<path d="M210.947 286.826H337.598C337.598 286.826 367.475 259.869 351.368 254.872C341.319 251.753 317.14 271.823 317.14 271.823C317.14 271.823 341.465 238.01 328.976 233.779C311.294 227.788 282.067 254.092 264.335 274.616C264.335 274.616 278.88 251.526 267.453 249.936C243.292 246.557 210.947 286.826 210.947 286.826Z" fill="white"/>
<path d="M210.947 287.548C210.81 287.548 210.677 287.509 210.562 287.438C210.448 287.365 210.354 287.261 210.296 287.137C210.237 287.015 210.213 286.878 210.23 286.743C210.245 286.608 210.299 286.48 210.384 286.373C216.28 279.274 222.727 272.652 229.665 266.568C244.569 253.626 257.317 247.796 267.552 249.221C275.975 250.396 272.01 261.595 268.164 269.225C281.47 254.674 310.627 226.799 329.208 233.095C339.909 236.718 326.682 258.834 320.412 268.322C327.677 262.793 343.611 251.704 351.574 254.182C365.43 258.481 348.661 277.815 338.075 287.363C337.752 287.661 338.08 287.548 210.947 287.548ZM212.486 286.103H337.324C339.434 284.158 357.104 267.565 355.295 259.346C355.032 258.391 354.504 257.529 353.774 256.861C353.044 256.191 352.139 255.742 351.165 255.562C341.591 252.59 317.851 272.181 317.611 272.378C317.476 272.489 317.305 272.549 317.128 272.544C316.954 272.538 316.787 272.468 316.659 272.348C316.529 272.228 316.449 272.067 316.432 271.892C316.415 271.718 316.462 271.543 316.563 271.4C322.557 263.063 338.512 237.769 328.756 234.463C309.781 228.034 278.004 259.912 264.894 275.087C264.774 275.222 264.608 275.309 264.428 275.329C264.248 275.348 264.068 275.299 263.921 275.191C263.777 275.083 263.675 274.926 263.642 274.747C263.608 274.569 263.64 274.385 263.735 274.231C266.623 269.623 272.921 257.726 270.632 252.802C270.328 252.185 269.867 251.659 269.292 251.282C268.716 250.903 268.051 250.685 267.364 250.651C246.185 247.691 218.052 279.519 212.492 286.103H212.486Z" fill="#001550"/>
<path d="M24.476 70.905C23.9409 71.6559 88.5167 70.905 88.5167 70.905C88.5167 70.905 101.896 58.9544 97.8691 55.0572C93.8424 51.16 78.9089 61.0325 78.9089 61.0325C78.9089 61.0325 94.2367 39.4703 85.667 37.6513C77.0973 35.8322 61.8878 47.6533 55.522 58.8248C55.522 58.8248 60.1983 49.8628 54.743 49.4723C49.2876 49.0819 34.7389 56.6172 24.476 70.905Z" fill="white"/>
<path d="M34.6348 71.9444C24.1634 71.8881 24.1052 71.7792 23.833 71.2536C23.7717 71.1323 23.7442 70.9968 23.7538 70.8612C23.7634 70.7257 23.8096 70.5952 23.8875 70.4839C34.0247 56.3744 48.6973 48.6514 54.7927 48.7509C59.1574 48.8222 58.1943 52.5692 58.0028 53.8195C65.4443 44.1216 78.0895 35.2159 85.8069 36.9373C93.2446 38.595 85.5253 52.2088 81.3653 58.6497C98.6229 48.6195 99.3663 56.0215 99.3456 57.0352C99.2424 62.2277 89.415 71.0621 88.9963 71.4357C88.8666 71.5537 88.6986 71.6204 88.5233 71.6234C88.3637 71.629 36.4613 71.9538 34.6348 71.9444ZM25.7741 70.3525C32.2544 70.681 65.5269 70.4463 88.2323 70.1854C91.1871 67.5047 100.207 58.3268 97.3633 55.5766C94.7351 53.0292 84.887 57.9419 79.2984 61.6345C79.1576 61.7272 78.9891 61.7678 78.8216 61.7494C78.6542 61.731 78.4983 61.6546 78.3812 61.5333C78.2641 61.4122 78.1929 61.254 78.1801 61.086C78.1674 60.918 78.2136 60.7509 78.311 60.6133C81.9979 55.4283 91.7296 39.6781 85.5065 38.3584C77.2466 36.5994 62.2079 48.5444 56.1462 59.1828C56.0499 59.3422 55.8956 59.4584 55.716 59.5068C55.5361 59.5553 55.3445 59.5325 55.181 59.4432C55.0176 59.3538 54.8949 59.2048 54.8387 59.0272C54.7824 58.8498 54.7969 58.6574 54.8791 58.4901C55.63 57.0409 57.832 50.1551 54.6914 50.1926C49.9832 50.2471 36.1347 56.4965 25.7741 70.3525Z" fill="#001550"/>
<path d="M241.633 62.0405H274.86C274.86 62.0405 281.971 55.8042 280.218 53.758C278.465 51.7118 272.424 55.4157 272.424 55.4157C272.424 55.4157 279.439 47.4261 276.516 44.796C273.593 42.166 266.287 46.5494 258.395 54.9332C258.395 54.9332 260.148 50.272 258.104 49.5342C256.06 48.7964 247.479 51.9071 241.633 62.0405Z" fill="white"/>
<path d="M241.633 62.7628C241.505 62.7622 241.381 62.7284 241.273 62.6646C241.164 62.601 241.072 62.5097 241.008 62.3999C240.946 62.2901 240.912 62.1656 240.912 62.0389C240.912 61.9122 240.944 61.7878 241.008 61.6777C247.015 51.2571 255.821 48.1747 258.342 48.8486C260.314 49.3742 259.857 51.6157 259.741 52.5074C266.124 46.1791 273.529 41.1425 276.995 44.2587C279.248 46.2918 276.995 50.4668 275.035 53.2414C280.935 50.8009 285.063 54.0505 275.33 62.5826C275.005 62.8623 275.285 62.7628 241.633 62.7628ZM242.911 61.3173H274.581C278.322 57.9889 280.261 54.9346 279.664 54.2288C278.743 53.1531 275.02 54.6681 272.795 56.031C272.647 56.1203 272.474 56.1541 272.304 56.1261C272.133 56.0982 271.979 56.0103 271.868 55.8785C271.757 55.7466 271.697 55.5793 271.697 55.407C271.699 55.2346 271.763 55.0685 271.876 54.9384C274.01 52.498 277.832 46.9582 276.028 45.3325C273.603 43.1492 266.567 47.2998 258.915 55.4227C258.8 55.5438 258.647 55.6215 258.481 55.6427C258.316 55.6638 258.149 55.6272 258.006 55.5387C257.866 55.4503 257.759 55.3157 257.706 55.1577C257.652 54.9996 257.655 54.828 257.714 54.6718C258.128 53.5642 259.048 50.6639 257.852 50.2058C256.46 49.6746 248.723 52.0437 242.904 61.3173H242.911Z" fill="#001550"/>
<path d="M0.898438 200.09H112.742C112.742 200.09 127.947 181.385 118.781 177.097C109.614 172.81 96.569 186.059 96.569 186.059C96.569 186.059 111.775 154.493 99.6871 149.817C87.5995 145.141 68.9002 155.272 50.9742 177.681C50.9742 177.681 55.4553 163.457 47.8561 161.897C40.257 160.337 19.6034 170.279 0.898438 200.09Z" fill="white"/>
<path d="M0.897559 200.812C0.768648 200.812 0.642121 200.777 0.5311 200.713C0.420079 200.647 0.328599 200.553 0.266181 200.439C0.203743 200.326 0.172618 200.198 0.176035 200.071C0.179452 199.941 0.21726 199.816 0.285573 199.707C18.602 170.513 39.5597 159.61 48.0017 161.191C54.3843 162.387 53.059 171.619 52.4414 174.745C69.6483 154.178 87.6831 144.399 99.9472 149.145C109.977 153.027 102.913 173.264 98.6613 183.172C117.368 168.428 121.855 178.535 122.258 180.294C123.89 187.409 113.734 200.005 113.302 200.546C112.957 200.97 113.296 200.812 0.897559 200.812ZM2.21164 199.367H112.392C113.843 197.516 122.341 186.487 120.85 180.617C118.733 172.323 103.193 179.49 97.0825 186.568C96.9624 186.69 96.803 186.765 96.6327 186.78C96.4625 186.795 96.2924 186.75 96.1527 186.65C96.0129 186.553 95.9124 186.408 95.8692 186.243C95.8261 186.078 95.843 185.901 95.9167 185.747C96.0237 185.526 106.617 163.408 102.838 154.022C100.398 147.973 87.1988 148.784 77.8707 154.23C67.7313 160.56 58.8105 168.659 51.5328 178.141C51.4275 178.272 51.2794 178.364 51.1142 178.398C50.949 178.432 50.777 178.407 50.6281 178.327C50.4793 178.248 50.3629 178.12 50.2991 177.962C50.2352 177.807 50.2281 177.634 50.2788 177.472C50.3051 177.386 53.9882 163.757 47.7051 162.614C41.5308 161.482 21.6826 168.906 2.21164 199.367Z" fill="#001550"/>
<path d="M19.9258 277.444H59.0253C59.0253 277.444 65.7834 272.638 63.7015 269.522C61.6196 266.406 54.2195 271.08 54.2195 271.08C54.2195 271.08 61.8843 259.909 57.0767 258.35C52.269 256.792 44.347 262.895 39.1508 270.177C39.1508 270.177 42.7889 263.164 39.8003 261.865C36.8117 260.566 27.9792 265.234 19.9258 277.444Z" fill="white"/>
<path d="M19.9267 278.167C19.7951 278.169 19.6656 278.133 19.5524 278.066C19.4392 278 19.3467 277.902 19.2845 277.786C19.2224 277.67 19.1933 277.54 19.2002 277.409C19.2072 277.277 19.2502 277.15 19.3241 277.041C30.3624 260.303 43.7115 256.457 41.4344 266.153C46.4242 260.555 52.8857 256.22 57.301 257.65C61.431 258.993 58.4893 265.372 56.3042 269.113C58.8741 267.902 62.6868 266.684 64.305 269.113C66.7023 272.71 60.1957 277.493 59.4448 278.026C59.1501 278.244 59.4411 278.167 19.9267 278.167ZM21.2859 276.723H58.7915C60.513 275.447 64.4233 271.912 63.1092 269.922C61.7313 267.857 56.3793 270.575 54.6128 271.69C54.4722 271.779 54.3056 271.814 54.1414 271.794C53.9771 271.773 53.8247 271.698 53.71 271.578C53.5951 271.458 53.5249 271.304 53.5108 271.139C53.4967 270.973 53.5399 270.808 53.6328 270.671C55.5101 267.938 60.0155 260.061 56.8617 259.032C52.8275 257.718 45.3091 262.798 39.7468 270.585C39.64 270.731 39.4817 270.833 39.3038 270.868C39.1256 270.904 38.9407 270.87 38.7858 270.776C38.6308 270.682 38.5172 270.532 38.4674 270.358C38.4177 270.183 38.4353 269.995 38.5172 269.834C39.4258 268.079 41.3331 263.301 39.5215 262.513C37.113 261.476 29.099 265.387 21.2859 276.731V276.723Z" fill="#001550"/>
</svg>